<mxfile host="Electron" agent="Mozilla/5.0 (X11; Linux x86_64) AppleWebKit/537.36 (KHTML, like Gecko) draw.io/28.0.6 Chrome/138.0.7204.100 Electron/37.2.3 Safari/537.36" version="28.0.6">
  <diagram name="PÃ¡gina-1" id="tjPRAzJfArRWsEkiLkOd">
    <mxGraphModel dx="1486" dy="897" grid="1" gridSize="10" guides="1" tooltips="1" connect="1" arrows="1" fold="1" page="1" pageScale="1" pageWidth="827" pageHeight="1169" math="0" shadow="0">
      <root>
        <mxCell id="0" />
        <mxCell id="1" parent="0" />
        <mxCell id="htXlGPYzkKtCfoeAobpg-1" value="" style="shape=image;verticalLabelPosition=bottom;labelBackgroundColor=default;verticalAlign=top;aspect=fixed;imageAspect=0;image=data:image/png,iVBORw0KGgoAAAANSUhEUgAAAwYAAAK7CAYAAABI5ZjLAAAACXBIWXMAAA7EAAAOxAGVKw4bAAAgAElEQVR4nOzdd1xT5/7A8U8WhBWmgCyR4UTFvSgqah2o1TrqrdXWtre9XXbYYa2tt+29tXvb1tYurdZWbR1VqSIqouJG6kBERJC9IYSQhOT3RzQQQUVEsff3vF8vX5JznnPO94QkPN9nRWIymUwIgiAIgiAIgvD/mrS1AxAEQRAEQRAEofWJxEAQBEEQBEEQBJEYCIIgCIIgCIIgEgNBEARBEARBEBCJgSAIgiAIgiAIiMRAEARBEARBEAREYiAIgiAIgiAIAiIxEARBEARBEAQBkRgIgiAIgiAIggDIWzsA4fa3dMVOflm/H4BXn5tI5ICOrRyRIDSfTmcg+r4PAGjn58HSDx9q5YgEQRAE4fbw/zIxSMrLo+eSJVbb3hw2jAWRka0UkSAILeFgUjrz31oNwIRRvXjqoZGtHJEgCIIg/H3cssRAq9USGxtLYmIimZmZAHh5eTFixAhGjBiBTCa7VaEQ4OzMN+PHA+YkYfHBg7fs2sKtU3M0lezhT+D64kxc582i/LPVFC/8Gp/NH6EcENagfNXvu6hOSEJ7OAXdyXNgqMXj/TmoHhzfYjFVLt9C+dfr0KdlIXGww25IT9xfexh5O+9Gy5/zG49teAd8/vig7n7mP4Dr8zNaLCbh78PyGt7wPsqIHuRNX4Am9iBBRX9alavatIf8mf/GYXwEXj8utNpnyMwjM3wmihA//A98j+bPRPL+8WqTrq/o1A7/vUsBKPt4FSVvfHvV8u3+WonMt8113KE1/elMSj9YgfbgSWrzipG1ccW2RyguT9+DbZ/ODcpf73s+NTWVbdu2ceLECcrKylCpVHTq1ImpU6fi6+vb7LgFQRD+rm5ZYrBs2TJiY2Np164dAwcORKPRcPToUb799lsyMjJ49NFHb1UouNnZ8XCvXgCsS0kRicE1jB7WnR5dAwAICfRq5WhunpJFP6BPu4DM0xWZpyu1OUUte/7//kDZByuQtXXHaeZYanOLzMlIfBJ+2z9HHtB4ciC0LLlcxlvzpwJgp7Rp5Whan9y3DY7TrXtWquOPUptThN2w3si83OrK+jSs5Nt0aY9N95BGzy1xUDY7Lu3+E+Tc9QLU1uIQPRjFxCHoM/Oo2phA1ea9eP34Gg7jIpp9/pKSEhYsWICdnR1du3ZFpVKRlpbG3r17OXLkCG+//TY+Pj7NPr8gCMLf0S1LDEJCQhg+fDjBwcGWbRcuXOCFF14gLi6OmTNnYm9vf6vCEa6Dn48bfj5u1y74N+fx7lMogn2R+3tR/OoSyhevabFz69MuUPbRz8i83fGPX4LU3RmA8sVrKH51CcWvfY3XD6+12PWEK5NKJfQND2rtMG4bNmHBeH7xotW2vOkL0OQU4fLUNOyG9rrq8fajB+K2YHaLx1X6/k+g09Pm8+dxuneUZbt67Q4K/vkWpR+svKHEQC6XM2PGDEaNGoVSWZfAfP7558THxxMbG8usWbNu6B4EQRD+blo8MTAajRw9epS4uDimT5+Ov78/AFFRUQ3K+vn54erqSlFRERqNxpIYLNy5kzd27WLR8OHMi7D+4F+UkMD87duZO3Ag7995JwATV60iNj2dBZGRLEpIwFWpZOmECRzNy+Ot3btxUSr5aNQoJnbq1NK326hHX/ie9PMFAKxZOgdnlZ1l37crd7FqXSIAL88ZT1REF8u+pOOZrPnjACdTs9FU63BxtqdHlwD+MWkggf4eDa4z9Z+fUVauQWmr4OevnuDblTvZc/AMarUWVxcHHrp3iNX5T6Xm8MuGRM6k51NSpsbB3pY27irCOvkxa2oETo51fxx37DnFW59saHDNq00+zs0vY8XavRw6do6yCg3OTnb06h7IfZMH49vW9YrP0fLP/8Vn324l+WQWtrZyRg/rzoP/GIJUKrnWU92irlUBuhGVv8SC0YjzP++yJAUAzo9MpPSjn6natAdjWSVSF6ebFsPlqjQ1rN5wgPjEFPIKypHJpQT4ujPijq5MGNULmaxu0bI9B87w7/d/A+Deuwfi7urIrxsOUFKqJjjQk6f/OYqQ9g17k7RaPWs3HyR+32myc0uQyaR4e7owuG8oE0b1wsW5rjHAZIItccfYvP0Y57OKMJlMtPPzYHRUd6JHhDd4PaSdy+fr5Ts4mZqNndKGCaN60SH4yr0us5/5hgs5JVbbrjT5uDn3qzfUsnz1Hrbu/IvKKi0dgrx5YvYIXn7rV8v7dOPy564Yn2DNcD4PALs7wq2220X0AMBYUnFD51epVNx1110Ntnft2pX4+Hiqqqos21auXIlMJmPYsGF4enre0HUFQRBuZy2WGOTl5bFjxw527txJaWmppTXmapKSkigqKqJ9+/Z4eNRVfBcOGUL8+fO8umMHQwMDGeDnB8CB7GwW7thBf19fFo0YYXUujV7P+tOneSA8nC8PHuSeNWtwtrXl4V69WHbsGLPXrye6QwcU0pu/QmtE/w6WSu/R4xkMHVQ3FvbQsXMAyGRS+veq6z1ZF3OYxd/FWp2nuERNXMJJdu8/zZsvTaF398BGr2cymZj/1q+cOpNj2VZQVEFufpnl8YGj6bz6zhqMRpNlW3lFNeUV1aSdy2fs8B5WicH1Sk3P48U3VlGlqbFsKymrIjb+BHsOnOGdBffQuUPj3fKvvbuWc5mFAGhr9Pyyfj9+bd0YHdW92fHcbrT7jwOgHHTZPSnkKAeEodm8l5pDKdiN6HtL4qmorObZ11aQmV1s2aY31JJ6No/Us3kcOJrOf+ZNsUoOLtl3KM3y+wJIScvl9Q9+58dPH7WqvFeqtTy3cAUZWdZDstLPF5B+vgAfb1dGRHa1bH938R/Exp+wKpuankdqeh7HTmTyyjN3Ibl4+uzcUp5buJJqrQ6AGp2BZasT6Bza8kM/mnq/H3y5he276+I/nnKBF99chd5Q2+Ix/X9g0zkQfdoFqncdxem+0Zbt1buTALCL6t3i1zQYDOzcuROAvn3r3otarZaYmBjWrl1LWFgYUVFR9O/fH4VC0eIxCIIgtKYbSgx0Oh2JiYnExcVx8uRJAEJDQ5k8eTKDBw/GwcHhisceOXKEDz/8EDc3N5599lmrfVKJhJWTJxP+1Vf8Y+1akv71L6QSCfeuXYuDjQ2rpkxpUME3Ab9OnYq/SkW+Ws0vJ07w7YQJTOzUCQ97e+bFxnKysJAeXjd/jHxEvw4s+zUBMCcClxKDS5VwgJ5h7XCwtwUg80IxX/6wHQBvT2cenjEU7zbOpGXks2TZDqq1Ot5bvInln/8LhaLhJO0anYFTZ3IY2CeEXt0C0etrOZ5yAeo1sP6+5RBGowmpVMLCuZMI6+RHRWU15zIL2RSbhERi3Rrbv1cw3370MABr/zjI5u3Hrni/RqOJRZ9utCQFw+/oyoDewRxMOsfWnX9RrdXx1qcb+OGTRxqtaNbWGnl5zniSjp9nS1wyAH/u/MuSGGzdupWUlJRrPOsQHBxMdHS05bEiyAev5f/GJtTca2UfPQh5kA82Hdtd81wtzZCRa44psC0mdTVli9dg26sj9iP7obg48VifkYPdZcd5ffsKUmdH87GX7qcF4l/8fawlKZg4pjfDBndGp6tlzR8H2H/kLIeOnWPj1qNMHNOw8nUus5BpE/rTPqAN3/y0g5KyKvIKyjl2IpOe3epi+3TpVktS4KKyZ/K4vvh4u1JUXMmm2CSrc27ffcKSFLi6ODBragRSiYRlqxMoLlWza18KfXq0t7wmflq7x5IU+Hq7MmlsH86cy+PPHX9d8Z4XzZ+GTm/AYKjl0Re+b/Jz1ZT7PZmabUkKZDIps6ZG4GBvy/er4tFq9Q3O+d1336FWq6957cjISMLD61rMLa/hzoEAuM6dger+sU2+l5tBE7MPQ05hg+0O0YNxiB7c7PO6vTIb7f4TFD7zEVWb96IIbIshK5+qrftxmDgE99cfaXDMjbzna2pq+OCDDzh16hQTJ06kT58+ln0PPvggQ4YMYdeuXSQkJPDpp5/i4ODAHXfcQVRUFIGBgc2+T0EQhNtJsxKD9PR04uLiSEhIQKPR4OHhwd13301kZGSTJmslJSXx3nvv4eHhwauvvtpo12xbR0eWT5rE6J9+4pGNG7GRyThbWspv99xDoItLg/IyiQQ/lQowrzoEEORqHr7if3F7bmXlLUkM2ge0oa2XC7n5ZRxJzrBsP5x8zvLz4H4dLD9vjjtmacl//rGxlom+HUPaUlhUyYrf9lJcqubYiUz6hLdv9JqzpkYwc2rdH+GpE/qhramrkNTUGADz+GpnlT0qJztUTnb4+bhxRyNDg+ztbAjwdQe4Zk/CsROZliEa4WEBzHtqHABDB3WmuKSSw8kZ5BWUc+jYOatekkue/ucounfx544BHYndfQK9vpbcgrrejpSUFBISEq4aA5hb9eonBlJnR6uKiSLIF0VQ66w0YqzUmGNytKd86XpK31kGCjntMzcgdXKwKlOf/agBlp8vv5/mqlRr2bn3FADdu/jzxOy63rfOHXy46/6PqK01EpdwstHEoEfXAP5531AA8grK+PFiEpxbUEZPzBWw8opqdu0zX0Mhl/Hpf2fS1qvufXvX6F5UqrWWx39sq0sUXn32Lrp1NlfsAgM8eHrBTwBs3HbUkhjsP3LWUv6NlyZbXqtl5RqrffV5e5o/F3Q6w9WfoGbc7659dYnrjMmDuPfugYD5vbPo040NznngwAFKSkoabL9ccHCwVWJw+WvYtm/DlXluNd3Jc+ZVvC6jCPC+oderokMAftsXk//wf9HE7LNst+kegtP0kUhVDRuemvueNxgMvP3225w4cYJp06YxZcqUBmWCg4MJDg5m1qxZHDlyhJ07d7Jt2zZiYmIICgoiKiqKiIgIMVdOEIS/tetODPLy8pg3bx4AERERREVF0bVr1wYtzldiNBr54osvsLGxYeHChVZDiC53Z3Aw8yIiWHSxUjinf38mXWGegK1cbmkgV8rNt2V3sZv30uNqw/VVCG5ERL8OrN54gMLiSjKziwnwdedwvSRhUN9Qy8+n03ItPz//+s9XPOeF3JIrJgZ3jW44Pl5pW9fN3bt7IH+dysJgMPLMqz8R4OdOz7B29O8VTK9ugY225DfV6bN18ddPeAAiB3Sy3Hfq2bxGE4NLY7UVchkuKnsKiyuthiTNmTOHOXPmNDu+24KpbgiXsl8XpM6OKAd2Q2KrsNp3K6Sdy7ckosknsxg57Z1Gy13IbbziWn9svYdb3ZyI+r+zM+l5ltvqGx5klRSAuVW9/vyCS68hlZOdJSkA6NLBF3dXR4pL1Za4qzQ1lqTC38fNkhSA+fV3pcSguZpyv/WHS0XUew/c0b8ji2iYGHz11VctGmNrcnnu3qZPPjYaKXppcYPN7m88gsTO1mqbLjmN3HtfRdHeF7/4r1AE+aLPyKV4wVfkTV+A+6LHcX50UkvcAtu3b+fEiROMHTu20aSgPrlcTr9+/ejXrx8VFRUkJCQQExPD0qVLOXbsGC+88EKLxCQIgtAarrs2qFQqLZX548ePc/ToUcv3EjRFQUEBZWVlhISEXDUpuOSesLq1p+/p2vWK5eqnJdKLSYrksse1RmOT47xR9SvIl3oNLvUYdOngi5tLXWuXukpLU9TvAahPoZChcrp8EIq1aXf1567RdRNKMy8Usz7mCPPfWs3j836ksLiySTE0pn4FyfWyVrz6lb8r3aetTV1+akkwb21d+aa71LppVGtQDuxG4Lnf8V75hmUbgNTp1rQ03ujrzer3VX9CcL3fmVpTdw0P96tPqNbra9HrzePwXVQNn4NLryGj0US1VmcZQgTgfFn5+hP9W0pT7ldT/z3gXPceUChkliGDt1KTGmqa2JjToowmKr7d0OCfSXfZa81oJP/RRRhLK/H+8TVswoKR2Cux6dIerx9eQ6pyoOQ/32FSV7dIWKdPnwZgwIAB1yhZp6amhuTkZJKSkigoKEAikYjlTQVB+Nu77h4DFxcXPv/8c5KTk4mLi2PLli1s3LiRgIAAhgwZQkREBK6urlc8Xqcz/1G3tb32H0uNXs+9a9fiZGODTCpl5u+/c+TRR3FuwrGtrUsHX1xdHCgtq+LQsXOEh7WjuMQ8pjjislZ1+3otZR+/eR+eHqpGz3mlCoasCROqFXIZTz44ktnTIzmcnMFfp7LYdyiN/MJy0s8X8M1PO5j/9ISm3t4V4yqrsB4OU1Ze99ixmWuax8TENHmOwfjxLfdlZC1JHtgWw4UCDOfzrNaFB9BfXH1FEXhrKhX29X5fEf078PgDIxotdyP1xvqviaKSqyedCoUMhUKGXl/b4PUDda8hqVSCndLGagJ9xWUVw4qKlqkoXi/ber1zFZXVlmTGYDCiqa5pUH7p0qVNmmMwZMgQevbsef0BKa7y0X7x6ZPYtMLEWbmMoJJt1yxmyCpAfzoTm7BgpG7Wn4dSlQM2nQPR7j+B7kwWtj07XOEsTafXmxOT+suWNsZkMnHixAni4+NJTExEq9Xi6enJlClTGDZsGO7u7lc9XhAE4XbXrDkGUqmU8PBwwsPDqaysJD4+nri4OJYvX86KFSsICwtjyJAhDBw4ELnc+hJeXl688cYbODo6XvM6j2/axMnCQpZPmoRSLmfq6tU8vGEDq6dObU7YjVJdTDI0+sZbR5tLIoFBfULZFJvEsZOZVsMbLh9uExrkxcnUbADOZuTTtWPDMbFnMwqshjFcr0sTjx3sbYkc0JHIAR15ZOYwHpjzNQVFFZxMzbn2Sa6gY3Bby897DqRaDWvafeC05eerLSV5Nampqezdu/ea5XQ63W2bGCj7h6FNOEb13mRs+9UtIYuhFm3icZBJse19a5bTDQ6sm9OTejYPJ0el1bAzMLfiZ+eVNvs1FxrkjURiHiV1MCmdvIJyyxh/ML8eK9TVlh6CjsFtOZ5ygYrKao6nXCCsk3klslNnciguNVegQ9p7IZVKcHJU4uSopFKtJfNCMbn5ZZahSi09jKipAnzdOXbC3HN6ICmdAD/3iz+fbXSk2KFDh5o0xyA0NLRZiYHs4pK4xkZ6h4yV5mU4ZW6NN0DcDi71otWWNr4kae2lpUpbaBje9OnTiY6Oxtu78c+ovLw84uLi2L17N8XFxSgUCvr160dUVBRhYWFNHkorCIJwu7vh5UqdnJyIjo4mOjqatLQ0tm/fzp49e0hOTsbf37/Bag1qtZqzZ8/i4eGB38VlSBvzfVISPx47xszu3bmvu3nC4T979eKbI0f4/MABnuzX70ZDByD0YgvP3qysFjlffRH9OrApNgmtVs+aPw4A5onJPt7W463HRPVgw59HMJngq2Vx5BWUE9bZD6WNgpz8MvYePMPBpHRifn6h2XMBPv46BoPBSNQdXWgf0AYbhZxTZ3IsLa71K4a1tUay80otj+tPEi0uqbSsZiOXyfDxdqFH1wD8fNy4kFPC0ePneffzTfTvFczBY+kcSjIPn/L2dKZPj8bnR1zL7T7HoHzJ75S+uxyJXEa706sbLeM0NYqyD1dS/s06VLPGWlpBy5eux1hSgcO4CKSut+Y7DFxU9gzuF8qeA2coKKrguYUruGtUbzzbqKjS1HAqNYftu08walg3Zk+PbPY1Ivp3ZHfiafT6Wp56ZRlTxvXDx8uFwuJKtu76iynj+lmWKx03Mty8khbw5ofrmDUtAolEwvLVeyznHDeyroLcv1ewZRWj195dy9Tx/TlzLo+EA6mNxlNSVmUZQmWot3yowVBrtWSru6tjs4b+RPTrwMatRwH48Zfd2CttcLC35YsfYhstf7PnGNh0DkTiZI9231/o0y6gCKn7rK38KQYA275drnR4q1OE+CNxsqc2uxD1mjgcp9R9D47mz0T0Z7LMPQddW+aL6rKysiguLsbT07PRXoNff/2VhIQE2rVrx4QJE7jjjjua1LglCILwd9OiX3AWEhJCSEgI999/P4mJiY1+cObl5fHjjz8SFhZG//79Gz3PicJCnty8mWBXVxbXW2XmkzFj2JOVxfNbtzLQ35/ebds2evz18FepmNipE+tSUhi7YgV9fX2RAFO6dCHsBr/IJvzikqRVmhrLcIjLewvA3IL7yMwoliyLQ6+vZfXGA6zeeOCGrn25Gp2BuISTbIs/3uj+6BE9LD+XlFXx0LNLGy33xcVlVQE8PVSs+OIxpFIJL88Zb/keg23xx62uY6e0Yf6cCTc0wflWqFzxJ9V7zMuy1iSZK5iVq7ahPWReXcdpShR2UX0aHGeqrsFYWglXGdKl6BCAy9P3UPbxKrIiH8UhOoLa3CKq/khA6qbC/Y2GSy/eTE8/PIqMrCKyc0s5k57P+19ubvFrzHnoTjIyC8nKKaGsXMPSFTuvWHb4HV05dOwcsfEnKCmr4uOv/7TaP2RgJ0YPq/sOiBl3DyLhQCparZ6MrCLe+2ITAJ1C2pJSbzL/Jd+viifm4lK49WXnlVq91p9/fCyjhna73lulV/dAS7KlrdHz0dfmyred0gZbGzk117kS0o2S2Nni9spsiuct5sKwx7Af0Q+psyM1SanoktOQ+3m22MTdm0Fiq8DjjUcpfPYjCh5ZhHpNHIoQP/QZuWi2mFcocl/0uHnyfguIiYnh5MmTBAcH4+bW8Fve+/Xrx7hx4wgKEt+YLQjC/7YW/+ZjMI/THDp0aLOO1ej1TFu9Gn1tLT9PmYKTjY1ln51czqopU+j3zTfcs3o1Rx591DIU6EYsnTABO7mcTWfOsCUtDYBOHh43nBjI5eYvMYtLOGnZdvn8gkumjOtLx2Bv1m05zInUbMs3pbq5OBAa5M2A3iE3VLEeHdUdpa3CMjRDXaVFaasgqJ0nY4f3YOSQsGuf5Co6BHnzxdsPsOK3vRxKSjd/87HKnl7dArlv8iD8fBr+sb3daPcfR73KevxzzaFT1FxMDGy7hTSaGDSV22sPIQ/wpmLpeip+3ITUXmlej/3VB5EH3niSez1cXRz44u0HWLflMAkHTnMhpxS9wYCzyh7vNs707tGe4RFXnuzfFC7O9nz21ix+23SI+MQUcvLLkEmleLVRMbBPaIMepBefGEe3zv5sik0yf/Mx0M7PnTFRPYgeEW4158HPx40PFt7LkuVxpKTlYm9nQ/TwcDp38GHB22tuKO7mmj9nAj/8upvt8SeoVGtp5+/BY/cP5/UPfqdGZ2j0O0huJudHJmLbLZjSd5ejiTuESaNF7tMGl2em4/LM9EaX+7ydON0/Fnk7b8q/XIv24Ek0sQeROjtgP6Ivzk9ObfCNyDfT9UxKFgRB+DuTmEy3eK1EQRCE/ydKyqq455HPAQj09+CbDx5q5YgEQRAE4cpuSo+BIAjC/zefLt1KrdFIWEc/3F0dqVBXWw0J7NktsPWCEwRBEIQmEImBIAhCC6hQV7NrbwqbY4812OeismfahJZZMEEQBEEQbhaRGAiCILSAgb1DqKis5nxWkWUlrzYeTvTu3p5/TBp4Q8sNC4IgCMKtIOYYCIIgCIIgCILA7b1+pCAIgiAIgiAIt4RIDARBEARBEARBEImBIAiCIAiCIAgiMRAEQRAEQRAEAZEYCIIgCIIgCIKASAwEQRAEQRAEQUAkBoIgCIIgCIIgIBIDQRAEQRAEQRAQiYEgCIIgCIIgCIjEQBAEQRAEQRAEQN7aAfwdJOXl0XPJEqttbw4bxoLIyFaKSLjdnPMbj9zHA/8D37d2KIIgCIIgCM0iegyaIMDZmW/Gj+eb8eN5om/f1g7nf0bN0VTS3UZS+vYyAMo/W02620i0icdbObLbh0ldTbrbSHLGzW3tUG6JvOkLSHcbaXl8zm88uRNfbMWIBEEQBOH/D9Fj0ARudnY83KsXAOtSUlh88GArRyTcbnx+eweJraK1wxAEQRAEQWg2kRgIQguw7deltUMQBEEQBEG4IS2eGBiNRo4ePUpcXBzTp0/H39/fsm9/djZvJySQkJlJuVaLr0rF3Z0789qQITjb2lrKdV68mPNlZRS88AKONjZW56+prcXrvfdwVirJeOYZJBe3783KYnlyMvHnz3OhogJ9bS3tXV2Z2qULLwwejIOirjV34qpVxKansyAykkUJCbgqlSydMIGjeXm8tXs3LkolH40axcROnVr66WmUuqqGSbM/BqBrR19mT49kyfI4MjKLcHdzZPb0SKIirCueh5Mz2LHnJKdScygpU6Op1qFytCM0yJvJ4/rSu3ugpeyCt9ew/8hZZkwexMGj6Zy/UERURBfG3dmTtz/dSHGpmv69gnn+sbHY2NS9JHLyylj5214OJ2dQWl6FvZ0NHYK8mTS2D/17Bd+S56a+2oJSyj5ehWbrfgzZBUjslCgC22I/oi+u8x9o9BhDVj5ln/yCZvtBDLnFyJwdsOkRivNDE7AfNaBB+dwpL1Mdd4h2p36hencSZZ/+ij4tC4mDHcr+XfH+4TWQywDIGTcX7d5ky7GKEL8rzjGoXLaZwmc+wuP9ORgrqqj4biOGglJsQvxweXIqjtNHWpVP9x4LOr3lsXZvstUQG0WndvjvXdrk564xJq2Oso9Xof5tB/rMfKRKG2z7dsZ17gyUA8Ksytbml3C+8z3Y39kft9ceovjVJWgPnkQilWJ/Z3883nsKqbNjg2vUHDpF6cer0CYex1hRhbytBw7jI3B9cSZSlcMNxS8IgiAIQstqscQgLy+PHTt2sHPnTkpLS5HL5cyYMcOyf8Vff3H/77/jZmfHxE6dcFUqOZafz4f79rHt7Fn2PfywpfJ+b7duvLZjB+tPn2ZGt25W19l85gzlNTU81revJSkA+HT/frakpTGkXTuGt2+PjUzGkdxcXt+1i23p6eyePRuppO4IjV7P+tOneSA8nC8PHuSeNWtwtrXl4V69WHbsGLPXrye6QwcU0ls7DaOkrIpXFq2mRmcAIK+gnLc/20jH4Lb4tnW1lFv5216ST2ZZHVtWoeFgUjoHk9J586XJDOgdYrX/l/WJGAxGALbEJbNrXwqaah0AOz4KqykAACAASURBVPacoktHXyaO7g3AydRsXv7vr5b9AJVqLYeTMzicnMED99zBjMmDWv4JuAJTdQ3ZY57BcC4H+9EDcZg4BGNFFbqT5yh9f0WjiUHN4RRyp7yMsVyNXVQfHCcNxVRdQ/XuJIpe/oKARhKDSyp/2kLJf3/Atl8XHMYOQp+Vj2bLPkyGWiQXEwPXufdSO2sMAAVzPmzSfZR/uZbawjIcp0QhsVGgXreLgsffxVhVjeqhCZZynp8/D0Yjpho9hU9/iCLUH9e591r2N1YJvy5GI3nTF1AdfxSbLu1x+dckaovLUa/dQc7OI3iveAP7O/s3OMyQW0TOuLko+3bGadoINDsOo14Th6lGh9ePC63Kqldvp+Cxd5G6OuEQPRipiyO64+mUf7GW6p1H8P3zUyQOyhu7D0EQBEEQWswNJQY6nY7ExETi4uI4efIkAKGhoUyePJnBgwfj4GBuEcyqqODhDRvo7eND7KxZONXrBfjswAHmbNnCZ/v3My8iAqhLDFYdP94gMVh1/LilTH2vREbyw8SJKOXWt/TCtm28v3cvG1NTuatjR8t2E/Dr1Kn4q1Tkq9X8cuIE306YwMROnfCwt2debCwnCwvp4eV1I0/RdcvNL2NgnxCGR3RlXcxhjqdcwGSCbbuO88D0OyzlbG0UjI7qzuC+oQT6t0Emk3L0r/N8uGQLtbVGflm/v0Fi4O7qxJsvTWbhe7+Rm1+GjULOh6/P4N3Fm0g/X0DKmVwYDQaDkbc+2YimWoeNjZx/3jeUziE+FJZU8v3P8WRmF/PDL7sZ2CeEoHaebN26lZSUlGveW3BwMNHR0ZbHiiAfvJb/G5tQc6+SffQg5EE+2HRs1+DY6t1JGM7loHpwPB7vz7HaZ8jIbXgxvYH8B/+DsVyN94rXsR9jncRUbz901VjLFq/FZ8P7KCN6WLbp/jqLRFH3+rIb1tvyc+Fzn1z1fJawMnLxT/gGRccAAFzmTCNrwEMU//sbHKcOt7SiO06JAsyTjwuf/hBZG1ccp41o0jWaQr12B9XxR1EO7IbP+vcsvSBO940hZ8wzFD3/KQFHl4PMOjHW/XUWjw+eRjV7nCW+zN6zqNq0F2O52pKwGC4UUDjnA2zDQ/H5/V0kTvaWc5R/vY7ieYsp/2YdLs9Mtzq/69wZOM0cY3ns9e0rSF2cWuy+BUEQBEG4smYlBunp6cTFxZGQkIBGo8HDw4O7776byMhIfHx8GpT/9sgRtAYDzw4YQI3BQI3BYNk3sVMnnomJISYtzZIYBLu60s/Xl61nz1Kq1eKqNLcqVun1/JGaSjdPT7p5elpdo/5jjV6PWqfDaDLR39cXgP0XLlglBjKJBD+VCjCvOgQQ5Gpukfe/uD23svKWJwZKpYL5cyagVCpwc3XguYUrzbEUlFmVe/2Fu1EoZJbHRqOJ4Xd0YX3MYVLT8zidlovJBPU6SegQ7E37gDZ0DvUhN7+M9u3aEBzoSZcOPqSfL6CkTA3AwaR08gvLAbhnQn9LL0JH2uJgZ8uLb64CzL0MQe08SUlJISEh4Zr3ptVqrRIDqbMjDtGDLY8VQb4ognwbP9hQC2Bpra9PHti2wTbNtgMYsvKxHzOoQVIAYDe8z1VjdbpvtFVSAGDT7caHT9mPGmBJCgBk3u44Th5Gxfd/oIk9iOPdQ2/4Gk1RtWE3AC5P32NJCgCU/buiHNwD7Z5j1BxOaTB3Qublhur+sZbHEkc77Ib1Qf1rLPq0C9j2Ng+/q/wpBlONHufHJmPS6TEVl1uOcRg7iOKXv0ATe7BBYmDbtzO29R43NtxLEARBEISb47oTg7y8PObNmwdAREQEUVFRdO3aFUn9Guhl9mdnA/CPtWuvWCZXrbZ6fG+3bhzIzua3U6d4qGdPANanpKDR6xv0FgCUabW8sWsXv544QXZlZYP9FTU1Vo9t5XLLUKRLvQx2F4cyXXpcXS+BuVX82rqhVJrj8HCraymt0ljHfy6rkLV/HOR4ygWKSioxGk1W+/WGWjTVNTjY11WzFBcrgJfmEdhcbP1WXPxfd3H40um0uhb45Wv2sHzNnkZjvZBTAsCcOXOYM2dOo2VainJgN6TuzpR/sx5DThF2Q3th27Mjtt1DGrRqA2iPnAbAbkjPZl3PYczAG4r3SmzDGiYXNl2DANCnZNyUazZGd/q8OZ7uIQ322XYPRrvnGLrT5xskBopgP7hseJ3Mw5xYG9XVlm3aw6cAKPjnW1eMoTa/uHnBC4IgCIJwU1x3YqBUKvHw8KCoqIjjx4/j6uqKk5MT7do1HP5xSZlWC8DKyZNpY2/faBl7hfVSj9PDwpj755+sOn7ckhisOn4cCfCPyxIDg9HI8GXLOJKby10dO/JGx454OToik0g4WVjI3K1bMRiNVsfUT2MuzT2QXPa49rJjbgXbepN/r5RsJZ/M4qX/rLLMF7iSa+2/XG2tubxao21SeW29ybE3m9TVCd8/P6H0neVoth2g6g9zD4XUxQnX52fg/Phkq/LGiioA5F5uzbqe3P/m9BRJXRsOi5G5mnuo6lesbzZjlflaMjdVw3jcG1b0L5E62jU82aXXqakuOTWWm59/z69fRubh0mgMEjvbRrcLgiAIgtA6rjsxcHFx4fPPPyc5OZm4uDi2bNnCxo0bCQgIYMiQIURERODq6mp9zMWhQO2cnRlUb5Wiq/FycCCqfXvizp2joKoKG5mMP8+eZXBAAO0uDv25JCYtjSO5uczq0YMfJ0602lep0/G/Zs0fByyV/j7h7XnkvmG09XRBqVTwrxe/52xGwQ2d375ehe2RmcMYOqhzo+Uu9TjExMQ0eY7B+PHjmx2XIsgXzyXzwGRCn3aBqi37KPvoZ4oXfIVN50CrMf+Xxuob8prXKl1/LkFLMpY27M2qLa0wX9OhkUr3TSJ1sKMWqC2pQObtbh3PxWE/jSYBTT2/s/n5l/t7oezftdnnEQRBEATh1mlW7UcqlRIeHk54eDiVlZXEx8cTFxfH8uXLWbFiBWFhYQwZMoSBAwcil8vp6+NDTFoam8+caXJiAObhRNvS01l98iRKuRxdbW2DycgAGWXm8feRjfRa7MnMbM4tXpHq4rKqGv2tay2/XEFRheXnKeP60T6gDWAebpSdW3rD5w9tX9dannImh6nj+zUoU1JWheHiuP/U1FT27t17zfPqdLobSgwsJBIUof64hPoj9/Gg4JFFVO9JtkoMlL3M80mq45NwfnTSjV+zhdT8dbbBNt3JcwDY1Jt7YHFpmFRtbYvGYdOxHfq0C9Qkp2F/WWJQk3zWUqa5lD07Ur39EJptB0RiIAiCIAh/EzfcLOrk5ER0dDTR0dGkpaWxfft29uzZQ3JyMv7+/gQGBvJQr168u2cPn+zfz9SuXRtM6N11/jy62lpGBgVZbb+7c2ce27SJVcePo5TLUUilTO3asJIR7GYeLrIrI8My7Ajgr4IClhw+fKO3aCXU3VyJ2puVdY2SN4+nh8rSK7A78TTdu/ij0ej47LutaGtuPGHp3ysYd1dHikvVxCee5s0P1xE5oBPOKntKytQcSc5g174UXn/hbtzdHG/JHAP96UwkDkrkftaTzvXp5vkrlw+JsR/ZD7mfJ5ote9Fs2dtwVaL4o9hFNm/+wY3QbE1EfzrTMgHZkJWPek0cEjtb7Ec2TMAkdrZIHO3Qn80GvQFaqCfDYcIdVG3aQ9nHq7CL7IlEaV4pTJtwDO2eY8j9PC0TiZvDaeYYSj/9lfIlv+E4MRKby+ZWaPckY9LprZI5QRAEQRBaV4uOlwgJCSEkJIT777+fxMREHB3NSxe2c3bmmwkTeHD9evp98w13dexIqLs7pdXV7MzI4FRRER+NGtUgMVDZ2hIdGspvp04hlUgYExqKu13D4Q3D27enu5cXy5OTya+qoq+PDzmVlaw6fpwRQUH8kZraYvfor1IxsVMn1qWkMHbFCvr6+iIBpnTpQthlKyXdLJPG9CHxcBomE2yKTWJL3DGMRhNSqQRHB1vUVTXXPslV2NjImf/0BBa8vYZqrY74xNPEJ55uoeibpzr+CEXzvkA5qDs2HQOQujihO5GOZut+88o+04ZbH6CQ47X0FXKnzSdvxkLshvfBtlsIphod1XuSMVZUEXBkWbPj0SWnUXO8rvXfZKjFWFFF5co/LduUfTqj6GDdCyAP8CZ71BzzcqRGI1Wb9mCsqMJ90eNX/G4Ch1EDUK/dQe60+diP6IfEzhaZqwqHSUOaHb/j5GFUrviT6vijXBj2GPZDe1NbVIZ6YwLIpOYlYRuZ1N1Ucn8vPD95loIn3+fC8CdxGDsIRZAvxnI11QnH0Kdm4v7fx0RiIAiCIAi3kZsykFqpVDJ06FCrbTO7d6ezhwfv7d3L7vPnWZeSgpudHaHu7iwaPrzRngCAGd27s/bUKWpNpkZXIwKwkcnYOnMmL8fGsvXsWeLPnyfUzY2PR4+mu5dXiyYGAEsnTMBOLmfTmTNsSUsDoJOHxy1LDHp2a8cH/76X5Wv2cDajAG2NntD2XsycGsHy1QmcOJ19w9fo3sWfr99/kNUbD3A4+RwFRRVIJRJcXRzw93Gnf69gOoY0XCb0ZrGL7IXq4bvQ7vsL9dodmHR65L5tcP7XJFyemtboBFfbfl3wi//q4jcfH6I6PgmZsyM23YJxmzfrhuJRb9hN2YcrrbbVFpRS+OT7lsce7zzRIDFweXwytSUVVPy4idrCMmxC/HBb+DBO94664rU83n0KiY0CTewBquOTwGRC0andDSUGSKV4//ym5ZuPy7/biNTOFruIHrg+3/Cbj5vD8Z6RKDq0o+yzX9Hu+4uqTXuQuTqhCPbD6bWHcLwr8oavIQiCIAhCy5GYTCbTtYsJgnAjKpdtpvCZj/B4fw6qB1tgnoUgCIIgCEILa/5YAUEQBEEQBEEQ/meIxEAQBEEQBEEQBJEYCIIgCIIgCIIg5hgIwt+aLjmNopc+b3J5Rag/bT6dexMjEgRBEATh70okBoIgCIIgCIIgiKFEgiAIgiAIgiCIxEAQBEEQBEEQBERiIAiCIAiCIAgCIjEQBEEQBEEQBAGRGAiCIAiCIAiCgEgMBEEQBEEQBEFAJAaCIAiCIAiCICASA0EQBEEQBEEQAHlrB3A7eGr+MlLScgFYs3QOziq7Vo5IEIT/T8RnkCAIgnA7ED0GgvA/4IsftjNy2juMnPYOR5IzWjscQRBuM+q1O0h3G0n5Z6tbOxShCcq//I10t5FW/7SJx1s7rOuS1W825/zGt3YY//MMmXmku40k//7XW+R8osfgb+jjr/9kU2wSAH3Dg3hr/lTLvnUxh1n8XSwAK798nDbuTq0So9BQTl4ZK3/fy9G/zlNcqsbJQYlnGxW9ugUSFdGF9gFtWjvEVvX4vB84k54P/L1bzWc8/iUFRRVIpRL+XPVia4dzU5V/tprihV/js+F9lBE9yJu+AE3sQYKK/mxQtuiFz6j4dsNVzxd4Zg1Sd+ebFa5F/kP/oer3XQD4J36LokOAZZ/+bDZZfR8AwH7MILxXmP/YVny3kaLnP0X10AQ83nvqpsRlLKuk9KOf0WzZhz4zH6nSBrmfJ8rBPXCaGoVtn8435bp/d8WvfEn5l7/hveo/2N/Zv7XDaRF2Q3vR5uNnAVD/vpPqXUdbOSLh76jmaCrZw5/A9cWZuM6bVfeZvfkjlAPCGj1GJAbA4w+MQK3RAuBgb9vK0VyfQ8fSyS+swKuNqrVDEa7ibEYBzy1cgaZaZ9lWVqGhrEJD6tk8/jqVxcdv3teKEQqt6e/8GXS9bPt1QRHk2+g+ia3NrQ1GIadydRxurzxg2aRevR0UctAbbmkotfklZI96GkNmHopgXxwn3IHEVoEuNZOKpesxllbgKRKDBozF5VT8uBmbsOD/maQAwKZzIDadAwHQncoQiYFwy4jEAOjcwae1Q2g2kwm2bD/GA9PvaO1QhKv4+qcdlqSgd/dAIgd0QiKVcC6zkN2Jp1s5OqG1/Z0/g66X6t5ROM0a29phAGA/vC/qtZclBmvisB/eF03MvlsaS8nbP2LIzMPl6Xtwe+0hkEgs+2pziqg5lnpL4/m7KPvyN0waLa5z723tUAThf8JtlxgYjSaeee0nTqXmADB7eiT33j0QgN82HeLLH7cDEBzoyWdvzUIhl1mOjUs4ycatR7mQW0JVVQ0qJzt827rSu3t7yzkuqT8cp76WGMKgrqph0uyPAeja0ZfZ0yNZsjyOjMwi3N0cmT09kqiILg2OSz6Zxap1iZw6k01NjQFPDxUR/Tvwj0kDr9qKGLMjmVnTIpBKJVcsk3mhmJidyRz96zxFJZVUVFZjp7QhwNedkUPCGDeyp+Xv0IK317D/yFlmTB7EwaPpnL9QRFREF8bd2ZO3P91Icama/r2Cef6xsdjY1L2EcvLKWPnbXg4nZ1BaXoW9nQ0dgryZNLYP/XsFN4jpVGoOv2xI5Ex6PiVlahzsbWnjriKskx+zpkbg5KgEQKczEH3fBwAEtfNk3lPj+Py7baSk5eJob8uIyDAeuOcOFIq618L13G99+YUV/LI+kYNJ6RSXmGPy83Fj+B1dGT2sO3J53bScKk0NqzccID4xhbyCcmRyKQG+7oy4oysTRvVCJqsre+n17OJsz1vzp1n9rv41K4rkk1mN/t6uJ55L9IZaPv9uG3EJJ9Hra+nToz3PPjoalZP167qp8aeezeOJl3/E00NF9Ihwft2wH2eVHS88Hs2ufSnExCXj7urIEw+OoG94kOX8m2OPsf/oWc5lFlJaXoXBUIubiyM9ugRw790D8fNxa/Sem8pkgi1xx9i8/Rjns4owmUy08/NgdFR3okeEN/p+0Gr1rN18kPh9p8nOLUEmk+Lt6cLgvqFMGNULF2f7ZsX/+ge/k7DfuuJmNJoYOe0dy+OeYe1497XplsfN+Qxq6mdEcz+Dbhfq33ZS8PB/cZk7w6rSfknZRz9T8uZ3tPl0Lk73jQbM42wrlm2heudh9OfzMFZUIfN0xX5Yb1xfuA+5v1eD8zhOiaLg4f9Sc/AUtn07U3M4BX16Nq7zH7jliYF2TzIALk/fw+UfTjIfD+x9PBo9zlSlpfyrtajX70afno1ELkMR4ofTPSNQPTDO3PtxmaqNCZS+/xP61EykripUs8bi+tLMBtcFc6JU8e0Gak6kg96AItgP1f1jUT18l6W87q+zXBjyL1QPjqfm6Gl0pzJwiB6M68v3U/DIInSnz2M/tDeeS+YhsTd/rps0Wip+2IRm2350Z7KoLSxD6mSPsk9nXJ6ZfsVhDvUZK6qoWLoeRag/DuMjGi1Tc+gUpR+vQpt4HGNFFfK2HjiMj8D1xZlIVQ6Wcln9H8SQlU9g6hokjtbvP1ONnvMdpyJVORBw7CfLfavX7qBq0x5qjp6mNr8EFHJsOgeimjkWpxmjrM6RETgR254dkLqp0Gzei03XILy+mU/JWz9QtXkvilB/vL5dgCK48d60m0X311lKP1iB9nAKtQWlyFydsOkUiNN9o3GcEtXoMdr9Jyj/Yg3a/SeoLa1E7uWGMqIHLk9MwaZrUIPyxrJKil9dQtWWfZiqqrHt1QmP957Cpkv7BmVrswsp/XAlmm0HMOQVI3V2xC4yHLeXH0AR4mcplzdjIdW7juD6/AxKP/oZmbMjbT6dS01yGmUfrkTq7Ij7W4/hED3YckxzPiOaqja/hAuRj4Jchv/ur5G61Y3iMJZUkBXxCKbqGvx2L0Hu51l3XEEpZR+vQrN1P4bsAiR2ShSBbbEf0RfX+Q80uE5NUiolry9Fe/AUErkM+1EDcP7X3c2OuzG3XWIglUp4+anxPPrC91RrdfyyPpGxI3ogl8n4ae0eABQKGfOeGm+VFHy7cher1iVanau4VE1xqZpzmYUNEoPmio0/wTuf/wGAu5sjq7564qrlS8qqeGXRamp05m7pvIJy3v5sIx2D2+Lb1tVSbvP2Y3z8dQwmU92x2Xml/LJ+P3sPnuHjN+9rULFT2ipoH9CGU2dySDycxqC+oVeMY+feU6zecMBqW5WmhlNncjh1Jofc/DIemTnMav8v6xMxGIwAbIlLZte+FEur9449p+jS0ZeJo3sDcDI1m5f/+6vVUJlKtZbDyRkcTs7ggXvuYMbkQZZ9B46m8+o7azAa6264vKKa8opq0s7lM3Z4D0ticHnML765irJyjfn51Rn4dcN+SsurePGJ6Bu631Nncpj/1q+oq2os2y4N9zmecoH+vYItczYqKqt59rUVZGYXW8rqDbWkns0j9WweB46m8595UyyVa3s7G6q1OjTVOnLzy6x+91KphPCwujHOzYmnvh9+2U3auXzL44QDqSiVCl56cpxl2/XGD+b30/er4i3P5SuLVlt+39l5pbzz+R+s/maOpW7x0dcxDWIrKKpgW/xx9h0+w9fvP3RDc2DeXfwHsfEnrLalpueRmp7HsROZvPLMXVb1nEq1lucWriAjq8jqmPTzBaSfL8DH25URkV0t2292/NerOZ8R0PTPoNuJw5iBSByUVP2+s9HEQL12B9gocJhQ11OqiT1I2SerUA7ohkP0YGSuTugzcqn8JRZNTCK+cYut/iAD2IYFoejUjso1cdj27Yx69XYUwb7Yhl/5s/RmkTiYf3eG3GJsXJr2ujKWVpIz7jl0pzKwCQtG9UA0EoWcmmNnKHppMQ5jByPztZ67VLVtPzVJqTiMHohtj1CqNuym9N3lyNxVqP450aps0dxPqPj+DxSd2uE0/U4kMinVu5MoemkxNclptPnseavylStiUM02TzZVr92BJu4Q9sP7IvN2p2rTHsqXbsBlzjTzfV4ooHjBV9iEBWMXEY7cx4PaojKqNu8lZ9xcvFe+cc2hQRVL12OsqMJ90eMgbdhIol69nYLH3kXq6oRD9GCkLo7ojqdT/sVaqncewffPT5E4mP/OOE6JonTRj1Rt2Yvj1OFW59Fs24+xogrVg+Otkqfi+V8gsbXBtncn5AFemKp1VMcfpfCp99GfvWDu+amnetdRHO8eiv2oAVRt2M2FEU9i0yEApxmjqfhuI8Xzv8D7l/9e9Z5bku7kObLvfArkMhwnRCLzaUNtQQk1h05R8cOmRhODiu82UvTCZ0iUNjhED0bu70VtcTmarfuRyGW0+XSu9QFGI7nTXsGkN+A4aSi6E+lo9/1F7rT5BBz6EYmybvig7uQ5cu56AWNFFQ7Rg3EM8MKQXYh6YwKa2IP4xnxiGV4F5uSyavNeVP+4k/LvNpL/4H+QqhxwmjUW9aptFD7xHg539rckx835jGgqmZcbnkteJnfyPAqeeA/vn9+07Ct46gNq84rxXvG61flN1TVkj3kGw7kc7EcPxGHiEIwVVehOnqP0/RUNEgNdcho50c9hMtTiOHkYsjYuaLbsI//hln3N3HaJAUBbLxeeeHAE73+xGU21jmW/JmBjI6dSbR6D+/CMoQT617WeGI0m1m05DIBXG2demzsR7zbOFBZXcupMDjv2nGxwjfunRXB3dB8A/vvxBtLPF9yUe8nNL2NgnxCGR3RlXcxhjqdcwGSCbbuOW4b/5BWU89m3WzGZzJXEGXcPws/HjQ1/HuHE6Wyyckr48sftVhW7S6JHhHPqTA5/bEu6amIgkUro1zOIoYM70zGoLQ4OtmRll/Du4j8oLK5kXcxhZk4djF29N6m7qxNvvjSZhe/9Rm5+GTYKOR++PoN3F28i/XwBKWdyYTQYDEbe+mQjmmodNjZy/nnfUDqH+FBYUsn3P8eTmV3MD7/sZmCfEILamd8Uv285hNFoQiqVsHDuJMI6+VFRWc25zEI2xSYhaaw5H8gvLMfb05m5/xpDTn4Zq9btszyf0+8aQICfe7PuV2+o5T8frbdUwkPaezF6WHfcXBw4m1HAhq1HrOJY/H2spVI9cUxvhg3ujE5Xy5o/DrD/yFkOHTvHxq1HmTjGnDgN6hvKxq1H0ekMPPLCdwwd1JkRkV3p0SWg0Zbt642nvgu5JTwxewQ1OgPf/bwLo9FEXMJJnn1ktKWH53rjB6itNfLwjKHIZFKWLItDU63jH5MG4u3pzEdLYiivqCY3vwwfbxcAXF0cGD2sO316tMfb05naWiPrYg7z26ZDqKtq2LQtqdlD4LbvPmFJClxdHJg1NQKpRMKy1QkUl6rZtS+FPj3aMzqqu+WYT5dutSQFLip7Jo/ri4+3K0XFlY223F9P/E/OHsns6ZEAvPjGKopL1UilEr75oK5ioLRVWJ3/ej6DbuQzoimfQd999x1qtfqaz3tkZCTh4eGWx/bRg5AH+Vj+WLvOnYHq/qsPE6r4KYbqhGMNtiuCfHGdNwsAiZ0tDmMHo169nZqkVGzDO1jK6U9nojt5DodxEVYtvvbD+9Lu1C/IPFyszqvZup+86Qso/2It7m891uC6TlOiKF/yO+5vPIL6952oHpxwzefhZnAcH0HJsTPk3fsqrnNnYH9nf2SeV0/cil76HN2pDJyfmIL7m49a7as5dKpByzeANvE4fju/tLTWqh4YR/aIJ6lY8adVYlC1bhcV3/9hnmz97pN1FWKjkfwH/0Plij9RzYrGtm/dvAfHKVG4v/UY+tRMsgY8hNynDZ5fvwy1Rs61uwvtgbpEXubtjv/+71CE+lvF5zb/ATL7P0jJf76/amJg0mgp+/I35H6eOF1WkQdz4lE45wNsw0Px+f1dJE51vYHlX6+jeN5iyr9Zh8sz5l48p4uJgXrtjgaJgfq3nZb7q8/75/9g27ODdU9LrZHs0U9TtngNzo9NRtam7vUob+eN59JXADjfaRq1BaV4//wmUhcn9Oey0e63bui42SpXbcNUo8fri5dwmDTEap8hI7dBef3pTIpe+hypmwq/bZ8hD2xr2Weq0VNzsGFdy6TVoQhsi+dXL1mSt7zpC9Bs3U/1zsPYj77YaGsyUfDPt6DWiH/8EhQd6xrLnJNSyb5zDsWvLqHtmkVW5/f6bgFyP08Mk99V7wAAIABJREFUhaVU/b6LNp/NNVf63VSUvPEtutPnsQkzj1ho7mdEU9kN7YXLc/dS9sEKypf8jvOjk6j4dgOaLXtxfuxu7McMsipfvTsJw7kcVA+Ox+P9OVb7Gnv+ixZ8ham6Bq9lC3EYZ+4hc5t3PxeGXjlmRZAPXsv/jc3F95nlM7tjuysec1smBgCjhnZj/5Gz7E48zabYJEvlqVf3QCaN6WNV1mg0obs4UcxGIcPV2QGVkx0qJzuCAz0ZNzK8wfldXRxwdXGwHHOzKJUK5s+ZgFKpwM3VgecWrgQgt6DMUiYmLtnSMj9zymD+j73zjovqzBr/dwoMvQtSpAoIoij23jUaTdmoyaaYaLLZjcmaLe/27O679d2S3WzJJhtjNsWYmJi4amJXBAuiIE0EBCnSi3QGZoCZ+f0xzoVhhk6i+9vn+/n4kZn73Dvn3vvc555znnPO8/hG49TX/JnhPLr9NVrbNMSfz+GFbassQoqWzJ/E6++eJjWziNpbLf3K8cj9c81CbfR6A24uDiyZN4lPPk+hq0tHcWkd0RE905gRYeMJCRxHVLgfVTVNhASNIyzYm+gIP4pu1tLQZFQkUjKKqKlrBuDh++ZIswiR+OJor+L7v9oLGGcZTIaBVmu8X3K5DFcXB+l+Bfh5sGhu5IDX9KVv3U/kROOA1NzazpFTRiXjUnqhZBgM93wvXSmUrl9QgBd//80WKUxn0dxIHlo/C9Vtpbq1TUNCUi4AU6Mn8PzWldLvREX4cf+Tr6DT6Yk/nyMp1k8/uoS6+laSr9ygs7ObEwlXOZFwlfHermzaMJsNq+PM3i3DkacvmzfMkX43NbOIjOxS9HoDdQ2t+I93H5H8JubEhWFjo+CN9+IBmD09FP/x7rxye3tDU5tkGOz5x3Nm90Cn07Nl00L2H04FIO9GpVX5h8LnJ3sU+Z9++36mRBkHveBAL1586X0APjuZLhkGzS0dJF40nrONUsHffvMEvj49L4f774mTHA8mhiO/p4cTnjgBmM2yBPp79nsOwxmDRjNGDGUMunz5Mg0NDQPKABAWFmZmGNiE+pslEvdWEvtDm5qLNjXX4nvVjEmSYQBGJaxt32na9ieYGQZtnxr7Xl/lTRk0vudDZxe6FjXo9Kgmh4JMhuaK5W+afqfh12/T8Mtd6Oqa+g2f+KJx2/Ew3RV1tLx7hLodxtBJZbAvDstm4LJ1vaTcmNA3ttK2PwGFjwceVkIO+qtg5Lh+oVkIhyouEoX/OLryS83aNe86BAo5bs9vRN9g/m5xemAJ6kPnaD+dYnbPlYHGe2DyitqYFEeFHOV4T2O4zW3kLo49hp1Oj75FjaGzC2QybCMC0V7Jw6DpNPMo96bl3SPo65vxeHkHKC2fn9b3j2HQduH63EMYOrsw1Df3XIN186n/0Wu0n0qRDANliB+quEjaz1xB39SK/PasjUGtof14MrbRIRahL6q4nneVvkWNQdMJBgN2s6PRXsmj8+oN7Jf36Cs2gT19VOk/DoO2S/odpb83HadTBzznMadbd1swy+vXW+k30fLuYdDpcf/OoxbbZSob7BbGWv0Z9+8+Zjaj47h+Ie0nLtF5vVQyDDQXsujMLcHlmftReLmi73W/bCb4oIoJo+NsOnR2ge1tJ4tcjvL2jFjfPmf6rKtugNvPzkjHiOHg8cMtaJKyqP/5myg8XKj/6Ruopkfg+b9fs2x8+/rLrPTfvtdX39CC5nwmyqDxZuFRMnsVrs8+wK3v/d2qPHJXJ7P2fcdsa9y1hgHAt5+9h5z8Cuob2tDrDTg72fG97esswiCVSjmx0YGkZ9+krLKBx59/negIf2KjA1kwO4Lw0JHHjfUlNGgcT9x+KTsMoXpIgK8HdnbGTuzl0TM9rG7vCQ+5XtRjGS6Y3fMCtLOzYda0UOLP56DXGygsqWVqtLl3xU5lw8rFkzl4LI0jpzPNYqR709LWwceHLpGaWUxVTRNdXTqLNk0t7WafTaFaJi+z7e3pOJvb/3feDk24fqNH/t2fXGD3JxesylBe2fNSmDE1mKu5ZXR36/nWT98nMMCT6TFBzIkLI25KsJly1Rs3FwfJKACjomoyDMqreo4/3PO9XthzDutWxFrE7vcOa7pRXCOFQGXllJnFkZudby95HB1U/OoHD5GdV85nJ9JJSilAo+267Qk+ydXccn7yrR5P5XDk6cvEkJ7+bq3PjUR+EzY2CqkfgLFP2PT6bOoTABev3ODo6UwKiqtpae0wC4EBy/42HEzXx8XZXjIKAKIj/PF0d6K+sU06T7lcRkFRtfT7s6aFmhkFYFTm+z47X6T8w2U0Y8RQxqB//vOfX5ToFoz7y7eHlHzssGwGck9X1AcS8fzF13riuv+dgNzF0dKbrNfTvPMArbuP0pl3k743TN9q/X4pA8ejmh1N8+v7sY0NxybMn66iipGdXF/0em794B8WX3v+8llk9n3eH0oFXn96EffvPob6xCU0ydlokrJoeftzWt45jOdvvmEWS6zNLAC9HrtZ0ZbHGgDbCMuwRYWnK7qKOtDp4fbYq72SCzo9pXFbLNqb6K6pN/tsqiplUmx7yyWzs8XQoTVr337yMk1/2YvmSp5R4euDQd1hXUnu7KLp1Y9ReLvj/Ogay+0gKXm1X/ttv/Lr+sjvtHE52rTrqD87j/MTawFQH03C0KG1ajB25ZfS8H/v0nHmCvoWtcX2vn2u97nIVLbm1+f2tTNotF+aYeC4fgHN/9xP7fN/xDk+Fbt5U1BNjzSL5e+NNt1YKMN+yfSh/4hcbpE3ofAyliTWt3VI32luOwtadh2kZdfBfg+na2hBMf52ZIDKRhoX5FLfU93eZvys1/TqcyMcI4aFQo7Pmz+mbPHXqf3675C7OOLzr59azfWxmzcFuacrzW8epLvyFvZL41BNj0Q1daL0HJrovG2420aHWuQCqaZMHL3cvbirDQNnJzumTQ7i9Dnj9NqkiX5mL7befO/5e/nT60e4klWCXm8gO6+c7Lxy9uxPYsm8Sfxox4Z+lc3hEBrkLXm9h0Jvr25/4THqXjHk7q6OZtvcXHqUlTa1uUfTxL0rp3HwWBrHzmSx+T7LqdeW1g6e/9G71DcMHCpg8kgOFZ3O2N5UZnEwNL0G/s33z6GxWc3nJzPQ6fSUltdTWl7PwWNphAZ58+sfbrQav903htq11/SwRmM8/kjOt/e19Rokbry/+9AXjdbyRRczKYCYSQFotF3En8vhn+/F06HpJCEpl9VLY6Tk3eHI05d++5xh9PIPhk5vvKZ7DyTz1geJA7Ydbn8z0dWlkwy93s+HCTdXB+objc6EDk0njg4qsz46lOv5Rco/EkYzRgxlDLorUSpwemAJLW8dQnPpGnZzY+jMLKCrsALnx9YYlYJe3PrR67S8eQDbKWF4/vY5bCb4ILvtWaz66ks93lErOG9cjvZyDs5jPVugN1hdu8Hjpa39KvMKPy9cnroXl6eMOVMd5zKo2fIL6n+2E8c1c1GGGCtYmRRRhc/wkvjljlYS20394raiZNB2YdB2GeOmX/9Bv8dS+ponREv9y0q8PzIZBl3PPVAfOkfNU79E4eOB+3e+im1EIHInY1+u/9VbdF4txNDPPWv54AS6qno8f/Fsv0q0vtl4fbx3/sgidEQSqc89cPrKMupfeoO2/Wckw6Dt0zPGbQ+Z56R1l1RRsXoHBm0nzo+vxW5WFAoPo8Lbuv8MbXtPWsrf+/mTy6HXR5kppFT35Y0rdvOn4rv/9zT9/WNaPjhByzuHAePsybg/f8vCADD1OeUw+pzMztZyRqdPf+t9bLcXH8Z+SVy/x5O79yrN3vd6Qs81tXI9RzNGDAeFnxf286agPnzBmH/Se6bC7Fyc8T/+Vxp/v5v2k5dRf37e+L2bM+7/8xiu2x+S2hpuG1EKd8v3V+9E57HgrjYMLqUVSkYBGENWTp29ZpYgaGKcpzO/e+lham+1cCWrhKycUi6m3kDdriXxYh7TpwRx70rLkKK7AUfHnsGpqaXdzHPZ2yvp5GjdSxwSOI6oCD9y841JyH05mZgtKck+41z5/vP3EhbsjYO9in++e5r9R1JHJb9Dr8H12SeWsXS+9Sns3p5mG6WCF7YZ47KvZJVwNbeMi6k3qKlrpuhmLW++f4Yfv2gZ69vXS9vc67PJKzqS8+0dfnGroXXg8+3VduGcCLY/tdJqu4F0MDuVDetWxqLu0LJzt/HFk51XLhkGw5FnuIyF/ANhMGBWCGDTfbN54J4ZuLs50tnZzQNP/WVkB76NjY0CGxsFXV06q157U2K6XC6TckiGcz2/aPlHwmjHiMHYtWvXkHIMlixZwvTpw/AWjhKnjctpeesQbfsTsJsbQ6tJSdtoHkakb26j5V+HsAnzNyaU9lIWdbeaBlW2XJ6531jBZwycR2YoFYQ2nBzVIewXTcPlmftp+tMeOpKzcb5tGJjCcHTV9QPtPiJkKhtkKht0ja1G5fALMCgbX/kQZDL8j7wiGTsmDD8dYAZLp6fpr3uRuznjstUyp8aE/LYBrZzgg90cS53BGgpvd+wXT6PjbAa6uiZktkra41OxmxtjUbGm+a1D6FvUjPv7/1hUIFJ/yRWtRoP90jjsl8ZBVzfajALaPo2n+c2DVG/5X4LSd5spnaY+111dj+0YL0RoOrbc2cEozxgz2jFiOLTuOY768AWUAd50nLlCy5sHLBL7TdiE+uP9xg/BYKDrRjnqoxdpeuVDY2J+VDD2y4zhvKZ8IV2j5ftL1yvsaiwY41Fw7Ghqbufl144AMN7bVSoN+Oq/TlqNpTeFRnh7ubB2+VR+8MJ6/vabJ6TtOfkjj2fuTWFJLW/vPcvbe8/y8aFLY3LMyNCe0JgLl3tKHmq0XaRkFAFGJScsuP+ZivUrjS/r9Ks3LbbV1vdcr+ULo5kaPQFHBxUymbGKy2gJ7xW6kldQyThPZ4t/CoWc7l7WuOl+OTqoWDw3kue3ruTtv34Nby/jINTf/Wpp7eDa9Z5p/gspBdLfAeM9Rny+kWE99+BYfJY0G2JC3a6VwmR634f8wmqcnewsztfNxcGsmtDufRcsYtgBs9/pHYYzHHmGy0jkHw7tHVqzMJWtjyzG28sFG6WC/MLR9zfouT4trR1k55VL3+cWVFLfaFRwJ4b4SLlJ4aHjJd0mJaOI6lrzgVSvN0gK9mjlN81M6vUGs6pbo2EsxoiBSE1NJSkpadB/lZVjM44OFbs5k1FO8EF9MBG6dagPJKIY74n9IvNY5u7bYTCquEkWHuQhJ3QqFV+IAjwWmGKQe4c6qGLDjXHRKTkWITpjgWp6JHR2fWELa3WXVqPw9bQwCnS1jXQVWyZemmj7NJ7um9W4fuNBq8nVJuymG+P/209e7reNNZw2Lge9HvXBRNSHzkFXt9Uwou5S41hgP3+KxTbNZcsk3NEgvz0zbhji7PyIsFGimhWF5++ex/mJtRha29FmmTsaVbevacdZy2INo8WUrzHc+zVUxmSMGAKduSXc+v7fsY0KJuD8TmynTuTWT3eizRhkHRKZDJvwCbjt2CytrN5xu4QxgO0kY7JwZ06R5W9mF46Z/HAXzxi8/PoR6UX99S3LsbVR8pP/24e6XcsfXj3MH3/+VbMx/PkfvcvM2BAWzI7A19sNnV7PpbSei9W7Ioi6XSspDwCdveLPK6sbab49+Do6qPB0dzKTq7i0jg/2G70Bnh5OVkN3hsuaZVP46JCxNOjuTy6gNxjwH+/OZyfSJWVy2YLoAdcyWDJ/Eq+9c8pMoTHh7dlj8V/JKuahe2dhZ2fDoeNpZkrVSJkTFybFdZ9Nvs6v/nyAxXMn4eriQENTG2lZJSRezOMX3/sKnh7G6/mXncfo7tazfFE0IYHjsLVRkltQScvt6bK+FVx686tXDvDwfXOoqm3mRMJV6fvZcaEjPt+5Mybi5eHMrYZWikvr+OZP3mPt8ljcXBwoKq3j6OlM/v7bLZLSvGB2OBcuF1B7q4Xv/HwP96+Zgfc4F2NJ1PxKTp+7xpplU6RKNZ8eTmHvwWTmzZzI5Ah/nBztuFl+i3/frqYFENUr8Xs48gyXkcg/HOztbHF0UEl9MeFCLisXx1BacUtah2QwPjqUjJ2tZR+4Z/lUvL1cWL9qmnQvf/XnA2zZvBCZTMbufT35LetX9Xi23VwcWDgnknPJ1+nq0vHNn7zHxvWz8fNxo66+lROJV9m4fjYrF08etfzuro5U1RgTez86mMy8meHI5TLsVDaS4TvcMWgsxoiB+DJzDIaL00PLaPrLXhr//AHd5bW4PvcVi1AVmyCj4aRJzcWg7ZLCjPQtahp+/a8vXeaR0Pz3fahmRVnU7+8uq6Hl/aMA2PVKdpW7O+P04BLa9ifQ8Ju38fz1N8z268wsQBnsi9zV/B02VFyevg9Ncjb1L/0Tv8//JCXJGoXS0fZJPHbzp0gJx8PFJsQPbYYxNEyKQTcYqP/pG1bzDUzbG1/5EJmTPa7PWvfAmnB+Yi2Nf/uY5jf24/TAYovkbc2FLAydXZJH1oTj+oXc+u5fadufYOxHt0ParMkPRuXNuZdx0/rekTFX1EzXR3M5xyyZebRoL+dgGxVsVrEJg0GqiKPoE6LismUdzTsP0PjnD3BcO888QbarG82VvCGtP2EN+4Wx2EQEorl0jdbdR6VQLhPdxZV0XLzab07JYIx2jKjZ9ms6EtOwXxCLz3s/t9rG0K6hZtuvQK/He9dPjPkFb71E+dJvULPt1wQkvG5WSa3reikyRzuLEqmmHKfe11/u5oz9kul0JKaj/neiVEXK0KGleeeBYVyJwbkrDYPPTqRLSv20mEAW3k62mxMXxqW0QjJzSvnk88ts2jBb2qexWc3eA8kWaxmA0YO3ZmmPVX8x9Ya0FkFfdry0W/p71ZIYs9r4XxS+Pm58c9tqXtl5DJ1Oz3sfnzfbPsHPg+1PWZZj643KVsmqxTEcOHbFYtuKRZP58MBFmls6yC+sZuMzf0MmM4ZMuDjb09LaYeWIQ8fWVsmPX7yPl373CR2aTs4mX+fsIKv5aju7iT+fw8mz2Va337vSenUDby8XdDo9r71jrqCtXjqFoABjvOtIztfGRsFPvnWfVJu/oKiGgqIT/cr/4jNrKCm7RUVVIwVFNbz8+pEBzxeMMwKJSXkkJuVZbOvdz0ciz3AZifxDRS6X8eC6mbx/Own9D/84zMuvH0GvN1its2+NvmtQmIibGoy3lwsrFk0mNbOYU2ev0dCk5i87j5u1WzJvEvcsm2r23Y6nV1NSWkdZZQNNze3s2pPwhcg/b+ZEcvKNA/u/PjzLvz40rv3Qe4Gz4Y5BYzFG3C20fHCcjmTrz737joexmWReRs9p0wqjYfDH96XPfZE52uHy1L20vHOY8mXP4bhmLgZNJ22HzmIbGURX0djNdHScTad2+x+sbrOfGzPiVZ07LmRS//OdxmToGZHInR3RVd2iPSHN6LXetMKi0pDX719Ae+12Xf6zGdgvmY5MqUB7rYiO06kEZe2BERoGTg8to+N8Bq3vHqF05lPGEpBebnRX1NFxJhVdXRMBiSM3KF23b6T2md9QsWYHTg8tR+5oR/vpFHR1TdhOnUhnlmVYrPrzC3RdL8Vtx2ZzQ8UKygk+eP/129S+8DLlK17Acd18bEL90Te30XE+k678Ujx/85yFYWBKbFd/dh7kchxWzrIaw+3y5L007zpE3Xf+Qsf5TGwCfdBm3aA9PhX7FTPpOD26EN3eOG5YhOIXb9H4pz10V9ah9DNW4nF7YdOAsyaD0fSPfbSfTsV+8XRswvyldSq06fnYL5uB7VTzpFabSUF4/W47t77/KmULvmZcxyBwPPqGZtpPpWC/NG7EhgFyOT5v/YTK+79H3Yt/pvWjU9jNisLQ2YU2PR9NcjYOa+eP2DAY7Rihb1Gjb2y1mmRuou5//kbX9VK8Xt4hlXC2CfPH6/cvUPfCy9Tt+BM+7/xMat9xNo1bP3wNu/lTsY0MRO7mTOe1ItpPXEIx3hOnzeZjneevvk7FPd+i5tnf4vj5OZQB3rQfvYhhjPNS7jrDoKyyQSqFKJfLzOKfn3tyBVeyiunu1vP2h2eZGRtCSKDxAXly8yKuZBZzo6SGpuZ2OjSduDjZExXhxyMPzCUibGRejS+LdStj8fd1Z+/BZHLzK9F2duHt5cKiOZE88sA8nBwH9wTeu2qaVcPAzdWBV3/7JO98dI6snFIam9X4+bizYfV0GprUfPjv0cdDTo2ewM6Xt7Hvs8tcySqm9lYLcpkMdzdHJvh5MicuzKya0D3Lp2KnspFCP9rUGuxUNoQGebNuRSyrllgfXJwc7fjxixv4y87jXL9RhYuLPasWx7Blc8+qlyM935hJAfzzD1vZezCZ1IxiGpracLBX4e/rzoqFk82SPt3dHHntd09x4OgVzl++TnllI13d3bi6ODB+nCszYkNYsbAnrvUf//ckJ89mk5ppvDbNLe042NsSFODF0vlRrF813WI9g+HIM1yGK/9w2bJpIT5eLhw8nkZFVSNyuYzpU4LY+vBinv7OrhEftzfff349U6ImcPhUhnHlYyAowJO1y2O5d+U0i6gQN1cH/v7bLew/nMrZ5Dwqa5pQyOX4jHNh3sxwZsb2lCIcjfwb189G29nN2Yt5VNc1jzjkqy9jMUbcDWgv56DtJ9TCefNKC8PANioY2+gQOnOKby8+FmF1X6/fPY/Cbxxte08a69t7u+O0cTkeP3yS4pAHx0z+roIyugqsr1QOjNgw8PjZ09hOmUhHYhqaC1no6puROxlXAnb+6mqcH11tsY/c05WAk6/S9PqnqA+epeVfn4FSgW1YAJ6/fW7QdRAGY9wr38ZhcRwt7x5Gfegc+nYNSh8PVNMjjYp2P9VrhoLTV5Yik8to/MteWvccQ2Zni/2S6Yzf80vqvvWK1X0a//wBMpUNrts3Du03Hl6FTUQQTX//GM3Fq6gPX0Dh7oxNWADOP3sap/utz4g6bVphNAz0+n7L1ypD/PA/8gr1v9hF+4lLGLq6UMVG4PfvP6BJyRlTw0DmYIfvR7/h1g//QevHp6UZFZet61GMwjBw2XIvMns7tFdy6TibjkypQBk0Hs/fPNdv/obLM/djGxNG8z8+oSMhDV1TK8rxntjNm4Lr10f3nNlODmXC2Tdo+ttHqE9epun1/cjtbFFO8MF1+0M4b7aeDzdUvsgxovWD47TtPYnD2vnGhfB64fzoGjoS0oyriPfKN7BfHIfLM/ejuXiVtk/PYOjsQuk/DtdvPIjbNzdbJM3bxoTh9/mfaPjFLtqPGxeUc1g9B9fnHqJixcCL7Q4HmcHQtwifQHB30dnZzb2PG+t6hwZ588Yft95hiQQCgUDwZdJxKoWqzT/G5Zn7jQuuCQSCL4S7NvlYIBAIBAKBAIyzBSgVuO3YfKdFEQj+v+auCyUSCAQCgUAg6I3fEevhRQKBYGwRMwYCgUAgEAgEAoFA5BgIBAKBQCAQ/Kdy6/uv0nnVsopTf3j879eGvOib4L8PYRgIBAKBQCAQCAQCEUokEAgEAoFAIBAIhGEgEAgEAoFAIBAIEIaBQCAQCAQCgUAgQBgGAoFAIBAIBAKBAGEYCAQCgUAgEAgEAoRhIBAIBAKBQCAQCBCGgUAgEAgEAoFAIEAYBgKBQCAQCAQCgQBQ3mkBBHc/u/Yk8NHBSwD89DsPsHhu5B2WSCAQCAQCgUAw1vxXGgaPbX+d2lstZt95ejix95/P3yGJBINx/PhxMjIyePLJJxk/fvydFkcgEAj+o8jNzeXQoUMsW7aM2bNn32lxvnQ++eQTCgsLeeGFF3B0dLzT4ggEdy3/lYaB4O5Am55PxYrncf/+E7j/cAvNf99H/c934nfkFezmxozJb9y4cYNPP/2UBQsWsHDhwkHbd3Z28sorrzBhwgQeffTRMZFhrHnnnXeor69n+/bt2Nvbj3n7u43Tp0+TmprKxo0bCQsLG9Ex2tvbuXz5MpWVlTQ0NKDRaHBycsLHx4e5c+fi6+v7pcpzJykoKGD//v3Mnj2bZcuWAWAwGCgpKSEnJ4eqqiqam5uRy+X4+Pgwbdo0oqOjrR6rpaWFxMREiouL6ezsxMPDg+nTpzN9+nSr7bu6ukhKSiI3N5fW1lacnJyYNGkSCxcuxMbGxqytTqcjPT2dqqoqqqqqaGxsBOCZZ57B09NzyOerVqv55z//iZeXF08++SQAeXl5HDx4sN/nPDMzk2PHjhEaGsqmTZs4ePAgeXl5Vn+/sbGRnTt3AhAeHs5XvvIVANLT0zlx4gRxcXGsWrVqSLJqNBouXrzIjRs3aG5uRqlU4uLiQmBgINHR0fj5+Q35vAV3L++88w41NTX84Ac/uNOifOFI7/VDL2O3MJbqR16i/VQKobeO32nRBP3wX2kY/PFnX6VbpwPg69/7F93d+jss0d3NPcumEjs5EICJwT53WJr/boqKiqipqWHmzJlDUvKH2/5uo6Ojg8zMTLy9vUelhDc1NXHp0iXc3Nzw8vLCzs4OtVpNfn4++fn5rFmzhmnTpn1p8txJLl68iEKhMPMaNzU18fHHHwNI59bR0UFZWRllZWWUl5ezevVqs+O0trby3nvvoVarmThxIq6urhQUFHDixAmampoko8OEXq/nk08+obS0FB8fH8LDw6moqODy5ctUVFTw1a9+FYVCIbXXaDScPn0aADc3N2xtbens7Bz2+aakpNDd3c38+fOl7yZNmsS1a9e4ceMG165dY/LkydK2jo4OEhISUKlU3HPPPWbHksvl5OTksGjRIum7a9euIZfL0etH9x5Rq9Xs3r2b5uZm3N3diYyMRKFQUF9fz5UrV+jo6BCGwShYunQpc+fO/Y8cBwWCL5P/SsPAb7yb9LcM2R2U5D+DAD8PAvw87rQYAoxKnVwuH3IowHDb322kpKTQ1dVlptSNBE9PT55//nmcnJzMvq+qqmLPnj3Ex8czefLRdeUcAAAgAElEQVRkC6/1FyXPnaKkpISqqiri4uLMwikUCgVz584lLi4OZ2dn6fuamhref/990tPTmTx5Mv7+/tK2xMRE1Go1ixcvZt68eQAsXLiQt99+m8uXLxMTE8O4ceOk9tnZ2ZSWlhISEsKmTZuQyWQYDAb+/e9/U1BQQGZmJnFxcVJ7lUrFpk2b8PPzw87OTvKyDgeNRkN6ejpeXl6Eh4ebbVu9ejWlpaXEx8czceJEVCoVAPHx8Wg0GtauXWt2LQBCQ0MtDIOcnBxCQ0O5cePGsGTry7lz52hubmbOnDksXbrUbFtrayvV1dWjOv5/O15eXndaBIHgP4K7zjDQ6w1862fvk5tfCcDWRxbz6FeML539h1N5/V2jByks2Ju//3YLNkoFG574MxptF998ehUfHbxEh6aTbV9dgspWyc7dZ5DJZTxwzwzpOMOlTa3lwa1/AWBypD9bH1nMG7vjKSm9haeHE1sfWczyhZZT7fHnc/jsRDrlVQ2o1VpcnO3x93VnxtSQEcsCsPP9M+w7dBmAuKnB/P6lhwG4UVzDcz94BwA7Oxt2/nEbvj49RlBufiUfHUqmoKiGhqY2HB1UjPN0IWZSAFs2LcTZyU5qe+ZCLr/96yGL377TyccGg4GkpCSysrJobW3Fzc2NJUuWEBERIbWprKxk9+7dZvtduHCBCxcuSJ/7Tu+//PLL6G7PIgGUlZXx+9//Xvrs5eXF008/LX02hRqsXr0arVZLeno6arUaDw8PZs+eTUzM2IRC9cbkuY2NjbVQWIbavqmpiTfeeIPJkyezfv36fvdVq9W8+uqrREREUFVVBcD27dsH/L0333yT9vZ2SbkeavsXX3zR6natVktaWhoeHh5m9/e1114b9vFVKpWk+PXG19cXT09PamtraW5uHlB56E+e3lRWVnLhwgUqKiro6urC1dWVqKgo5s6da9XoMPXVadOmsXDhQhISEigqKqKzsxM3NzcWLVpk9lt5eXlcvHiR+vp6HBwcpHt79OhRVq5cyYwZMwa8JiZDcc6cOWbfu7i4sGTJEov2Pj4+REZGcu3aNcrLyyXDoKuri7y8PGxtbZk1a5bU3s7OjpkzZxIfH8/Vq1dZvny5tO3q1asALFiwAJnM6JCRyWQsWLCAgoICsrKyzAwDpVJJaGjogOczGFeuXKGzs1MyXHrj7OzMkiVLOHnyJGfPnmXVqlWUlZWRnZ1NSEgIU6dOtdgnOjqaQ4cOUVlZiZ+fnxTitGjRolEbBmVlZQDMnTvXqqz9PfNdXV2kpKRw/fp1GhsbkcvleHh4MHnyZKZPn45cbll8MD8/nwsXLlBfX4+9vT2xsbH9hlrm5OSQlpZGXV0dOp0ODw8PYmNjzfpabW0tb7/9NtOnT6eqqopbt24RHh7OokWL+Oyzz7h16xbBwcFs2LBBeg66urrIyMigsLCQhoYG1Go1KpUKPz8/5s6dS0BAwLCvYV/Onz9vNu4D/eYYmMa8sLAwlixZQnx8PJWVlchkMsLCwli9erXVMaSgoICUlBTq6+vRarU4Ojri5+fHrFmzzGZ4Pv74Y4qLi8327f2OAdixY4fZjEZubi75+flUVVWhVquRy+WMGzeO2NhYpkyZYiHLm2++SWtrK9u3byc+Pp4bN27Q2dmJn58fq1atMjPUe9N75q6jowMnJycCAwOZNWsW3t7eZm1bW1tJSkqiqKiItrY2VCoVQUFBLFq0CA+PkTsQ//CHP0jjoIODw4iPIxg9d51hIJfL+NE3N/D1771Nh6aTjw4ms25lLEqFgvc/NT7gNjYKfvjNDdgoFWb7vv7uaSks6LW3TwHQ1W1U9t7ee5Z5MycSEmj9wRgqDU1qfvJ/+9B2dgNQXdvM7/7+GZFhvvj7ukvt3vogkb0Hks32rW9so76xjeLSun4Ng1Nnr/H7Vz8H+k+I3vrIYtKySigsqSUtq4TUjGJmTgvhjd3xUpvnn1ppZhRcTi/ip7//BL3eIH3X3NJBc0sHN4prWLci1swwuFtJSEigqamJkJAQNBoN169f59///jdbt26VBjB3d3dJ6a2pqSElJYXw8HAiI3sMmr4D2Lp16zAYDOh0Oo4ePYqHh4eZV9jaCwGMHuT29naio6NRKBTk5eVx+PBhOjs7zZSc3iQnJ5OYmIhMJuP73//+kM89KSkJmUxmVXEYans3NzccHR2prKwccF/T9oCAABQKBbm5ubS1tVl43E1otVoaGhqYOHEiNjY2w2rfH2lpaWi1WlauXCkpkiaZxuL4YFRo6uvrUSgUgxpb/cljoqSkhH379iGTyYiKisLR0ZGSkhKSkpIoLS3l0UcftbofQHd3N3v27EGr1RIQEIBer6eqqorKykrJMMjOzubw4cPY2dkRGxuLTCbjypUrQ36JVlRUUFpaypQpU3BxcRnSPoCkyNna2krfVVdXo9PpmDBhAkql+WskKCgIgPLycuk7g8FAZWUlSqXSIhzGx8cHlUpFTU0N3d3dFscbKZ2dnaSmpuLm5kZUVJTVNnFxceTk5EgzIsePH0elUrF27Vqr7b29vfHy8iInJwc/Pz+uXbuGu7v7mBREMF3ntrY27OyGNhZrNBr27NnDrVu38Pb2Ztq0acjlcmpqajh16hQREREW/bqwsJDq6momTpzI+PHjuX79OhcuXMDe3t7CsDQVffDy8iImJga5XM7Nmzc5deoUNTU1rFu3zqx9VlaWlF+Sm5tLcXExoaGhODk5UVBQQFpammSUtrS0EB8fj7e3N4GBgTg7O9Pe3k5BQQEffPABDz300KjD9SIiInB3N76XL1++TG1t7aD7tLa28sEHH+Dn58fkyZMpLi4mJyeH7u5uHnzwQbO2JgeRs7MzUVFR2Nra0tzczM2bN/H09DTr63PmzJFC1kyzQ32dM72fMYBTp06hVCrx9fXF1dWV7u5ubt68yZEjR2hoaLBqzBsMBvbt24dOpyMqKora2lrKysrYt28fzz77rMXzZcqFUSqVRERE4OrqSnt7O4WFhcjlcrNnoa6ujg8//BCtViu1bWlpIT8/n6KiIp544okRz8zU1NSwa9cu3nvvPebMmcPy5cuJjo7ud8wUfHHcdYYBgK+PG89vW8nLrx2hvaOT9z4+j62tktY2DQDPPLaU4AmWnW/ujIl8Zd1MvvPzD+jq1hE3NZhtjyzm2z/bQ1e3jrwbVaM2DKpqmpg3cyIrFk7mwLErZOeVYzDAycRsnnrEOL2s1xs4cPQKAD7jXPnZdx9g/DhX6upbyS2o5MyFnFHJYKNU8OMd9/HcD9+hs7Obne+fobOrm4zsUgDmzwrnnuXm3q5/H01Frzcgl8v4+XcfJGZSAC2tHRSX1nH4VIbFwzcnLoy3XnkGgE8/T+HI6cx+5Tlx4oSUmDcQYWFh3HvvvT3nEeqHz+7/xTZ8AgAO985HGeqHbWRQv8doa2tj27ZtkqJ+6dIlEhISyM7OlryT9vb20gCsUqlISUnB29vbLI64L6bkys7OTo4ePYqjo+OA7U00NTXx9NNPS8mIc+bMYdeuXSQkJDB58uR+DYrhUlVVRUlJCdHR0bi5uY2qfUBAANevX0ej0fSrgJhmCXobBlVVVRbhGNbamwyDoba3hskL6uLiYpH4ajIMRnL89vZ2zp07h06no6WlhdLSUgwGAytXrhzwXg0kj4kTJ06g1+t5+OGHCQ4OBnpe0sXFxWRlZREbG2t137y8PEJDQ9mwYYP04tbpdDQ0NABGw+H06dMoFAq2bNkiKTszZ85k165d/crdm6SkJMC6R7o/uru7JQWht5LW1NQEIPWtkpISysvLmTVrFq6urmZtwKgE6vV63NzckMlkNDY2kpWVRUxMDJ6enri6ulJbW0tTU9OYhXykp6ej0WhYunTpgMrF2rVrefvtt9m7dy9dXV1WQ4h6Ex0dTWpqKsuWLSM3N7dfB8BwiYyMpKamhk8++YT58+cTFhY2aPWckydPcuvWLWbNmmU2OwNG476voglGg+2pp56SvMfTpk3jvffe4+rVq2aGQV5eHhkZGRazqwaDgYMHD3L16lWmTZtmpvxGR0ezYsUK6uvr2bVrFy4uLmzYsAGDwcArr7xCRUWF1NbJyYmvfe1rFk6aRYsW8eabb3L27NlRGwbe3t6Swyg3N3dIhkFtba1ZzlFnZydvvPEGBQUFaLVas3EiIyMDgCeffNLsXun1etra2syOazKYwehQam5uHvQds3HjRovCCAaDgd27d3P58mVmzZpl4Rjo7u7Gzc2N9evXS/3eVJGppKTEzFlSX1/PyZMnsbe3Z8uWLWbvCp1OZ3a/AA4dOoTBYGDbtm1mCfjV1dXs3r2b+Ph4Nm/ebLaP9F6PCgbA/buP4fKkuUEJxhmDjIwMEhMTuXjxIufOnWP8+PEsW7aMJUuWjGo2QjA87krDAGDN0ilcSivkXPJ1Dp/KQC43dvC4qcE8uHam1X2mTQ5iStQEPD2cqG9oY2r0BCIn+jLe25WyygYamtqs7jcc7Oxs+PGO+7Czs8HD3ZHv/PwDAKpqe16Cer2Bzi7jjIKtjQJ3V0dcnO1xcbYnLNib9asGT3IcjMAAT559fBmv/uskxaV1/N/fPgPA3c2R73zd0tul1RrlkctluLo4SPIE+HmwyEpokIO9LYH+xgd/sJmEvLw8zp8/P6jMGo3GzDCQuzrheO8C6bNNqD82of7WdpWYOXOm2cAcGRlJQkIC9fX1g/7+F8HEiRPNBkgnJyeioqLIyMigqKjIqqfSxsYGBwcHq1P8/XHx4kUAqyERw21vMgyqqqoICQmhvb2djz/+mLCwMCl22uTd9fHxkRJCKysrJUV8//796HQ6Nm3aJG0D8Pf3l5SRoba3RmZmJh0dHSxatMjiOpmU/ZEcX6vVSi9zMBqO69evH3RmYSB5wKhMNDY2Mn78eMkoAGOozLx58yguLiYvL69fw0Amk7F69Wozb55CoZCUt+LiYjQaDZMnT5aMAjAq5uHh4YMa5rW1tRQVFTFp0qRhvWATEhJobW1lwYIFZrMMWq0W6PFwfvrpp3R3G8cYU0iKqY219qdOnaKoqIiKigoeffRR6Znuvc9o6O7uJiUlBWdn50HD+jw9PYmJiSEzMxNPT0+rIUS9iY6O5uzZsyQkJEizhWPBnDlzaGlpITMzk6NHjwLG+xscHMz06dMtQjo0Gg25ubk4OjqyePFii+P1l6gcERFhFlLi6+uLs7OzxRialpaGTCZj1qxZdHR0mG2bNGkS169fp6ioyOx3TEahqa+YPstkMpycnMyU5d7hfQaDAa1Wi06nQyaT4enpSVVV1ZjOIA0VR0dHs+fU1taWkJAQrl27RkNDg5mibko47zsmyOXyYc3K9Ufv39JqtdIz5u/vT1VVFTU1NYSEhFjsN3/+fDNjOCIigsLCQurr683GuoyMDAwGA/Pnz7dwICkUCgIDA6XPpaWl3Lp1i7i4OBwcHMz6hKurK97e3ty8eROdTmdWRKDve101y/rsnUKhYMaMGcyYMYO2tjaSkpJISEjgww8/5KOPPmLatGksX76cGTNmmB1fMPbctYYBwLefvYec/ArqG9rQ6w04O9nxve3r6M/5Y2Nj7Cy2NsbTsr09oNjc/tx5O/xnNAT4emBnZ5zy9fLo8Sqp23teaEqlnNjoQNKzb1JW2cDjz79OdIQ/sdGBLJgdQXho/5V9QoPG8cRGo7Ls4DCwt/n+e+K4lFZISkYRGm0XAP/z3DpcXSyrLsyYGszV3DK6u/V866fvExjgyfSYIObEhRE3JRiFYuSLYO/YsYMdO3aMeP/h0LdMoclbMpJqJWNB35d17+9u3bpldR/T4DdU6urqKCgoIDw8fEje1MHa91asQ0JCKC4upqamhvb2dskwqKqqws/PT4pptbW1lZTt1tZWCgoKAKNX2M3NjcrKShQKBb6+vsjl8mG174tOp+PSpUs4OjpajaMdrjy9cXd35wc/+IHkjU9OTmb//v2sWLGi33symDyApFT5+Fg+26b+MJDx6uvrO6B3uK6ubsDjD2YYmGYLhmpYglExvHLlCuHh4SxYsGDAtiEhIZSVlZkpEgMRHBxMWVnZF1bZKSsrC7VazYoVKwZVIlpbW6XrV19fT2lp6YDn4erqir+/P6mpqfj4+ODu7i6VUh0NcrmcNWvWMH/+fAoLCykvL6esrIyMjAwyMjJYsWIFM2f2OMWqq6sxGAz4+/sPS3m2VurVwcGB1tZWDAaDpFBWVlZiMBh44403+j1WX6+4SQ6l9O61MdtmUmxNFBUVkZycTGVlpVmOl4muri6Lc7tx44ZFrH5gYKBZqOho8PDwsJhh6u89ExkZSW1tLe+++y5RUVH4+fnh5+c3Zusk1NfXc+7cOUpKSqwazdbeezKZzMx5MJD8ppnV3rMZ/WEab9PS0khLS+u3nSlHYTQ4OTmxevVqVq9eTWVlJQkJCZw4cYK0tDSeeuopixA2wdhyVxsGzk52TJscxOlz1wCYNNHPTBkfLjrd6MuSqmx7LtlA09Pfe/5e/vT6Ea5klaDXG8jOKyc7r5w9+5NYMm8SP9qxwaoyHhrkTWiQpbLZH4vmRpKSUQSAm4sDU6Ksh2Zsvn8Ojc1qPj+ZgU6np7S8ntLyeg4eSyM0yJtf/3Aj4zxHfm2/LKxNjYPR43QnsBaKY0oeGytjxeT9H2olnMHae3t7Y2NjIw30xcXFhIWFUVhYKBkznZ2dkgEhk8nw9/enoqICg8FAcXExbm5uKBQKioqKiIuLo6qqCl9fX0kJG2773ly9epW2tjaWLVtmVeEZiTx9MXnjN2zYQFtbG6dOnSIwMNBqct5g8piuF2C1FKJKpUIulw/YH0ye1f4Y6PiDlV+sr6/n+vXrhIWFWTVkrZGVlcXJkycJCgrivvvusxjrTJ5ek1ym2v3Q4/XvPbPXt/2sWbPMkpat7TNS9Ho9ly5dkpJqB+P48eNotVpWr15NYmIix44dY9u2bQMq29HR0VRUVAwp3HC4ODs7M23aNCmUpbS0lP3793PmzBkmTpwoeXZN12y4Slh/YyggGQY6nQ6dToejo+OARQr6hlz1Tirvi0wmMyvpev36dQ4cOICjoyPz5s3D09NTki0xMZHa2lqrJWArKystFFO5XD5mhsFg16c38+bNw97enszMTJKTe3IKAwMDWbdu3aDP9UA0NTWxe/duuru7iY2Nxc/PT3rWc3Nzyc7Otnp9lEplv7PRfeUfTh8ytZ0zZ47ZrGhfxrIcbFNTE2lpaWRkZNDe3o5KpRLVpb4E7mrD4FJaoWQUAKRkFHHq7DVWLh67wVh2O0TJoB9bxXKcpzO/e+lham+1cCWrhKycUi6m3kDdriXxYh7TpwRx78rRhRTV1beys1fCcVNLO6+9c5rvfsMylMhGqeCFbavY+shirmSVcDW3jIupN6ipa6boZi1vvn+GH79434jkOHbs2JBzDDZs2DCi37hb0Wg0Ft+ZplgHesEMlcbGRvLy8ggODh5SguNQ2svlcnx9fSVvUUlJCatWrUKtVlNcXCwZO73DcPz9/SkuLubWrVtSQqFSqZSMivb2djNv+nDbmzAYDCQnJ2NnZzfgugIjPb41goODKS0tpbi42MIwGKo8pnvdN+QCjC9UvV4/YH8YzKs90PGt9cHemBSWoc4WZGVlcfToUQIDA3nooYesKsgm5bR3HoGJ5uZmszZgVCDlcjktLS1mXum++4xGkTJx7do1WlpaWLx48aDlZ7OzsyksLCQiIoLp06ej0+k4ffo0SUlJVsNzTMTFxUmJvl80gYGBzJgxg6SkJMrLy6XrajKiWltbx/w3FQoFCoUCjUYzoBI4GkwOjMcff9wijCU+Pt7aLgAsXrx4wHvzZSKTyaQF/To7OykvL+fKlSsUFRXx2Wef8fjjj4/42KZiB+vWrbMYy0ZbActE7z40mEJvaqtSqb6wPgFG50FKSgqJiYlkZWWh1+sJDw/n61//OgsWLBhyYr5g5Ny1hkFTczsvv3YEgPHeriiVCsorG3j1XyeZGj0Bb6/Rx+8BONjZ0tnZTXNrB11dOikcabSYEn29vVxYu3wqa5dPpbSinqe/bUwUzMmvtGoYFJbUcjbZqGQ7OqjYfN8cizYABgP84R+f06bWIpfLiJ0cSPrVmxyLz2LejInMn2WelGmSx9FBxeK5kSyeG8mzTyzjqR07qb3VQk7+wFVqBiI/P18KVRiIzs7OL90wML24h7r40HDbW0tmM4V9DGd11v5ITk6WYkDHsv2ECRMoLS0lPz+fjo4OgoODqauro7i4WFLOehsGEyYYE8QrKyspKSmRkmTT09OlMou9E32H295ETk4Ozc3NLFy4cEBFeqTHt0ZLSwuARZjDcOQx3WtrdfZNfWQ0/cFksAx0fGs0Nzdz7do1AgMD+83n6M3Vq1c5evQoQUFBbNy4sV+v+fjx41EoFFRVVVnEFJeWGosg9L7+crkcPz8/ysvLpTC13vJrtVp8fHwGVeQHw2AwcPHiRVQq1aBJwWq1mtOnT6NSqaTk2ri4ODIzM7l06RLR0dEDeie/DKOg72/1DicxGf6VlZVfSCy+r68v5eXllJSUfCGKYHNzM87OzhZGgVqttmpw3u3Y2toSGhpKaGgoO3fupKKiwuLZMNH7PdNfPzIZy6axrjd9k4JHiq+vr1StbLDZRFNYZmFh4bBCEodKbm4uCQkJJCcn09HRgbOzM2vXrmXFihVjUrpWMHTuWsPg5deP0NTSDsDXtyzH1kbJT/5vH+p2LX949TB//PlX+801GA7BgV5kZJei0+l5Y3c8a5fHYmOjQCGXm5UfHS7P/+hdZsaGsGB2BL7ebuj0ei6lFUrb7VTWX4DFpXV8sN/oSfH0cOrXMNj32SWpCtF9a+J49MF5PPXiTto7OvnzG0eJjvDHzbWnWsFfdh6ju1vP8kXRhASOw9ZGSW5BJS1tHRby6HR6Kqp7YmZN1aAA6htaKa0wxkorFQr8xrt9qTkGw8UUW9lfvH9flEoltra2NDY2Djhom7hx4wb19fWS0tfS0kJOTg5KpbLf+OnU1FQuXLiAXC7nm9/8Zr/Hbm1tJTs7m4CAAKsvh9G0Nw20Fy5cICAgAJVKRVhYGMnJyVIiWe+wDl9fX2QyGWlpaXR3dxMYGIhcLkcmk5GSkmJ2zJG0N3Hx4kVsbW0HzcEY7vGvX7+Ou7u7xcuvuLhYqq9vLa58qPJ4e3vj7u5OdXU1hYWF0r3X6XSS0Txp0qQBjzEQISEh2NnZkZeXx8KFCyVlylQqsD+GY1iaZgoGMwrAGDseGRlJTk4OKSkpUqUjrVZLamoqgEXSb0xMDOXl5Vy4cIGNGzdKswamOvNDneEZiLy8PBobG5k/f/6gYUknTpxAo9GwZs0aKZRCLpezatUqPvzwQ44dOzYqj+9wuXz5Mn5+fhbPhSkhGcyTUe3s7IiKiiI3N5ezZ89aVCWqqanBzc1txOFZcXFxlJeXEx8fz6OPPmrmqdXr9eTk5DBhwoQRz/KYnpfGxkazmPgzZ85YzTe4G7l58yaBgYFmM2AajYaOjg5UKlW/M4G930v9KeSma1JaWmpmPGVmZg6putJQiI2N5cqVKyQlJZmFqYHxHldWVkr9MTAwEE9PTyoqKsjKyrJI0m9qaqKsrGzEz/Ff//pXGhsbiY2NZfny5cycOfNLTzwXGLkrr/pnJ9IlJXpaTCALZxvreM+JC+NSWiGZOaV88vllNm0Y/Wqua5fHSgr2wWNpHDxmjF10dFBx4J1vjfi4jc1q9h5ItljLAEChkLNm6chfgoUltby99yxgzMMwLU72+EML2Pn+GZpbOnj59SP8+ocbpX20nd3En8/h5Nlsq8e8d2VPLG5Dk1qa2ejLa++clv729nJhz2vPjfg8vgy8vb1xdnamoKCAI0eO4OPjIyXU9ueFCAsLIzc3V6rUo1Qqsbe3t6rYubq6snv3bqKjozEYDOTn56PValmxYkW/L+Tu7m40Gs2g9ZkvXbqEXq8fsndmOO39/PyQyWTU1tZKq6z6+vqiUqloaGiQapGbsLGxwcfHh+rqailsB4xhOPn5+Xh6epopDsNtD8aZp/r6eubMmTPodPFwj5+Xl0deXh5ubm64ublhY2NDU1OTNLszbdo0i/4wHHnAuJLuvn372L9/PxERETg5OXHz5k3q6uoICAgYleKrVCpZsWIFhw8f5r333iMmJgaFQkF2djZeXl5WZxLa2tq4evUqvr6+gyYXVldXS5Vw7O3tOX78uEWboKAgM2V/yZIllJSUkJiYSEVFBa6urty4cYPm5mZmzpxpofBMmTKF7OxsioqKeO+99wgICKCyslJaLMxaqFZCQgJqtRro8aAmJiZKz9aiRYvMqr8kJyejVCrNknStYVo4KiAgwOJ3AwMDmTRpEnl5eaSnp1s8C8OlpKSEw4cPW90WEBAg5UGUlpZy5swZXF1dpWextbWVkpIS9Ho9kydPtqg0tGrVKmpra0lJSeHmzZsEBQUhl8upq6ujqKiI7du3j9gwiIqK4ubNm2RmZrJz507Cw8NxdHSkpaWF4uJi2tvb2bp164iODcY8k0OHDknjp42NDUVFRbS3t+Pj4zPsVa770tbWZpakbAq5ys3Nla6Jq6vrkBPmrXHgwAGUSqVkIHV1dZGfn49Goxkw3GnixIkUFhZy4MABpkyZIo0vU6ZMkcayadOmkZaWxvHjxyktLcXV1ZWamhqKi4ulohGjxcvLi5UrV3Ly5EneeustaW2Cjo4OioqKCA4ONss1u++++9i7dy9Hjx4lOzsbPz8/dDod1dXVlJeXEx4ePuJx7sEHH2TmzJljMtMuGB13nWFQVtnAG+8Z4wvlchnbn1opbXvuyRVcySqmu1vP2x+eZWZsyKjXJVi+MBp1u5YDR69QUd04JgnKAE9uXsSVzGJulNTQ1NxOh6YTFyd7oiL8eOSBuUSEjWxBnM7Obn77t0PSQm5bH1kslVNtKMMAACAASURBVBN9cN1MjsRnUl7ZwKW0Qg6fypDCle5ZPhU7lQ25BZXUN7bRptZgp7IhNMibdStiWbVk7FfqvRuQy+Vs3LiRM2fOkJ+fL3mH4+Li+jUMTGUjCwsLuXnzJmAcQK0ZBqZSfpmZmdLKx0uXLh2197O9vZ3MzEy8vb2HtPrrcNvb2toybtw4amtrzdqHhoZKsw59CQgIkBRxExMnTpQUrNG2T0pKQqFQmCWlDsRwjh8XF4e9vT0VFRXU1NSg0WikFTunTZtm9d4OV57g4GAeffRRkpKSKC4upqurCxcXF+bNm8e8efNGHXoSExODUqnk4sWLpKWl4eDgIJ3X8ePHLbxrly9fRqfTDclQ7J2n0F++kFKpNDMMXFxc2LJlC4mJiZSUlFBcXIy7uzurVq2yGsYjl8vZvHkzFy5cIDc3l7S0NBwdHZk1axYLFy606l29fv26RViJqQIVGJ8/k2Fw48YNamtrmTlz5oDx0h0dHZw8eRKFQsE999xjtc3y5cspLCwkMTGx37UyhkpDQ4O0HoU1TIbBkiVL8PHxoaSkhLKyMtrb27G1tcXf35+YmBirY4qp/rxp5eP09HRp5eMVK1aMujrOPffcQ3BwMBkZGVy/fp2uri6cnJzw9fUlPDx8VLXlo6KikMlkJCcnk5WVhVKpJCgoiIceeohjx46NSm4weuOPHDli8f3p0z3OrYiIiFEZBosWLZLK7ubn50vJsStXrux3dXQw3nO1Wk12djbnz5+XQlcnTZokPcdubm489thjJCQkUFhYiE6nY/z48TzyyCNUVFSMiWEAxrHR29uby5cvU1JSgkajwcnJiQkTJljMlHp7e7N161YuXbpEYWEhqampKJVKXF1dmTVr1qiS8desWTPaUxGMETLDnSrnIhD8B2Na8XL16tWj9ihaIyEhgUuXLvHAAw8MqdrGcNvfbRQVFbFv3z6LxZSEPINz/vx5Lly4wObNm6Wa5h0dHbz++uu4ubmxbdu2Oyzhl8Pu3bupqanhG9/4xqjLJQoEAsF/K19e9pRAIBgSWq2W9PR0PDw8BvQ6jbT93cjFixeRy+XMmWM9p+bL5m6TB4zJ+339ODqdjmvXrkmeZROpqal0dXUNa5Xj/2Ru3rxJZWUlMTExwigQCASCUSBmDASCEfBFzxgIBH25fv06J06cYOLEiXh4eNDV1UVeXh719fUWi18JBAKBQDAS7rocA4FAIBBY4unpKa3fcO3aNeRyOd7e3v+x4WMCgUAguPsQMwYCgUAgEAgEAoFA5BgIBAKBQCAQCAQCYRgIBAKBQCAQCAQChGEgEAgEAoFAIBAIEIaBQCAQCAQCgUAgQBgGAoFAIBAIBAKBAGEYCAQCgUAgEAgEAoRhIBAIBAKBQCAQCBCGgUAgEAgEAoFAIEAYBgKBQCAQCAQCgQBhGAgEAoFAIBAIBAKEYXBX8nJSErJf/IK92dl3WhSBQCAQCAQCwX8JwjAYJv9z4gSyX/yChJKSL6S9QCAQCAQCgUBwJ1DeaQEElnx1yhTmBgQwycvrTosiEAgEAoFAIPgvQRgGdyH+zs74OzvfaTEEAoFAIBAIBP9FyAwGg+FOCzEc9Ho96enpxMfH88gjjzBhwgRpW0Z1Nb85d45L5eXUqNV42Nszedw4tk2fzqNTplgcq7ylhd+cO8eRggKqWltxs7NjeUgIv1y2jAhPT6nd786f50enTw8o175Nm9gYHT2i9gAJJSUse/ddszYfPvQQj8TEWN1/0quvUt7SQtl3vsP/nDjBoevXaevsZLa/P/9Yt44Yb2+LfTKqq/neyZMklZWhUijYEBnJt+bOJe6NN3goKopPNm82a1+jVvO78+c5nJ9PWUsLDjY2hLq7s3biRH65bJnU7oMPPkChULBs2TK8rfyuQCAQCAQCgeDu5z9mxqC6upozZ86QkJBAY2MjSqWSxx57TNp+tbaWeW+9hVIuZ2N0NAEuLlS3tZFcXs7OK1csDIPs2lqWv/suzVotD0yaRLCbG2XNzezPzeXojRskPf00k8eNA2BDZCQBLi4AfJidzZGCAn68aBFRvUJ9Zvv7S38Ptz1A1Lhx7H7wQQCOFBTw4RASj/UGA+v27KFLp+PhyZPJrKnh7M2brN2zh4JvfhM7Zc/tvVZXx+K336a9q4uHY2KY4OLC5/n5PL5/v9Vjd3R3s/Bf/6KwoYENkZFsnjyZZq2WqzU1/D/27jssqit94Ph3hhl6lyagKKBi7zUIirGXaHSNMaaYZJPdtE2vZpPsZpONKfszvZiNXVM09u4IoiCCgogVBVREFOltgGHm98fgyDiDAtaN7+d5fGTOPefcc4cBzntPue/v2GEWGGi1WjZu3Mjy5cvp0qULUVFR9O/fH7VafdVrEEIIIYQQt4fbOjCorq5m9+7daDQaDh06BEC7du2YPHkyd911F05OTqa8C/bvR6vT8fOUKUzt3NmsnozCQrPXBuD+5cupNRhI+ctfzDrse8+eZeDcuby0aRMbZ8wAoLO3tylISMnNZX16OsODgxnSpo3Vdjc1P4CvkxMzunUDILesrFGBQaVOR7CHBwsnTUKpUAAwbskS1qWnsyUjg/Ht25vyvrx5M6XV1Sy6914eqAuS3hs6lD7ff2+1bk1mJscLCvhrnz58PXas2bHL389HH32UyMhIYmJi2LlzJ59//jlOTk4MHjyYqKgo2lzhuoUQQgghxO3htgwMMjIy0Gg07Ny5k4qKCry8vLj33nuJiIjA39/fahmdXg+A2sbG4liwh4fZ65isLNLOn+eZfv3wdnTkQkWF6ViQmxvd/fzQZGZSXVuLrZX6biezIiJMQQHAvR07si49ncN5eabAoEirZfOJE7R2c+P+elOT7GxseLpvX/66bp1FvU15PwFCQkIICQnhoYceYt++fURHR7NlyxY2btxIcHAwUVFRhIeH4+joeM3XLIQQQgghrr/bLjDIzc3l9ddfByA8PJyoqCg6d+6Mol7n15pJYWHM2b2bR1auZFOXLgwOCqKvv7/ZWoGLEs6cAeDLPXv4cs+eBuvMr6ykpbPzNVzNjWWjUNDO09MszbtuFKW0utqUdjAvD73BQA8/P7MgAqC7n5/Vuge3bo23oyNf7tlDdkkJw4OD6ePvT8+WLbG5wvdCpVLRr18/+vXrR0lJCTt37mTjxo3MnTuX/fv388orrzT3coUQQgghxA102wUG9vb2eHl5ceHCBdLS0vDw8MDFxYWgoKArlosICmLzgw/ycVwc81JS+G7vXgBCPT35dtw4hrVta8pbpNUC8Npdd3F3cHCDdXo6OFyHK7px7FUqVErzR1Fc7LLXX1NeWlUFQAsr12MtDYzXHvfYY7wXE8P69HRWHD5sSp8VEcELAwZcsW1VVVWkpqaSkpLC+fPnUSgUDY72CCGEEEKIW++2Cwzc3d358ssvSU1NRaPRsGHDBtasWUPr1q2JjIwkPDwcDytTWQDuDg7m7uBgavR69ubksDQtjS/37OHen38m429/M3WC3e3tAXC1s7tiYPBH4WJnBxhHQC5XYCXtolBPTxZOmoQBOJafz+qjR/kwNpYXN22ii48Pwy977wwGAwcPHmTHjh3s3r0brVaLj48PU6ZMYejQobSwMnojhBBCCCFuD7ddYACgVCrp0aMHPXr0oLS0lB07dqDRaFi4cCGLFy+mS5cuREZGMnDgQFQqy0tQK5UMCAxkQGAglTU1/LBvH8lnz5qCgL51d64v7hbUFDZ1d+gvzsG/3vlvhM7e3igVCvbn5qI3GMymE+0/d+6q5RVAhxYteGXQIAJcXHhgxQpisrJMgUFubi4ajYbY2Fjy8/NRq9X069ePqKgounTpctVpYEIIIYQQ4ta7LQOD+lxcXBg7dixjx47l+PHjbNu2jV27dpGamkqrVq1MO97EZ2fTxccHF1tbU1kDl3bQaVFv0euQNm3o6OXFrtOn+TE5mcd69jQ754nCQmJPnuSRHj0s2uNTN4f/UF5eo0Ybmpr/RnC3t2dESAgbjx9nWVqaaevWGr2ebxITrZY5fOECzra2tKrbdvWi4wUFgPn7+csvv7Bz506CgoKYMGECgwcPxvk2XpshhBBCCCEs3faBQX2hoaGEhoby8MMPs3v3brPO56dxcWw8fpxhwcG08/TERqlke2YmiTk5jAgJoWe9RbZKhYJlU6YwbMECHl+9moX79zMgMJDq2lqScnLYeeoUEzp0sBoYjGnXjte2bOHv27eTU1pKkLs7CmBESIjV3Xoak98AzE9JMZVJyskBIObkSbQ6HWBcT9DQw84a45MRI9h16hSPrFzJ1owMgtzdWX30qGlE43LbMjL428aNRAQF0cnbGw97e1LPnWNdejr+Li6mrVUB+vXrx7hx4wi+A6ZlCSGEEEL8Uf3PPfm4IZtOnGBxaioJZ85wpqQEtY0Nbd3deah7d/7Sp4/Zw74uOlNayuxdu1ifns7p4mIc1GqC3NwYFhzMjG7dzIKJ+pYfPsyHsbEcysujsq7jfvmTjJuSX6fXo/7nP694fS0cHLjw6qum1xeffFz25ptm+dYeO8b4pUt5a/Bg3o+KMjuWnJvLq/WefDyhQwee7d+fPt9/zwNdu7Lo3ntNeQ9fuMA3iYnEnjrFyaIiqmpraeXqyph27Xjlrrtu692ahBBCCCFE0/1hAgPRPNuzsoiaP5/Xw8P5cNiwW90cIYQQQghxi1ifRyL+cHR6vdmzDS76KTkZgFGhoTe7SUIIIYQQ4jbyP7XGQDRfkVZL6//8h9Ht2tHDzw9bGxs0mZlsPnGCezt2JPIqz4kQQgghhBB/bDKV6A5RqdPx9Lp1xJ0+TXZJCTq9nhBPT2Z068bLgwahbmARshBCCCGEuDNIYCCEEEIIIYSQNQZCCCGEEEIICQyEEEIIIYQQSGAghBBCCCGEQAIDIYQQQgghBBIYCCGEEEIIIZDAQAghhBBCCIEEBkIIIYQQQggkMBBCCCGEEEIggYEQQgghhBACCQyEEEIIIYQQSGBwW/okLg7Fe++xLC3tVjdFiNtS8TcryPAcbvZPu7vhn5em5r9c7rRZZHgOp/ZcwfVovmiiquRjZHgO58KL/3ermyKEEH9oEhiI62r2V+sYPvUjhk/9iLQj2be6OTdcZuB4csa9BFzqvBR+svgWt+rqsgc/SYbncKoPZVocO//UbDI8h1O2fLv5gVo9JXNXcWbY02QGjifTfyynej/M+Sc+pHxlzHVrW/nKGFPnvXTJJqt5HIb0wvv/XsD7/17AIbLnVetsav7/ZfqScjJ8RpEZOB6qa6zmKf7yV2NH+5UvTGlF/7eM3GmzONXtATJbjuFk2FRyxr1E+e8xYDBcc/1/BKaf8X8vAKD4i1+bHGQ2x2uvvcaMGTMoKSm5oecRQgjVrW6AsHR/164MCAwkzMvrVjdFCCO9ntzpb1OxZQ9KT1cc7+6L0t0FXfZ5ytfHUblrP04TI6/LqcrX7sTGxwOFrZryNTtxmT7SIo9txzbYdmwDQPXhLCpjkq9YZ1PzX67Fu3/G/flp2Hi6NqncraB0dcJhUDcqdySjTTyM/V3dLPJURO8DwGn0QFNawb8XYOPqhLpdK+x6dUBfVol2dxrnHnsf5/VD8fnhzWuq/1rYtmuF//r/oPL1vC71/S9JTk4mMzOTMWPG4Op6+3/+hBD/2yQwuA0FuLgQ4OJyq5shhEnZimgqtuzBflA3Wv7yLxSO9qZjhnIt5Wtir8+Jqmso37IH53HhKOzUlC7djKGsEoWzw/Wpv5nUYUGob2kLmsZx9EAqdyRTsX2vRcfdUFWDNv4ACmcHHMK7m9Jb7fgWdfvWZnn1+cWcGfk3ypZvx/WRcaa6mlP/tVA4O2A/oMt1qet/ze+//45KpWLChAm3uilCiDuABAZWZGRkoNFoCAkJYejQofx13Tq+TUpi60MPMaxtW4v8IxctYvOJExx/7jlCPDxM6buzs/nnjh3Enz5NeU0NQW5u3NelC2+Eh+OoNu9mRGdlMXT+fLO0pZMnM63Llf8Yxp0+zWfx8ew6fZqCykpaOjszpE0bXhw4kG6+vmZ5K3U6PouPZ+mBA5woLEStVNLH35/Xw8MZERLS1LfJZOXGvXz1360W6S/8/dKUGqVSwaZlr5odP3uuiMXL40jan0lRSQVuLg706taGGZPvIqClh1neJ1/5iYyT5wFY+OVf+OLHzaQeOo2dnYpRQ7vx6P2RKJUKszI5uUUsWRHH3tQsCovLcXSwpX2wH5PG9KF/r+Zf77Uo+01DyY+rqTqYATU61CGBuD48BtfH7wHFpfaXLd/O+T9/QIv3nkDVpiWFnyyi5tgplB6uuD40Bo/XHjTLf6Np41IBcPvLJLOgAEDhZI/ztOHX5TwV0fswlFbgMKwvCjs1JfPWUbF1z3UbjWiKwn8voHD2QrO0oMM/Y3OFu9bVB05Q+OlitHuPUHu+EBsPF2zD2uAyYxTOU6Is8lclHqbwk0Vo9xxCX6FF3coXp0lD8HhhmsX7fLrfTHQ5FwhKW0L+299RviEeQ3kldr3C8Pr4WWw7Xfrd5DRmEPlvfE1l9F6YNdOsHm1CGobKKpzuiQDbS7+HLg8KAJQt3HAc0Z/ib1dQfTjTFAQ0p36A2jN5FHy0gIqtidReKMKmhRuOUX3weONhVIE+FufP8DT/XLk+Mhavz563yFef7vQ5iub8TMW2RHRn87Fxc8K2ezvcHpuA48gBZnkNlVUUf/0bpcu3o8vMAbUKux7t8Xh+Gg5Rfa54npvh0KFDHDlyhLvvvhtPz0ufu7i4OFJTU4mKiqJ9+/a3sIVCiD8aCQzqlJWVERsbi0aj4eTJkwA89dRTAEzv2pVvk5JYlpZmERhcqKhAk5nJgMBAs6Bga0YGYxYvRqlQMK1LF/ycndmSkcH7O3YQk5XF9kcewaZex66jtzcLJ00CYH16OksbsfD426Qknl6/HnuViklhYQS5u5NXXs669HRUSiVz691hKquuJmr+fBJzcohq25bR7dpRWlXFyiNHGLVoET9NnMjD3a/P3b3GOJaRy6v/WEZ5RZUpraConK07DrJrTzofzbqPju39rZb9++zlZJ7KA0BbVcPPqxIIbOnJqKhLdy4PHTvDG//6hYrKalNaaZmWvalZ7E3N4pH7BvPA5EE36Oqsu/DSHEp+Wos6LAiXaSNQ2CipjE3hwmtfUZV6HO8vXrYoU74lgaqUYziNGohd93aUr46lcPZCbFq44vrniTet7Qon4x372tz8G3qe8rU7QanEcWhvFCobUNlQvnbnLQkMnMaHow42fgaLvvyN6rQTV8xffSiTMyOeBZUNzhMisPH3pvZ8AVVJhymZt84iMKiM3sfZqW+CUonzvUNQ+XpSsX0vRZ8uRrtrP/5rPgWby5aB6fWcnfoWhhodzpOGUH0wA238Ac5OfZPWSfNR2NsCoGrli22ntlQlH0NfVIrS3cXsvNC4aT764jIqticBoA4OMKU3p/7a3Hyyhz9LbW4+Dnf3xa5LCNWHsyhdupmKrXsI2PaVRXDg8+1rANSczKXwQ/MbJ9ZU7T3C2SlvoC8uwyGqD86ThmCorDL+nL3xNa3rBQaGskpy7nmZquRjOAzugePd/TCUVVC+bhdnp7yB91ev4HL/iKue80ZasWIFSqWSe+65xyxdoVCg0WjQaDQEBgYSFRVFRESETDUSQlyzOzowMBgMpKWlodFoSEhIQKfT4ePjw5QpU4iMjMS37o57eOvWtHZzY8Xhw3w9dixq5aU/1r8eOoROr2d6166X6gWeXr+eGr2ezQ8+yPDgYAA+MBgYu2QJG48f56fkZB7v1ctUxtfJiRndjB3b3LKyqwYGhy9c4NkNG2jh4MDuxx8nuF5QUlVbS/zp02b5X9u6laScHJZNmcJ9nTub0j8aPpxe333HCxs38qdOnSxGMhrj7sFd6NW1DQA/LokhLjEdgDeeG09oW+N7qKgXBOn1Bj78fI0pKBg2uDMDeoeQmJLJ5ugDVGqr+eDz1cyb8wQ2l3eMgNpaPW88N56UtJNs0BjvZG+KPmAKDHQ6PR/MWUNFZTW2tir+PGMIHUP9ySso5aelOzh1Jp95P8cysE8owUE+HDx4kG3btl31Ou3t7XniiSfM0nx/fAulmzMA6mB/fBe+i22HIIuy5StjKPlpLa6PTcBr9jOX7vbr9Zx79H1KF2/C9aGx2PXtaFZOuzuNwOhvTHeDXR8Zx5m7n6Fk8aabGhg4jb2L4q9+I/8fP1JbVIbzhMFW7zBfk1o95RvisevdAaWHsaNp378L5ZsTMFTVoLC7uZN5bDsHY9vZ+LNbtiL6qoFB6bItGKpq8P36NZwmmQcyuqyz5pkNBi688jnoamm5/F84DO0NgOfbj3L2vreo3JZE6eKNuDw0xryYthp1m5bGDnPd76HcabOo2JxAZfReHEdd6ow7jhpI9aFMKnek4DRhsCm9YvteY/A1vL/V6yj4x4/UFpZQm1dEZWwKhtIKnCZGWtxBb2r9BR/OpzY3H/cX7sfz7UdN6UWfLaHg/Z8o+MeP+Hz/hlkZ56l3A8ZFv1cNDGp0nHv0ffTFZfgtfg/H0eaBf+W2JLPX+e/+QFXyMXzmvoXzvUNM6Z7v/pnsyL+Q/+Y3ON8TYTZyY/oZb9fK+B6MHYQq2N/qz/y1On78OKmpqYSHh5v+Fl00cOBA2rVrR0xMDDExMSxYsIAlS5bQp08foqKi6NatG0ql7C0ihGi6OzIwuHDhAtHR0Wzfvp28vDwcHByIiIggMjKSsLAws04sgAKY1qULs3ftYvOJE4xt1850bOmBA9goFGad7QPnznEsP58+/v6moABAqVDweng4G48f59dDh8wCg6b6fu9edHo9bw4ebBYUANjZ2DCkTRvT60qdjv8mJ9PDz49hbdtyoaLCLP/49u2Zk5DAnjNnzMo1lrOTHc5OdgA4OdqZ0n28XGkd0MIi//6Dp8jOMW772KNLa15/dhwAQwZ1JL+glL2pWeSeLyZpf6bVKT9/+/NIunVqxeABHdgae5CamlrOni8yHU9MyeBcXjEA903oz8RRxk5XB1ri5GDHq/9cBsD2XYcJDvIhNzeXnTt3XvU6HR0dLQKD+lMTlG7OOI29y2rZ4rmrwUaJ+9NT0BeY7yziPDGS8tWxVGxLtAgMnMaFm00RsevVAZsAb2qOnbpqe68n+wFd8Pr0b+S/+wOFH8yj8IN5KD1dcQjvjsv9IyymaDSHNv4A+vxiHJ+4FPA43t0X7a79VMbsw3GE9Y7sbUNXa/xfbWNxSNWmpdnr6kOZ1Jw4g12P9qagAAClEo/n76dyWxJlq3ZYBAYAHi89YAoKwPgZqdicQPXRU2aBgdPogRR9toTK6L2mjru+oITq1OPYD+xqCr4uV/rzFmrP1o0MKRR4vPEwHi8/YJGvqfWXr9kJahXuz/zJLN3tiUkU/mcp5et2Qa3ecpSkkSq27EF3+hyOowdZBAUADsMuBTaGyipKF2/EtmsIjpE90ecXm1/bqIEUf/c7VfuOYl9vncTlP+Pq4ACzkZTracWKFQBMqhtJvpyXlxeTJ09m8uTJHD16lJiYGOLi4ti9ezctWrRgyJAhDB06FB8fyylaQgjRkDsyMJg1axYFBQWEhYVx//33069fP2xtba9YZnrXrszetYtlaWmmwOBMaSk7T51iREgIPk5OpryH8ozTXHq1bGlRT08/P7M8zZV45gwAw+oFHg1JPXcOrU5Hcm4u3h9/3GC+s2Vl19Smxjp64tLd07v6mc+PjRgQxt7ULACOnci1GhhcHIVQq2xwd3UkL7/UbErS0eOX6l/42y4W/rbLajsuBifDhg1j2LBhzbuYRqraexhq9Zzq9VCDeXTnLKfp2Fq5K2/Two3aM3lWO1HFXy+nJjPHLM31kbGmO9/XwnXmOFz+NIyKLXuojEtFuzuN8tWxlK+OxWnCYHx/evua1j2UrzUGZ4539zOlOQ7vR8F7cylfu/O2Dwycxt1F8bcrOP/0x7hokrAf2BW7nh1QhwZa5K0+YpyuaNs91OKYbVfjZ7766EnLkyiVqEPMO6I2Xm4A6MsqzdLtenXApm560kWVMclgMFxxGlHQwWWg16M7k0fZr9so+HA+Nemn8fn6VVBdCnqaUn/tuQL0RaWoQwIsAgaFswPq4ACqD5xAdyoXVVvrUwivRrvvKECjtqOtPpiBoaqG6gMnyGo3pcF8uhs8da4hp06dIikpiX79+tGqVaur5u/QoQMdOnRg5syZJCYmsnnzZpYvX86GDRuYN2/ejW+wEOIP444MDAIDAykoKCAzM5Pk5GRcXV3p0qXLFYdeu/v60tnbm1VHjqDV6bBXqfg5LQ0D8EA38105yqqN89pbOFjupOJqZ4daqaS0qsriWFMU15Vv6ex81bxFWi0Ao0JDeWlgwx2CLjfpzlL9TryHq5PZMXc3R9PXZeVaq+XtbC99bE2jO5e2Waeswnq5y2kb2IP9ejNU1WCoqsHG1xOfb15rMJ+qpeX2tEonK7vxmK7ZYHGofE0s2oSDZmkOQ3pZBgaN6cBbyaNwdsBpUqRpqowuM4fcR9+nfHUsZb9sxfm+5i9CLl8fB0DZcg1lK+o9Q0GppHxDPN7XcDf5ZrAf1I2WKz6i6ItfKFmymZJ56wBQtfXH+7PnzTqshnJjJ97Gw3JOuNLVCVQ2GC7r6APGNQSqy0YkGvo8KBQ4jhxA6YL16LLOomrTkopoYyfe8WrrC5RKVK18cX9xOgZdLYX/XoB9/864PlZvZ5wm1K+vu15lA9u92rSwHtw0hb6kHKBRW5rqi415HYb1wf3pPzWY7+IWtzfb77//DjQ8WmCNXq/n6NGjJCcnk5GRARj/1gkhRFPckYHBrFmzOHnyJBqNhtjYWGJjY/Hw8CA8PJzIyEhat7Y+d3p61668pdGwLj2dyR07sjQtDYe6hb/1OdeNPuRXWv6RK6mqokavx8XOzuJYU7jVM/eThwAAIABJREFUlc8pLcXL0fGKed3tjXNka/V67m7ECMONVn+6UVGJ+bSmouJLr52dzHdlaSxHh0v1P/HgUIYM6mg1n63a+PFPS0tj61bLXZUuZ2dnx1//+tcmt0dhp0Zhp6a2sNTYObyBuwn5b2jck2EVtlf40a/rXzZmTr+qrT8t3v0zZye9SuWOlGYHBlX7jqLLNu46Vfz1covj+vxitPEHzKZ13I4chvTCYUgvqNFRlZJO2XINxT+sIvehdwlKXmjqGJsWcxdaPrBKX1IOutrrskWr0+iBlC5YT8X2vbjOHEfl9r2o27du0vQXh8heFP57ARVb9pgHBk2o/2KAe/k0uotq66byKK/hmpV1Nxkac5df6VZ3Q6JWb/x+3UZyc3OJj4+nW7duhDRit7js7Gx27NjBjh07KCgowNHRkYiICKKiogi+DX7fCyH+t9yRgQFAUFAQM2fOZMaMGSQmJrJt2zbWrFnDmjVrCAoKMq05qL/Lw8XAYFlaGj38/EjKyeG+zp1NgcBFnby9AUg+e9mCQyA5N9csT3P1DQhg1+nTaDIzLbYlvVw3X1/sbGxIOHOGgspKPK2MZFwv9RcL63R6q3k6hFyaYrVrzzHuGXXpD3PsnqOmr9uH+DWrDe3aXno/jqTn8Kfx/SzyFBSVo6ubE37u3Dni4uKuWq+jo2OzAgMAu54d0O5OozIm+bboiFy8Q2uwMiqjLzXeTW3sw7wUdXew9aUVV8nZsIvTiHwXvIPTuHCzYxUb4sh94B3K1+60GhgoXYyBsaGRI0VNzd8sahV2fTti17cjem01pQvWU5V63PS9tw0zLlatTj1uUbT6gHGR8/VY0OoQ2QuFgx2V0XtxiOiJLvs87n+7r0l1XAzYDFXVFscaW7+NrydKdxdqTp+32MXIUK6lJuMMCgc7VK2b9zMPYN+rAwCVO1Jwe/LKd9ptOweDrRrt3iPoC0sbXG9xK6xcuRK9Xs+9997bYJ6ysjJTMHBxdKBTp05Mnz6dAQMGXHVqrBBCNOT2HZe/SdRqNYMGDeLtt9/myy+/ZMqUKZSXl7Nw4UJiY80f2tTG3Z2BgYGsO3aMH/Yah8zr70Z0UVdfX9p5epKYk8O69HRTenVtLR/U1fmnTp2uqd1/7tULG4WCD2JjySgsNDtWo9ez89SlxakOKhWP9OhBSVUVL27aRO1lUw6KtFo+aUTHuDE83C5NDVqzeR/HM89x6kw+p+vm8wN079yaQH/jcH9y2klmf7mOmLgjfPLNepJSMgHw83GjT3fLZ0Y0Rv9eIbTwME6x2rH7KP/8bCUxcUdISTuFZuchPvl6PQ8/+x0nsy8AxjUGv/zyy1X/Xctc3Yt3WvNnfYu+qNT8oK6WsmVb0J3KbXb9TWXfz/j5K1m0wbwpJ3PR7tyPwt7WbPpR+ZqdlP2mgRqdWX5DZRWF/1kKGOecN1f5ul2gUFh9IJZDeA+wUVK2zvpakYtz7rV7DjXqXE3N31hVew5huDw4MhhMOxLVD7RsO7VFHRxAVfIxKjYnXMpfXUPhZ0sAcL4n4prbpLC3xWFIbyp3pFCxLRHAbIGyqe2Jh6nUJIHePJjXZZ2l4P3/Alj93jS2fjBu/2q8vqVm6UVf/IKhXGtc1HsNU8Uch/dDFehDxYY4KjZY/j6r3HHpadcKBztcp4/AUFrBhbe+Ma7XqUdfXEbxF782uy3NlZ+fz44dOwgLC6PTFf5GJCQkMG/ePAoLC5k0aRKff/457777LhERERIUCCGuyR07YmCNj48PU6dOZcqUKaSmplr9BTu9a1fis7P5ND4eTwcHRoVaLh5UAF+NHcvYxYuZtGwZkzp2xN/FhW0ZGRw4f57BrVvzSI8epvwGYH5Kiul1Uo5x8WjMyZNodcaOmL1KZfaws07e3swZPZpn16+n6zffMCksjDbu7lyoqGDD8eMMDw4mvN6UqI9HjCApJ4f5+/ezOzubUaGhOKjVHM7LY0tGBmqlkpcHXfu+/gN6h7D093jA2Cnfsds4AlD/AWdKpYI3nhtveo7Blh1pbNlxaXtWB3tb3nxugtWtShvD1lbFm3+bwKx//0alttqsHbeK8+ShVO5MoXT+ek71eQSnsXdh4+WO7kwelduTqM0rIjDm25vWHtfHJlCyeBOlCzdQlXIMu54d0JeUU7F1D4aySjz//phpagYYO4j573zPhVe/xL5/Z2z8PNEXllK5cz/6ghLUHVrj9ljznsxac+QkNemnsevR3uxO8kUKF0fs+3REm3CQqn1HLQIQp/GDsXnvRwo/XYwuJw+Vv3E0zv2ZP1mdjtOY/LW5+VRoLm1vqTtj3Cyg7Pdo0/uibu1nNoJR9NWvVGxLwiGiJ+qQANNzKqqSj+EwtDe23er9rlAo8Pr4Wc7e9xa5M4yjJCq/FlTuSKb6UCb2A7rgMn1kc95Oy+sdPZCKDXEUf/UbyhZu2Pe1nFpXdeA4F17+HBtvd9ShrbDxdqf2XAHaJOOiedvu7XD7y+Rm1w/g+cbDVGzZQ/GXvxo/c91CjdudRu/Dxssdz78/Zpa/YsseavOMNz10p84BUJ2eTemSTZfOPfYu03bBqFX4zn2Ls1PfJPeBd3AY1ge7rqEYqqqp3JWKvqSc1vsWmMq2eO8JtMnHKFu2haqkwzgO64vCwY7qo6eojN6LQq3C7dmG1x/cCKtWrUKn0111bUGrVq147bXX6Nmzp2xLKoS4riQwsEKpVNKjXse9vvu6dOGFTZvQ6fVM6dQJWxvLrQkBhgcHEzNzJv+MiWHziRNU1NTQ2s2NtwYP5s3Bg1HV+2Veq9czc9Uqizq+TUri2yRj56SFg4PFU5Cf7tuX7r6+fBYfz5aMDAorK2np4kJEUBDP9TffwcXF1pbYRx/li4QEfj54kLn79mEAAl1dmdKpE1OucQTjok7tA3j92XGs2riPk9kXzB4wVl/7YD++/vcjLF4RR1JKhvHJx66O9OrahhmTB5lGFJqrW6dWfP/Jo/y6Zg97UzM5f6EEpUKBh7sTrfxb0L9XCB1CLXeNupG8//MCjhG9KJm/jvLVsegrtKh8PbHr2QGnMYOs7l5zoyjdXWgV8y2Fn/9C2W/bKF2yCYW9LfY9O+D+8gM4DDb//DtPHQZqG+O2mAcz0GmSUKhVqNv64/T4Pbg9NRmFy5XXujSkfJ1xGpFDhPWfOQCHIb3RJhykfO1Oi8BA4WhPy5//xYXXv6L0l21Qt6jcdeY4bKwEBo3JX33kJHnPfGJRNv/Nb0xfO40PNwsMXB8ai8LBnqq9h6nckYxCZYMqyI8W//orrjPHWV7T0N4ErP2Mgk8WUalJQl9ZhSrQB/cXp+Px4v2Wi4ybyXHkAFAo0J0+Zww2rHQkHaP64P7idLS79lOTlYM26TAKWxV2XUNxuicCtycnmR6e1pz6AWz8WhC45QsK/j2fiq2JaOMPYNPCDedpw/G08uTjos+WWCyk1+7aj3bXftNrux7tsXW7tAGDXb9OBO74tu7Jx0lU7kjBxs0Z264heL5uviOYwsWRgPX/ofj7lZT9Hk3Jwg1gMKDy98JpQgTO9wzmZiouLkaj0dCmTRt69rzyzkrytGMhxI2iMBisbG0ihBBCiJtm8eLFrFq1ihdffJEBA679uSBCCNEcMgYphBBC3ELl5eVs2rQJf39/+vWz3CxBCCFuFhkxEEIIIYQQQsiIgRBCCCGEEEIWHwshrrOc0c83KX/LFR+hcLi2B/4JIYQQ4trJVCIhhBBCCCGETCUSQgghhBBCSGAghBBCCCGEQAIDIYQQQgghBBIYCCGEEEIIIZDAQAghhBBCCIEEBkIIIYQQQggkMBBCCCGEEEIggYEQQgghhBACCQyEEEIIIYQQgOpWN+B/QUpuLj2/+84s7Z9DhzIrIqJR5T+Ji+OVLVtYOnky07p0uS5tCvvyS7JLSih7883rUt/19sO+fczZvZsThYVodTqC3NzIev7565Zf3BhzF0fz86oEAN5+cSIRAzrc4hYJIYQQ4maRwKARWru58cP48YAxSPgqMfEWt6j51h47xvilS3knMpJ3hwxpMN8z69df9TrzXnkFL0dHi/QtGRk8sWYN7Vu04JVBg3BUq3Gzt2+wnqbmv5HKqqtx+fBDIoOCiH7kkVvShjtZ7rRZVGxOILhgCwCZgeOx79ORlitnW81fvjqW4m+WU5V2Agxg26ktbk9OwnnyULN855/4kLLfNKBWEZS6GBtfT9OxqsTDnBn5HI6jB+G3+D2zcsVf/Er+O9/jv/oT7MO7G9u3NZHgC5uu85VfkpSUxOzZs5kwYQIzZsy4YecRQgghLieBQSN4OjjweK9eAKw8cqTJgcH9XbsyIDCQMC+vG9G8G2pQq1a08/S0esxeZf3js/bYMQDmTZzIwMDAq56jqfmFACj+7nfy3/gahbMDTqMGgkJB+abdnP/zB+iyz+P+t/ssC9XoKJm3Do/XHrz5DW6kFStWoFarGTdu3K1uihBCiDuMBAY3QYCLCwEuLre6Gc0ys0cPU1DUWGdLSwFo6ex8Q/ILUXuugIL35qJwtCdw65eo27cGoCbjDNlDn6Lgg3k4Tx6KKtDHrJzS1YmSeWvxePF+UN9+v/5SU1M5fvw4I0eOxN3d/VY3RwghxB3m9vvLeBvIyMhAo9EQEhLC0KFDr17AiuisLIbOn2+WdrU1Br8cPMgHsbEcuXABbycnnujdmwAXFx5bvZovRo/mmX79LMoUarW8vHkzq48epay6mn4BAXw1ZgxdfC51iHZnZzPwxx/Nyr0XE8N7MTGm10/37cuXY8Y061oB/rJ2Ld/t3WuW1nbOHNPXl68ZaGp+gEqdjs/i41l64AAnCgtRK5X08ffn9fBwRoSEWG3XyeJiPtq5k00nTnCmpAR3e3t6tWzJU337Mq59e1M++/ffp6q21vQ65uRJFO9dmlbS2dubtKeeMqu7uraWrxITmZ+SQmZREXqDgQAXF6LatuXtyMhmBzq/rt7D94u2EzkoDAwQv/c4HUJa8vwTI/nqp60cPJJNcBsf3nxuAn4+bqZyFZXV/LIqgZjdRzh3vhhbWxVhoS2ZOqE/vbq1sThPdNxhlqyIJzunAF8fN2ZOu/KaGb3ewEZNKhu3p5J1+gK62lp8vd0Y2DuUaRMH4Ori0KzrbY6yVTswaKtxmTHKFBQAqIMDcLlvOCVzV1H2mwb356eZlXOZPpLib1dQtmoHzlOiblp7G2vFihXY2NgwYcIEs/TZs2fTo0cPwsPDcbQyfU8IIYS4HiQwqFNWVkZsbCwajYaTJ08C8NRlHcGm6OjtzcJJkwBYn57O0rS0K+ZfsH8/D69caZq2ZKNU8kVCAt5OTg2W0RsMjFm8mJraWu7r3Jn9586x4+RJRi9eTPqzz5qm+oR6eprakpKby6fx8UwKC+Pejh1NdXW4xmlOj/bsSXhrYwft84QEEnNy+M/IkaY1CM62tteUv6y6mqj580nMySGqbVtGt2tHaVUVK48cYdSiRfw0cSIPd+9uVmbPmTOMWrSIIq2WESEhTO3cmcqaGrZnZfH8xo1mgcFPEydSq9dTVVvL46tXE+blxVuDB5uOu1tZ8zBz1SqWHDhAH39/nuzdG4Bj+fnMS0lhaufO1zwCsmvPMXQ6PQAHDp/m2TcXUFFZDcDhYzl8t1DDOy8Zv69l5VW8+M5iMk/lmcrX6GrZm5rF3tQsnnl0OPeMujTys33XYT6Ys9r0OjungH9+tpKw0JZW22IwwAdzVhMTf8QsPTungF9z9hATf4Q578/Ay/PmjIxV7TkIgP0Ay0DbYWBXSuauQrvnkMUxx7v7Ur4xnuLvV952gcGxY8c4dOgQQ4YMwdvb2+zYuXPnmDt3LgsWLKB///5ERUXRqVMnFArFLWqtEEKIP6I7OjAwGAykpaWh0WhISEhAp9Ph4+PDlClTiIyMxNfXt9l1+zo5MaNbNwByy8quGBhU6nS8sGkT9ioVCY8/TmjdnP6/9e9Pp6++umK5YA8PFk6ahLKugzBuyRLWpaezJSOD8XUdXy9HR1Nb3O3t+TQ+nm6+vqa0K/kxOZnorCyL9FBPT7PFy/0CAugXEAAY12Ek5uQwMSyMNg1Mh2hq/te2biUpJ4dlU6ZwX+fOpvSPhg+n13ff8cLGjfypUycc1WoAavR67vvtNwq1WlZNm8aEDua762w6ccLs9f11Izll1dU8vnq12ffPmtLqapalpdHFx4fdjz+OTb0OWpFWi6HBko2n0+n59N3prN60j5j4I1RUVvOPVycTl5TORk0qR9LPmvJ+v1BjCgo6tvPnnlG9OHuuiEXL46it1fP1vK306taGVv6eGAzG3Ycu6tWtDeH92rN912EOHD5ttS0bNPtNQUHPrkHcP3Eg9nZq4pLSWbZyN+cvlPDVf7fyzsuTKCoqYsGCBY26xunTp+NVLyj1eOkBXB4cbXrt++NbKN0tg42aLOO1Xz5VqH6a7uRZi2Molbg9fg/5s76lKvkYdj3bW+apx3HsIFTB/th2bGNqn+vDzR9Zu5Lly5ejUCiYOHGixbHZs2eTkpJCTEwM8fHxxMbG4ufnx9ChQ4mMjMSzgXVAQgghRFPckYHBhQsXiI6OZvv27eTl5eHg4EBERASRkZGEhYXd9LtwW06coKCykhndupmCAoBgDw8mhoXx88GDDZadFRFhCgoA7u3YkXXp6RzOyzMFBtdid3Y2u7OzLdL7BwRccVej66lSp+O/ycn08PNjWNu2XKioMDs+vn175iQksOfMGYa0aQMYR2myioq4p0MHi6AAYGQDU48aS28woDcYsFEozN5/sD660ByuLg5069SK7LMFxMQfQalUMLBPKFXVNWzUpFJQVAaAtqqGrTuMnxEnRzv+Pes+HB2MIy42Nkr+u3QHer2BDZr9PDFjKFmn8zh/oQQAHy9X/vX6n1CplIwc0pXpT31NcUmlRVvWbE4GwM5WxT9emYy9vTEA69jen7Qj2aQdySYuKR2ttgatVsvOnTsbdY0TJkwwCwzs+nbErt5xx5EDrJbTlxnbqHS0fK8VTsY0fWmFxTEAlxmjKPhgHsXfr8Tnm1ev2D51cADq4ACz9t0IWVlZJCcnM3DgQPz9/S2O29jY0Lt3b3r37k1ZWRlxcXFER0ezdOlSfv75Z3r06EFUVBS9e/fGxsbmhrRRCCHEH98dGRjMmjWLgoICwsLCuP/+++nXrx+2l01duZkOnD8PQK+WltM4uvv5NRgY2CgUFjsGXZx6VFpdfV3a9sP48U1efHy9pZ47h1anIzk3F++PP24w39myMtPXiWfOADAsOPiGtMnNzo5hbduyLTOTQT/+yMSwMNMoiFPdqMW1UquNHTzbukWyF/9X100R0+sN1NbqyTyVR43OuD6iZ9cgU1AAEDEgjP8u3QHAseO5AJw5W2g63q9nMCqV8TmHtrYq+nQPZlus+edNp9NzIuscAFXVOsY/9JnV9ur1Bs6eL6Jtaz9++eWXa7jyRjA0f0xG6eqEy7ThlCzaSIt/PHEdG9V8K1asAGBS3ZS/K3F2dmbEiBGMGDGCnJwcoqOj2bx5M/v27eORRx5hzDWsFRJCCHFnuyMDg8DAQAoKCsjMzCQ5ORlXV1e6dOmCUnlrHgRdWlUFQAsHy8Wb1tIuslepUF3W5ov3rg3X0HG63RRptQCMCg3lpYEDG8xXf8F1cd17eiN3Olpx3338KzaWXw8e5PWtWwGws7FhRrdufD56tGla041UW6unvLzK9NrDzXxNirvbpYWqZRXG97Gy6lLQ6OZqvpDVzdXy81ZRWdXofri2qqZxGa+R0sXYbn3dNdVnKNea5bHG7fF7KPnvGkrmr8Mx8tYGvmfOnCEhIYFevXrRpm7EqzGKiorYt28fKSkpVFRUYGdnZzb6IoQQQjTVHRkYzJo1i5MnT6LRaIiNjSU2NhYPDw/Cw8OJjIykdevWV6/kOnKxM06eyK+0nMJRYCXtTnNxak6tXs/djRwBcKt7T3PqtkK9EVzt7Pjo7rv56O67OVtWxtaMDD6MjeXH5GR8nZ35V9TNWdzq5HRp8k1Rifn0maLiS6+d66bdONhdGlEoKTX/fF3+GsCh3ghECw9nvvjgoQbb4u7mSFFREfPmzWtU2x944AGLhbaNoW7Tkqp9R9Fln7c4djFNFWR9ITWAOiwIh4ielPy0Bofw7g3muxl+//13DAYD995771XzVldXk5iYSExMDKmpqej1etq1a8eTTz7JXXfdhf0tejCgEEKIP4Y7MjAACAoKYubMmcyYMYPExES2bdvGmjVrWLNmDUFBQaY1B66urmblXOs6nBU11+/OaNe6O937zloultx/7tx1Ow+ATd0Ig06vv6713kjdfH2xs7Eh4cwZCior8bzCKMpFfesWNmsyM3muf/9Gn6u5709LZ2ce7NaNYW3bEvDZZ8RYWbB9o7Rt7Y1KpUSn07MvNYtKbTUO9sbOfGzCUVO+9qF+AAS09DClJaZkoNcbUCoVpl2MLqdW2dCmlRdZpy+QX1hGWbmWtq0tO/PpGefwbuGCVqslLi6uUW2fOHFiswIDu76dKFsRjTbhIC7TR5odq9xtXOhv36/TFetwe2IiuTPeoXxNbJPPf72cP3+enTt30rlzZ9pfYU3Q4cOHiY6OZvfu3VRWVuLi4sLo0aMZNmwYgfJQQCGEENfJHRsYXKRWqxk0aBCDBg3i/PnzREdHEx0dzcKFC1EqlYwdO9Ysf7sWLQCIO21995bmGB4SgqeDA78dOsR7Q4YQ7GHsuJ0qLmblkSNXKd00PnVrEA7l5V0l5+3DQaXikR49+G7vXl7ctIkf77nHYhegufv28fKgQaa0Me3a0drNjVVHj7L66FGLBciazEyi2ra1ei4XW1vSCwqo0etRNzC9LL+ykszCQvpctlD0eEEBAC1u4l7z9nZqhkd0YYMmlfKKKl57/2cmjurN2fNFLPptFwBKpYLRUcY7421aeePj5cr5CyXkni/mvU9/Z3D/DmzbeZDConKr5xgzrDtfz9sGwBv/+oXJ4/rStrU3er2BjJPn2b7rMA72av7vnzPw87vxawyc74mg4N0fKFu+Hfenp5ieZaDLOkvZz1tArbrqdqSOowagau1H6eJNN7StV7Jq1Sr0ev1VRwvmzJlDYWEh3bt3Jyoqij59+qBq4MnjQgghRHPJX5Z6fHx8mDp1KlOmTCE1NdXqguRWrq5MDAtj5ZEjjFm8mL4BASiAKZ06mea4G4D5KSmmMkk5OYDxoVlanQ4wrg+4+LAzB5WK/4wcycMrVzJg7lwe7N4dWxsbFuzfTydvb6sjCc3V3deXVq6urDp6lMdWr6annx8qpZIuPj6m5wrU91NKCjtPnbJa16t33UWnZtztbY6PR4wgKSeH+fv3szs7m1GhoTio1RzOy2NLRgZqpdIsMFArlSybMoXRixYxcdkyRoaG0tPPD61OR8zJkxRrtRx/7jmr5xrXvj1L09IYs3gxo0NDcVSr8XRwYGq9bVLPlpbS94cf6OrjQx9/fwJcXckuKeG3Q4dQK5W8eIW1EDfCEw9GcTg9h6zTFzh8LIfDx3LMjv/1kWG08jcuVFco4LHpkXz4+RoA4hLTiUtMB6BDaEuOHrf8vN0zqjf7D51i15508gvL+H7hdos8nTsEWKTdKDZ+LfCc9Sj5b39H9t3P4DRyACgUVGxOQF9Sjuc7j1vdytSMUonbYxPIf+f7m9PoyxQWFrJ9+3ZCQ0Pp2rXrFfNOmjSJPn360KLuxoQQQghxI0hgYIVSqaRHjx4NHp87YQIOKhXr0tPZcPw4AGFeXqbAoFavZ+aqVRblvk1K4tukJMC4qLj+U5Af6t4de5WKD2Jj+WrPHrydnHi6b1+8HB15cu1a08PKrpVKqWTt9Om8smULyw8d4r/Jxm0on+7b12pgEHf6dIOjIzO6dbtpgYGLrS2xjz7KFwkJ/HzwIHP37cMABLq6MqVTJ6Z0spw2MjAwkJS//IWPdu1i0/HjaDIzcbe3p4ef3xW3Wv1yzBjsVCo2pKejycxEbzDQ2dvbLDBo5ebG3yMj2Z6Zyfr0dAq1Wlo6OzOmXTteDw+np5/fDXgXGubsZMec9x/k51W7iYk/wrm8Yuxs1XSoe/Jx78uefBwV3gmDwcCS3+PJyS3E19uNh6cO5kTWOauBgVKp4J2X7mXrjjS2xKRxPOsc5RVVuDjb4+XpQteOrYgcGHaTrtbI7ekpqPy9Kfp2OeUb4gGw7dgGtycnNfrhZS4PjqLg3/MxVFZdPfN1tmbNGnQ6XaPWFowcOfKqeYQQQohrpTD8kbav+QN6Jzqaf8TEsHHGjGvee18IcXsoLS3lqaeewtfXl48//lieYCyEEOK2cGv25xQWSqurqb0sRquqrWXJgQO42NpyV6tWt6hlQojrbd26dVRVVTFx4kQJCoQQQtw2ZMTgNvHboUM8vX4949u3p4OXF+XV1fx66BCH8vKYM2pUk3bWEUIIIYQQoqkkMLhNHMrLY5ZGQ1JODufLy1Hb2NDd15fnBwywOn9eCCGEEEKI60kCAyGEEEIIIYSsMRBCCCGEEEJIYCCEEEIIIYRAAgMhhBBCCCEEEhgIIYQQQgghkMBACCGEEEIIgQQGQgghhBBCCCQwEEIIIYQQQiCBgRBCCCGEEAIJDIQQQgghhBBIYCCEEEIIIYQAVLe6AeLK5qWkMHPVKr4YPZpn+vWzmueTuDhe2bKFpZMnM61Ll5vcQut+2LePObt3c6KwEK1OR5CbG1nPP3/d8osbY+7iaH5elQDA2y9OJGJAh1vcIiGEEELcLBIYCKueWb+erxITr5gn75VX8HJ0tEjfkpHBE2vW0L5FC14ZNAhHtRo3e/sG62lq/huprLoalw8/JDIoiOhHHrklbbiT5U6bRcXmBIILtgCQGTge+z4dablyttX85atjKf5mOVVpJ8AAtp3a4vbkJJwnD7XIe3bKG1Rqkho8t6pNS1rvW9Ds/ADFX/wM8OKtAAAgAElEQVRK/jvf47/6E+zDuxuvZ2siwRc2XfG6r0VSUhKzZ89mwoQJzJgx44adRwghxB+fBAZ/APd37cqAwEDCvLyue92DWrWinaen1WP2Kusfn7XHjgEwb+JEBgYGXvUcTc0vBEDxd7+T/8bXKJwdcBo1EBQKyjft5vyfP0CXfR73v91ntZzD0N7Y+Fp+plU+Htcl/822YsUK1Go148aNu9VNEUII8T9OAoM/gAAXFwJcXG5I3TN79ODxXr2aVOZsaSkALZ2db0h+IWrPFVDw3lwUjvYEbv0SdfvWANRknCF76FMUfDAP58lDUQX6WJR1f3YqDkMa/5luav6bKTU1lePHjzNy5Ejc3d1vdXOEEEL8j5PAwIqMjAw0Gg0hISEMHWqckhB3+jQLU1PZcfIk2SUl1NTW0tbDgz916sQrd92Fk1ptVkfYl1+SXVJC2ZtvmqWvPXaM8UuX8tbgwbwfFWV2bGlaGrN37eJwXh5ejo483qsXrdzcrLYxOiuLofPnm5e/yhqD7JIS3o2OZsPx4+SVl+Pl6MjI0FDeGzKE1g2cp7H+snYt3+3da5bWds4c09eXrxloan6ASp2Oz+LjWXrgACcKC1ErlfTx9+f18HBGhIRYbdfJ4mI+2rmTTSdOcKakBHd7e3q1bMlTffsyrn17Uz7799+nqrbW9Drm5EkU771net3Z25u0p54yq7u6tpavEhOZn5JCZlEReoOBABcXotq25e3IyGYHOr+u3sP3i7YTOSgMDBC/9zgdQlry/BMj+eqnrRw8kk1wGx/efG4Cfj6Xvm8VldX8siqBmN1HOHe+GFtbFWGhLZk6oT+9urWxOE903GGWrIgnO6cAXx83Zk6LuGK79HoDGzWpbNyeStbpC+hqa/H1dmNg71CmTRyAq4tDs663OcpW7cCgrcZlxihTUACgDg7A5b7hlMxdRdlvGtyfn3bT2nQrrFixAhsbGyZMmGCWPnv2bHr06EF4eDiOVqb7CSGEENZIYFCnrKyM2NhYNBoNJ0+eBOCpeh3BzxMS2HD8OJFBQQxr2xZbGxv2nT3LezExbMnIIHbmTJQKRbPP//3evTy5di2+Tk482acPtXo9X+zZg6eD9c5WR29vFk6aBMD69HSWpqVdsf6zZWX0nzuXnNJSRoeG0sPPj7Tz55mXksKG9HQSn3iCVq6uzW7/oz17Et7a2EH7PCGBxJwc/jNypGkNgrOt7TXlL6uuJmr+fBJzcohq25bR7dpRWlXFyiNHGLVoET9NnMjD3bubldlz5gyjFi2iSKtlREgIUzt3prKmhu1ZWTy/caNZYPDTxInU6vVU1dby+OrVhHl58dbgwabj7lbWPMxctYolBw7Qx9+fJ3v3BuBYfj7zUlKY2rnzNY+A7NpzDJ1OD8CBw6d59s0FVFRWA3D4WA7fLdTwzkvGz0BZeRUvvrOYzFN5pvI1ulr2pmaxNzWLZx4dzj2jLt313r7rMB/MWW16nZ1TwD8/W0lYaEurbTEY4IM5q4mJP2KWnp1TwK85e4iJP8Kc92fg5XljRq4uV7XnIAD2AywDYYeBXSmZuwrtnkM3pS23yrFjxzh06BBDhgzB29vb7Ni5c+eYO3cuCxYsoH///kRFRdGpUycU1/A7SgghxB/fHR0YGAwG0tLS0Gg0JCQkoNPp8PHxYcqUKURGRuLr62vK+1ZEBPMmTrSYV//Kli18EhfHmmPHuKdD83ZwKauu5uXNm3FSq8066M/170+Xr7+2WsbXyYkZ3boBkFtWdtXA4O/bt5NTWsqbgwfzr3ojFR/ExvKWRsMbW7ey6N57Lcr9mJxMdFaWRXqopyfvDhliet0vIIB+AQEArDxyhMScHCaGhdGmgekNTc3/2tatJOXksGzKFO7r3NmU/tHw4fT67jte2LiRP3XqhGPdyE2NXs99v/1GoVbLqmnTmHDZ92bTiRNmr++vG2kpq67m8dWrzd5fa0qrq1mWlkYXHx92P/44NvU6XEVaLYYGSzaeTqfn03ens3rTPmLij1BRWc0/Xp1MXFI6GzWpHEk/a8r7/UKNKSjo2M6fe0b14uy5IhYtj6O2Vs/X87bSq1sbWvl7YjAYdx+6qFe3NoT3a8/2XYc5cPi01bZs0Ow3BQU9uwZx/8SB2NupiUtKZ9nK3Zy/UMJX/93KOy9PoqioiAULFlit53LTp0/Hq97aGI+XHsDlwdGm174/voXS3TLYqMkyXru1qUIX03Qnz1ocAyj64hdKf9lqke7x/DSz0Yfm5HccOwhVsD+2HduYrsf14TFW23Gtli9fjkKhYOLEiRbHZs+eTUpKCjExMcTHxxMbG4ufnx9Dhw4lMjISzwbWDQkhhLiz3ZGBwYULF4iOjmb79u3k5eXh4OBAREQEkZGRhIWFWb2r1tXnUgekoqaGsupq9AYD/es6twnZ2c0ODDafOEFpdTUze/Qwu2vfvkULJoaF8euha7/zueLwYWxtbHhp4ECz9Of69+fDnTv5/cgRag0Gsw4uwO7sbHZnZ1vU1z8gwCwwuJEqdTr+m5xMDz8/hrVty/+zd9/xVdX348dfd2XvTQgEkgABwoawCQkgMgVEHCDOWmtbbeus+qujWuuoVsR+HdCqKEMF2YQVAhmElUWYCRkQsskeN8nNvb8/Ei653BsIYeP7+Xj4kHPO5/M573MS9LzPZ5yS2lqT4zN69uTTffvYf/Ys47t1A5p7UbLLy7mnVy+zpABgchtDj9pLbzCgb7lfF/cUWepd6AgnR1v69+lCbn4pu/ceR6lUMHJoEPUNjURGpVJaXg2Atr6RHXua36Db21nzz9fvx862ucdFpVLy3xV70OsNbIlK4akF4WSfKaaopBIALw8n3n3lPtRqJZPH9+OhZ/5DRWWdWSwbtiUBYG2l5u0X78XGpjkB693Tl7TjuaQdzyX+YDpabSNarZbY2Nh2XePMmTNNEgPrYb2xbnXcbvIIi/X01c0xKu3M77XCvnmfvqrW7BhA3a5DFvc7PTTZYmJwJeU1AZ3RBHQ2blsP622x7tXKzs4mKSmJkSNH4uvra3ZcpVIxZMgQhgwZQnV1NfHx8URHR7NixQpWrVrFwIEDiYiIYMiQIahUqusSoxBCiNvPrzIxeP311yktLSU4OJgHH3yQ0NBQrC4aunKxcq2Wt3fv5scjRzjbMlm2tcr6+g7Hc7S4+U1v/1Y9FOcN6tTpqhODgupqSuvq6OnubjY0ycHKih5ubiQVFJBdXk6gq+lKK1/PmHHFk4+vtdTCQrQ6HUkFBXh++GGb5fKrq41/PnD2LAATAgKuS0zO1tZM6N6dnVlZjFq6lFnBwcZekIvnm3SURtP8wGalUZv8W9PSa6XXG2hq0pN1uphGXfP8iEH9/I1JAcC4EcH8d8UeAE5mFABwNr/MeDx0UABqdfN3Dq2s1AwdEMDOmCMmceh0ek5lFwJQ36BjxsKPLcar1xvILyqne1cffvzxx6u48nYwdLxPptOa969oMvGVlr8R1qxZA8DsluGEl+Lg4MBdd93FXXfdRV5eHtHR0Wzbto3ExEQeffRRpk69Pj0aQgghbj+/ysTAz8+P0tJSsrKySEpKwsnJiZCQEJRKyx+C1un1TPjuOxLz87mnVy/e7tULbwcHVAoFR4uLeX7bNnR6fYfjqW5oHjduaT6BextzDDrSflttnR/XX3UVyc31VK7VAnB3UJBZj0drIa16dSparuV6rnS05v77eTcmhp+OHOGVHc1DTaxVKhb078+iKVOMw5qup6YmPTU1F35urs72JsddnC9MPK2ubb6PdfUNxn3OTqYTU52dzH9Hauvq2/0crq1vbF/Bq6R0bI5b33JNrRlqtCZl7jRnz55l3759DB48mG4tPWTtUV5eTmJiIsnJydTW1mJtbW3SWyOEEEL8KhOD119/nZycHKKiooiJiSEmJgZXV1fGjBlDWFgYXbuaDg+IzMggMT+fhQMG8O1F43mrGhqwRKFQWBxnbqm8o3Xz4InSOvMhHBcPm+mI8xN5z1lov/U5zsdxqzk/NKdJr2diO3sAnFuuJc9C78614mRtzfsTJ/L+xInkV1ezIzOT92JiWJqUhLeDg8lcjuvJ3v7Cz6280vT3pbziwrZDy7AbW+sLPQqVVaa/ExdvA9i26oFwd3Xgs38sbDMWF2c7ysvL+eabb9oV+/z5880mzraHplsn6hNPoMstMjt2fp/a3/JE6tvdL7/8gsFgYI6FOUEXa2ho4MCBA+zevZvU1FT0ej09evTgt7/9LaNHj8bmJn1IUAghxK3pV5kYAPj7+/PYY4+xYMECDhw4wM6dO9mwYQMbNmzA39/fOOfAycmJ7PJyAMb5+5u1E3f6tMX27TUaahsbqW1sNHlzfLykxKxs35YHo8NF5g85yQUFHbq+1nwcHHCztSWnvJwyrRbXVg8DNY2NpJeWYqfRtDnx92br7+2NtUrFvrNnKa2ra3OlptaGtcz9iMrK4tnhw9t9LlVLr9GV9gB1cnDg4f79mdC9O50//pjdFiZsXy/du3qiVivR6fQkpmZTp23A1qb5YT5m3wljuZ5BPgB07nRhuNiB5Ez0egNKpcK4itHFNGoV3bp4kH2mhHNl1VTXaOne1fxhPj2zEE93R7RaLfHx8e2KfdasWR1KDKyH9aF6TTTafUdwfGiyybG6hOaJ+Dahfa643VtdUVERsbGx9O3bl56tVtW62LFjx4iOjiYhIYG6ujocHR2ZMmUKEyZMwE8+IiiEEKINv9rE4DyNRsOoUaMYNWoURUVFREdHEx0dzbJly1AqlUybNo3AlhU8dmdn88SgQca6h4uKzNbiP6+3pyeH8vNZfewYD7esblNYU8PXFsrfFRiIs7U1Px45wqtjxxrH+Z88d461x4+ble+IOb17syQxkX/ExPDhpEnG/R/GxVHd0MD8fv3MJh7fKmzVah4dOJAvDx3iL1u3svSee8xWAVqSmMgLo0YZ903t0YOuzs6sO3GC9SdOmE1AjsrKIqJ7d4vncrSyIr20lEa9Hk0bw8vO1dWRVVbG0IsmfmaUlgLgfgPXjrex1jBpXAhbolKpqa3n5XdWMevuIeQXlfP9z3EAKJUKpkQ0L+farYsnXh5OFJVUUlBUwVv/+oWxw3uxM/YIZeU1Fs8xdcIA/vPNTgD++u6P3Dt9GN27eqLXG8jMKWJX3DFsbTT8++8L8PG5/nMMHO4ZR+mbX1O9ehcuv59rnASsy86netV20KhxmHtjemxupHXr1qHX6y/bW/Dpp59SVlbGgAEDiIiIYOjQoajb+FK5EEIIcZ78n6IVLy8v5s2bx9y5c0lNTTVOSJ7QvTv9vb1ZlppKYU0Nw3x9yauqYmVaGhMDAth48qRZW48MGMD3qak8uX49WzMysFGr2ZSeTn9vb5NJsgB2Gg3/mjyZJ9evZ8SSJcwODsZarWb54cP4u7gYHzbPMwDfJicbtw/m5QHNH+XS6nQA2KjVJh87ezs8nM3p6XwUH8+hvDwGderE4cJCtmdm4mVvz3sTJ1q8J/9LTia2jV6Rl0aPpk8H3vZ2xId33cXBvDy+TUkhITeXu4OCsNVoOFZczPbMTDRKpUlioFEqWTl3LlO+/55ZK1cyOSiIQT4+aHU6dufkUKHVkvHssxbPNb1nT1akpTH1hx+YEhSEnUaDm60t81otk5pfVcWwr7+mn5cXQ3196ezkRG5lJT8fPYpGqeQvl5gLcT089XAEx9LzyD5TwrGTeRw7mWdy/HePTqCLb3OCq1DAEw+F8d6iDQDEH0gn/kA6AL2COnEiw3yZz3vuHkLK0dPE7U/nXFk1Xy3bZVamb6/OZvuuF5WPO26vP865//cluRP/gP3kEaBQULttH/rKGtzeeNLiUqa3s7KyMnbt2kVQUBD9+vW7ZNnZs2czdOhQ3N3db1B0Qggh7gSSGFigVCoZOHCgcdtKpWLbww/z1x072HbqFHtycujh5sa/776b/t7eFhODiQEBfDVjBu/FxPDT0aN0d3HhjbAw/Jyc2HbRGvoATwwahL1Gwz9jY/kuJQV3Ozt+P2wY/i4uPLl+vUnZJr2ex9atM2vji4MH+eLgQaB5onHrxKCTgwP7nnySN6Kj2ZKeTszp03jY2fHIgAG8FR7e5sfN4s+cIf6M5bXtF/Tvf8MSA0crK2Ief5zP9u1j1ZEjLElMxAD4OTkxt08f5vYxHzYy0s+P5Kef5v24OLZmZBCVlYWLjQ0DfXwuudTq4qlTsVar2ZKeTlRWFnqDgb6eniaJQRdnZ/4WFsaurCw2p6dTptXSycGBqT168MqYMQzy8bkOd6FtDvbWfPrOw6xal8DuvccpLK7A2kpDr5YvHw+56MvHEWP6YDAYWP7LXvIKyvD2dOaReWM5lV1oMTFQKhW88fwcduxJY/vuNDKyC6mprcfRwQYPN0f69e5C2MjgG3S1zZx/Pxe1ryflX6ymZsteAKx6d8P5t7PvyN6CDRs2oNPp2jW3YPLkyZctI4QQQlxMYTBcxbp/QgghrruqqiqeeeYZvL29+fDDD+ULxkIIIa4LywOohRBC3DI2bdpEfX09s2bNkqRACCHEdSM9BkIIIYQQQgjpMRBCCCGEEEJIYiCEEEIIIYRAEgMhhBBCCCEEkhgIIYQQQgghkMRACCGEEEIIgSQGQgghhBBCCCQxEEIIIYQQQiCJgRBCCCGEEAJJDIQQQgghhBBIYiCEEEIIIYRAEgMhhBBCCCEEkhgIIYQQQgghkMTgjvBRfDyKt95iZVrazQ5FCCGEEELcpu74xODgwYPMmzeP77///qac/4Vt21C89RbR2dnXpbwQQgghhBDXgvpmB3C9rVmzBo1Gw/Tp0292KNfNg/36McLPj2APj5sdihBCCCGEuE3d0YlBamoqGRkZTJ48GRcXl5sdznXT2dGRzo6ONzsMIYQQQghxG1MYDAbDzQ7iSuj1epKSkoiKiuKBBx6gS5cubZZ98803OXHiBIsWLcLT09PseHJBAe/GxLAvN5fCmhrcbG3p6+nJ44MG8VC/fmblcysreTcmhs3p6eRXVeFiY0NE9+68HR5OT3d3Y7l/xsby1507L3kdP913H3P79OlQeYDo7GzCv/3WpMyKe+/lgZAQi/Wf3riRLw8dYt+TT7I9M5MliYnkVVUR4OrKuxERzOnd26xOckEBL27fTvyZM1irVMzo1Ys/jRjB4C+/5N7evfl53jyT8oU1NfwzNpZNJ09yprISO42GAFdXpgQF8XZ4uLHc8uXLUalUhIeH4+XldcnrFkIIIYQQN8Zt02NQUFDArl27iI6OpqysDLVazfz589ssf/LkSY4ePcr48eMtJgWHi4oYuXQpaqWSuX364OfkREF1NQm5uXx16JBZYpBWVETEt99SUV/PrOBgurm4cKaigjXHjrElI4P4J56gb8t5ZvTqhZ+TEwAr0tLYnJ7Oq2PH0rvVUJ/Qzp2Nf77S8gC9PT1ZNns2AJvT01nRzonHf925k4zSUu4OCqK0ro41x45x308/kfjb3zLA29tY7khxMeP+9z9qGxu5PySELk5ObDx5kgVr1lhst06nY8x//8up0lJm9OrFvL59qaiv53BhIe/s2WOSGGi1WiIjI1m9ejUhISFEREQwfPhwNBpNu65BCCGEEEJce7d0YtDQ0EBCQgJRUVEcPXoUgB49enDvvfcyevRo7O3t26y7evVqFAoFs2bNsnj8u5QUtDodq+bOZV7fvibHMsvKTLYNwIOrV9NkMJD89NMmD+yH8vMZuWQJz2/dSuSCBQD09fQ0JgnJBQVsTk9nUkAA47t1sxjLlZYH8La3Z0H//gAUVFe3OzHIq6oi5emncbGxAeDD+Hhe2r6d71JS+NdddxnLvbBtG1UNDXw/Zw7zW5Kkt8LDGfrVVxbbjcrKIqO0lN8NHcp/pk0zOXbx/Xz88ccJCwtj9+7dxMbGsmjRIuzt7Rk7diwRERF0u8R1CyGEEEKI6+OWTAwyMzOJiooiNjaW2tpaPDw8mDNnDuPGjcPX1/ey9bOzs0lKSmLkyJFtltfp9QBoVCqzYwGuribbu7OzSSsq4g+hoXja2VFSW2s85u/szAAfH6KysmhoasLKQnu3kmeHDzcmBQD39u7NS9u3c6y42LivXKtl26lTdHV25sFWQ5OsVSp+P2wYv9u0yazdK7mfAIGBgQQGBrJw4UISExOJjo5m+/btREZGEhAQQEREBGPGjMHOzu6qrlcIIYQQQrTPLZcYFBQU8MorrwAwZswYIiIi6Nu3LwqFot1trGkZ7jK7ZaiNJbODg/k0IYFH165la0gIY/39GebrazJX4Lx9Z88CsHj/fhbv399mm+fq6ujk4NDuOG+G3hetXOTZ0utS1dBg3HekuBi9wcBAHx+UF933AT4+Ftsd27UrnnZ2LN6/n9zKSiYFBDDU15dBnTqhusTPTq1WExoaSmhoKJWVlcTGxhIZGcmSJUtISUnhxRdf7OilCiGEEEKIK3DLJQY2NjZ4eHhQUlJCWloarq6uODo64u/v3676Z8+eZd++fQwePPiSQ1LG+fuz7eGH+TA+nm+Sk/ny0CEAgtzc+GL6dCZ0724sW67VAvDy6NFMDAhos003W9t2xXgzOVhZmWyff2RvPQe9qr4eAHcL12NpHzRfe/wTT/DW7t1sTk9nzbFjxv2vjxvHn0eMuGRc9fX1pKamkpycTFFREQqFol29Q0IIIYQQ4tq45RIDFxcXFi9eTGpqKlFRUWzZsoUNGzbQtWtXwsLCGDNmDK4Whqac98svv2AwGJgzZ85lzzUxIICJAQE06vUcystjRVoai/fvZ86qVWQ+95zxIfj80Bsna+tLJgZ3Ckdra6C5B+RipRb2nRfk5say2bMxACfPnWP9iRO8FxPDX7ZuJcTLi0kX3TuDwcCRI0fYs2cPCQkJaLVavLy8mDt3LuHh4bhb6L0RQgghhBDXxy2XGAAolUoGDhzIwIEDqaqqYs+ePURFRbFs2TJ++OEHQkJCCAsLY+TIkajVFy6hqKiI2NhY+vbtS8+ePdt9Po1SyQg/P0b4+VHX2MjXiYkk5ecbk4BhLW+uz68WdCVUyuaPS58fg3+ty18PfT09USoUpBQUoDcYTIYTpRQWXra+Aujl7s6Lo0bR2dGR+WvWsDs725gYFBQUEBUVRUxMDOfOnUOj0RAaGkpERAQhISFXNGxMCCGEEEJcG7dkYtCao6Mj06ZNY9q0aWRkZLBz507i4uJITU2lS5cuJsOF1q1bh16vb1dvwd7cXEK8vHBsNbTGwIUVdNxbTXod360bvT08iDtzhqVJSTwxaJBJW6fKyojJyeHRgQPNzuPVMob/aHFxu3obrrT89eBiY8NdgYFEZmSwMi3NuHRro17P/x04YLHOsZISHKys6NKy7Op5GaWlgOn9/PHHH4mNjcXf35+ZM2cyduxYHG7xuRlCCCGEEHe6Wz4xaC0oKIigoCAeeeQREhISTB4my8rK2LVrF0FBQfSz8HGyi/0rPp7IjAwmBATQw80NlVLJrqwsDuTlcVdgIINaTbJVKhSsnDuXCd99x5Pr17MsJYURfn40NDVxMC+P2NOnmdmrl8XEYGqPHry8fTt/27WLvKoq/F1cUAB3BQZaXK2nPeUNwLfJycY6B/PyANidk4NWpwPARq1u82Nn7fHRXXcRd/o0j65dy47MTPxdXFh/4oSxR+NiOzMzeS4yknH+/vTx9MTVxobUwkI2pafj6+hoXFoVIDQ0lOnTpxPwKxiWJYQQQghxu7itEoPzbGxsGD9+vMm+DRs2oNPp2tVbAPCbIUOw02jYd/YsOzMz0ahUdHdx4ZPJk3l66FCz8v29vUl++mk+iItjc3o6/05IwFajwd/ZmT+PHGny4Ntabw8PVt13H+/FxLBo3z7qWh7cf7rvPouJQXvKN+n1PLZunVndLw4e5IuDB4HmScJXkxj09fRk92OP8dL27aw6cgRrlYqZvXrxx+HDGfrVV9ioTX91JgQE8Pthw4g5fZoVhw9T39REFycnnhs+nBdHj8azVY/BiMtMRBZCCCGEEDeewtB6OZrbVFVVFc888wze3t58+OGHMkb9OtqVnU3Et9/yypgxvDdhws0ORwghhBBCXCOWx4XcZjZt2kR9fT2zZs2SpOAa0en1Jt82OO9/SUkA3B0UdKNDEkIIIYQQ19Ed0WMgrr2S2lq6fvIJU3r0YKCPD1YqFVFZWWw7dYo5vXuzet68mx2iEEIIIYS4hiQxEBbV6XT8ftMm4s+cIbeyEp1eT6CbGwv69+eFUaPQtDEJWQghhBBC3J4kMRBCCCGEEELcGXMMhBBCCCGEEFdHEgMhhBBCCCGEJAZCCCGEEEIISQyEEEIIIYQQSGIghBBCCCGEQBIDIYQQQgghBJIYCCGEEEIIIZDEQAghhBBCCIEkBkIIIYQQQggkMRBCCCGEEEIgicEN8VF8PIq33mJlWtrNDkUIIYQQQgiLJDG4zb2wbRuKt94iOjv7ZocihBBCCCFuY+qbHcCvwYP9+jHCz49gD4+bHYoQQgghhBAWSWJwA3R2dKSzo+PNDkMIIYQQQog2KQwGg+FmB3El9Ho9SUlJREVF8cADD9ClSxfjseSCAt6NiWFfbi6FNTW42drS19OTxwcN4qF+/Sy2F3/mDB/v3UvcmTOU1tXRycGB8d268ZeRI+nv7W1SNiE3l5FLl/LbIUN4c/x4Xtmxgy0ZGVTV1xPg6srfIyKYHRwMQHR2NuHffmtSf8W99/JASIjFOPw+/hidXk/0o4/y7JYtxJ05g61azZQePXh/4kR8WyUW/4yN5a87d17yPv10333M7dMHgOXLl6NSqQgPD8fLy+uS9YQQQgghxK/TbdNjUFBQwK5du4iOjqasrAy1Ws38+fONxw8XFTFy6VLUSiVz+/TBz8mJgupqEnJz+erQIYuJwRcHD/L7zZuxUauZHRyMv4sLxTU1bEpPR61UsmTmTIux1Ol0jHbzhzcAACAASURBVPvf/6ior2dM1640NjVxMC+Pfbm5xsSgt6cny2bPBmBzejor2jHxuLaxkfBvv6WXuzvPDh9OWlER36emsvfMGRJ/+1ucrK0BmNGrF35OTgCsSEtjc3o6r44dS+9WQ5VCO3c2/lmr1RIZGcnq1asJCQkhIiKC4cOHo9FoLhuTEEIIIYT4dbilE4OGhgYSEhKIiori6NGjAPTo0YN7772X0aNHY29vbyz7XUoKWp2OVXPnMq9vX5N2MsvKzNo+VlLCH7dswd3WloQnnyTA1dV4rL6pib1nzrQZ109HjjClRw++nzMHW7XaWCf93DljGW97exb07w9AQXV1uxKDqoYGZvbqxfdz5hj3vbxjBx/ExfFRfDxvh4cD0NfTk76enkBzL8nm9HQmBQQwvls3i+0+/vjjhIWFsXv3bmJjY1m0aBH29vaMHTuWiIgIurVRTwghhBBC/HrckolBZmYmUVFRxMbGUltbi4eHB3PmzGHcuHH4+vparKPT6wHQqFRmx1o/9J/31aFD6PR6Xh071uy4tUrV5kM2gFKh4D/TphmTgvN1Qq7BMJ0XR4822f7TiBF8FB/PT0ePGhODjggMDCQwMJCFCxeSmJhIdHQ027dvJzIykoCAACIiIhgzZgx2dnZXewlCCCGEEOI2dMslBgUFBbzyyisAjBkzhoiICPr27YtCobhkvdnBwXyakMCja9eyNSSEsf7+DPP1pae7u8XyB86eBWBCQMAVxzjczw/vVr0V14pSoTBLLjo5OOBhZ8fJc+fQ6fWolVe3wqxarSY0NJTQ0FAqKyuJjY0lMjKSJUuWkJKSwosvvnhV7QshhBBCiNvTLZcY2NjY4OHhQUlJCWlpabi6uuLo6Ii/v/8l643z92fbww/zYXw83yQn8+WhQwAEubnxxfTpTOje3aR8RX090PzgfaX8nZ2vuE57OFtbo7KQALnb2lJUU0NNYyPOLfMMrlZ9fT2pqakkJydTVFSEQqFoszdGCCGEEELc+W65xMDFxYXFixeTmppKVFQUW7ZsYcOGDXTt2pWwsDDGjBmDq4WhQQATAwKYGBBAo17Pobw8VqSlsXj/fuasWkXmc8/hbmtrLHv+ATuvqgqPKxw+Y2VhuNK1UFFfT5PBYJYcnKurQwHYX+VkYYPBwJEjR9izZw8JCQlotVq8vLyYO3cu4eHhuLfRuyKEEEIIIe58t1xiAKBUKhk4cCADBw6kqqqKPXv2EBUVxbJly/jhhx8ICQkhLCyMkSNHolabX4JGqWSEnx8j/Pyoa2zk68REkvLzmdhq2NCwzp2JO3OGqKwss2VJbxa9wcDhwkIG+vgY9xVUV1NSW0sPd3eLw4hULfvOz7GwpKCggKioKGJiYjh37hwajYbQ0FAiIiIICQm57DAtIYQQQghx57slE4PWHB0dmTZtGtOmTSMjI4OdO3cSFxdHamoqXbp0Ma6oszc3lxAvLxytrIx1DVxYkcj9ol6B3wwezGf79vGPmBhm9uplMgG5Ua9nX24uY7p2ve7Xd7GP4uNNViX6IC4OvcFg/CbBxbxa5jocLS42SXxa+/HHH4mNjcXf35+ZM2cyduxYHDowhEoIIYQQQty5bvnEoLWgoCCCgoJ45JFHSEhIMHm4/Vd8PJEZGUwICKCHmxsqpZJdWVkcyMvjrsBABrV6Cw/Qx9OTT6dM4Y+bN9Pv//6P2cHBdHNxoaS2li0ZGUwKCOhwYmAAvk1ONm4fzMsDYHdODlqdDgAbtdrsY2eOVlbsyMxk/DffMNzPj8T8fHZkZtLdxYWXLlqt6LypPXrw8vbt/G3XLvKqqvB3cUEB3BUYaEx2QkNDmT59OgEdmGgthBBCCCF+HW67Lx+3ZeupU/yQmsq+s2c5W1mJRqWiu4sLCwcM4OmhQ7GxMOQIIPb0aeOXj8vq6ujk6Mg4f39eHDXqkl8+/mL69DZj0en1aP7+90vG625rS8lLLxm3z3/5ePvChTy3ZQsJubnYtHz5+INJk+jc6svHF1t97BjvxcRwtLiYupbEo/WXj4UQQgghhLicOyYxuN2dTwwKXnjhZocihBBCCCF+ha5uUXwhhBBCCCHEHUESAyGEEEIIIYQkBkIIIYQQQgiZYyCEEEIIIYRAegyEEEIIIYQQSGIghBBCCCGEQBIDIYQQQgghBJIYCCGEEEIIIZDEQAghhBBCCIEkBkIIIYQQQggkMRBCCCGEEEIgiYEQQgghhBACSQyEEEIIIYQQSGIghBBCCCGEQBIDIYQQQgghBKC+2QGIK+fz0UcU1tTg6+jImT//GaVCYTz21aFD/HbjRgA+mTyZP40YcbPCFLeBLL8ZWA/sie/Gf1GfdJKzE36P66uP4vrCfIvl9aWVlH/2IzVb9qI7XQAqJdb9gnB88C4cH5oMquZ3DcXP/ouq7yMvVFQoULo4NJddOBWHOeNN2z1XQXaPuZeM1emJmXh8+McrLn/u/31Jxec/X+ZOmNYxaBvI8p12ybLdsn5B6ewAQNV3myn+0ycAeH/7BvYzxpiUzfSZitLGim7Za00badRR+e0mqn7cSePJ0+i1DWgCfHG4Jwznp2cb2z+vdvt+Kr78hfrEE+hr6lB7u6Hp1RW7iaE4LZyKwtbapHzFZz9x7o2v8F3/ETZjBlDwwOvU7jhAQMnWdt2PjigvL+cPf/gDXbp04b333rtu5xFCCHHtSWJwm9IoleRVVbErO5sJ3bsb9y8/fBgrlYqGpqabGJ24EzUezyFv9ks0FZai6dUVhznhGHRNaA8cpfi5j1H7emI7YahJHZvRA7Dq4YdB10Rjdj51e5Ko25NEfeJx3N952uwcCltr7O8ZZ/H8NsN6d6i89aBeODwwyeRY9U87oUmPw/2TQGFeR6FSmtSpXrkdwGSfQmP5P58VX601SwwsMVTVkn//a2gT0lB5umA3KRSFrTUNx3Moe/87DPUNuP3tCWP58n+vpPTtpaBRYzd+MKpOHuhLK9HuP0LdzoPYTQpFE9D5sue93jZu3EhDQwNz5sy52aEIIYS4QpIY3KbcbG3xd3Fh+eHDxsTgTGUle3JymNGrF+tPnLjJEYo7iUHbQMHCN2kqLMX97adw/sN9Jsdrt8SjdHcyq+f44KTmnoQW2rhU8ma/RMV/VuP02Aw0gaYPskoXB7z+81K742pPeYc54816KGrWx2Co1eL12fOgVplX0qhN2q3+cSfo9Zc9l9LJHm1cCg1Hs7Dq0/2SZYtfXow2IQ37e8bh9Z+XTN72NxzNovHEaeO2LreI0nf/h8rThc5bF6Hu1ulCQ3o9NZvjUTrZX/J8N0J1dTXbtm2jS5cuDB069PIVhBBC3FIkMbAgMzOTqKgoAgMDCQ8PByB48WJyKyupfvVVk7IbT55kxooVvDZ2LO9ERJgcSy4o4N2YGPbl5lJYU4ObrS19PT15fNAgHurXz+y8uZWVvBsTw+b0dPKrqnCxsSGie3feDg+np7u7WfmH+vXjjV27+M+0aVirVKw4fBhXW1vuDgoySwyyy8tZkpjI9sxMssrKqKivx9venrsCA/l/YWH4OztbvBc5FRW8HxvL1lOnOFtZiYuNDYM7deKZYcOY3rOnWXmbd96hm4sLac88w9/37GFZSgp5VVV4Ozjw2MCBvDl+vMn1vhkdzZaMDIpravCws2NyUBBvjR9P1zbiaY/X//kz+xJPMf/eURxIyiQnt4SIMX2Yftcg/rloA+fKqhk+OJAXfjcVK6vmvwJV1Vo27UjmQHIm+YXllFfUolQq8PFyYfjgQB6aMxJ7O2uzcxUWV7JqXQIHkjM5V1qNvZ01fr5uTBjbl7vD+6NWX5jGs2FbEouWbAPgqQXhdPZ1ZfmavWSdLkajVtGtiwf//vsCY/naugZ+XLeP3QnHKSyqwMpKTXBQJ+bNHM7g/t06fH86ovrnKBozcrGdMNQsKQCwmzKqXe3YjO6PzfAQtHEp1B84apYY3O4c7g2navlWKr5ai+e//9xmOV1WHtUrt6N0d8brsxfMhgBZ9eluklho9x1p7uGYPd40KQBQKrGffvkeihthy5YtaLVaZs+ejaLVEMfly5ejUqkIDw/Hy8vrJkYohBDiUiQxaFFdXU1MTAxRUVHk5OQA8Mwzz3S4vcNFRYxcuhS1UsncPn3wc3KioLqahNxcvjp0yCwxSCsqIuLbb6mor2dWcDDdXFw4U1HBmmPH2JKRQfwTT9DX09OkzgMhITy/dSubTp5kTu/e/HD4MHP79EGjNJ9THpmRwftxcYzp2pVZwcG42dqSWVbGstRUNpw8yYHf/MbsYXz/2bPc/f33lGu13BUYyLy+falrbGRXdjZ/ioy0mBic99i6daw+epSwbt0Y6uvL4aIiIjMyjIlBfnU1w5csIa+qiilBQQz08SGtqIhvkpPZkp7OgaeeoouT+RvoK7FqXQI6nR6ALVGp7N57nNq6BgB2xR2jT6/OzLp7CACZOUUsXb7brI2c3BJycktIOXqaRe88jFJ54WHnWHoer/7jR6pr6o37yitrKa+sJe14LsMHB+Lp7mgxtn1Jp0j5/sIb4YYGHcfS84zb1TX1/OWNH8g6XWzc16hr4lBqNodSs/nD45O45+7BHbktHVKzMRYAx/snXaZkO5y/hZbe1N/mlK5OONwbQfVPO3F/80mULpZ//jUb4wCwnz4ahYPt5dttKaMrOHftgr3GtFotW7Zswdvbm1GjRpkdi4yMZPXq1YSEhBAREcHw4cPRaDQ3KVohhBCW/KoTA4PBQFpaGlFRUezbtw+dToeXlxdz584lLCwMb2/vDrf9XUoKWp2OVXPnMq9vX5NjmWVlpnEAD65eTZPBQPLTT9Pbw8N47FB+PiOXLOH5rVuJXLDApJ63vT0R3buz/PBherq7k1pYyKIpU0g/Z/7wMDkoiLznn8fTzs5k/6b0dKYvX84nCQl8MvnCkI9GvZ77f/6ZMq2WdQ88wMxevUzqbT11qs1rz6mowACc+OMfTR7uD+XnG//8t127yKuq4tWxY3m3VU/LP2JieC0qir/u2MH3VzlG2d3Vkb+/fC9vfLiG/MJyrDRqPn5rPh98vonMnCKOp+fD3RfKB/h7MTm8H/2Cu+Dmak95RS1fLosi6XAOJzLySTlymkH9/Jvvj66Jdz5ZZ0wKgrp7c3d4f9xc7DmVXcT6bYmXjC3lyGncXR2YHN4PDzdHCosriIo9ajz+1bIoY1LQu4cv99w9mPzCcr5fHU9Tk57/fLODwf270cXXjSNHjrBz587L3g8bGxueeuopk33eS18zTnDVBPjivexNrHr5m9WtP5wBgHW/oMue51IaUjPQ7j8KVhpsRoSYHdeXV1P0lOUJqy7P3Y9V34CrKn8jOD81i6rlW6laFonzH817V+DK76fNiBBUHi7UrI+h+LmPcXxoMjZDexsne7fFbtoo1AG+WPXuBoDr8/NxemRq+y/mCmzbto3q6mrmz5+P8qKXE48//jhhYWHs3r2b2NhYFi1ahL29PWPHjiUiIoJu3bpdl5iEEEJcmV9lYlBSUkJ0dDS7du2iuLgYW1tbxo0bR1hYGMHBwSZd4B2l0ze/qdaozN+KBri6mmzvzs4mraiIP4SG4mlnR0ltrfGYv7MzA3x8iMrKoqGpCauL2nuoXz+e3rgRL3t7/JycGOfvbzEx6O7iYvxzQ1MTFfX1NOn1DPD2RqlQsC8316T85vR0ssvLuadXL7OkAGByYGCb167V6fh48mSzN/5DOl0YArHm2DGsVCqeHznSpMyzw4fzXmwsvxw/TpPBgOoqfhY9A33o3tWT3j18yS8sp7u/J4HdvOjT05fMnCJKy6uNZfv07MyXHz5m3DYYwMXJjtlThpJ0uLkH6XhGnjEx2HfoFEUllQD4+3nw2bsLjcOGxo7oxb3Th2Ft1fZfLxdnO7744DFcnC8kagvmjgZAW9/Ijj1HALC3s+afr9+Pna0VACqVkv+u2INeb2BLVApPLQinoKCA2NjYy94POzs7s8TAbvKFVauUzg7YTxttsW7TueZrbT2PQJdTQPmnK43bav9OuDx3v0m9qhXbqT94DEOTHt3ZYup2J6JQq/D85M+o/cyHlBjq6qn+OcpiDI7zJsJFD/pXWv5GsOofhM3wvlQsWYfz7+8FCz14TaXN91PlZvp3pOSlxaDTGbc9PvgjqFUonR3w/u4Nin73PlXLtlC1bAsKW2tshvXBfuZYHOffjcLa/O27JqCzyYRkawsTuK+FhoYGNm7ciJubG2FhYRbLBAYGEhgYyMKFC0lMTCQ6Oprt27cTGRlJQEAAERERjBkzBruLXl4IIYS4cX6VicHrr79OaWkpwcHBPPjgg4SGhmJlZXVNzzE7OJhPExJ4dO1atoaEMNbfn2G+vhbnCuw7exaAxfv3s3j//jbbPFdXRycH0+UL5/Tuze82beKLgwf5y8iRtPUYrTcY+Gz/fpYkJnK0uBi9wWByvLK+3mT7QEtMEwKu/MFKo1Ryd1Dbb0ILqqspraujp7s7bramwygcrKzo4eZGUkEB2eXlBF6URF1RHC1DVc7PI7BqWUVG0/LvhgadSfmf1u9nT8JxTp89Zxxy1Fp55YWE7cSpC70fUycMMJlLAODoYHPJ2MJGBpskBQA2LQ92WaeLadQ1ryo1qJ+/MSkAGDcimP+u2APAyYwCACZMmMCECRMueb5rpXXS3FRURuU3m4zb1kOCzRIDbVwK2rgU47aqsyc+y97EeqDlYWiqTu74H1lp8di1KH+jOD81m8In3qE2MgG7qRbmX5z/+3dR4lv53WZoaDRuu//jGRQtv8c2I0LoevBb6mJTqNuThHbfEer2HqZuTxIVX/6C76aPUXm4cDNERUVRXl7Oo48+ilp96f+tqNVqQkNDCQ0NpbKyktjYWCIjI1myZAkpKSm8+OKLNyhqIYQQF/tVJgZ+fn6UlpaSlZVFUlISTk5OhISEmHV/X41x/v5se/hhPoyP55vkZL48dAiAIDc3vpg+3WSJ0XKtFoCXR49m4iUexC9+iAZwsrZmes+e/Hz0qMUJzef9KTKSz/bvZ5CPD59Mnoy/iwvWLb0PM1asMPZwnFfRkihcnIi0h5+T0yXf9Fc3ND90u1u4HgCPljeGVRclK9daU9OFa/7bh6s5mJx1yfLn5ysAVNdojX/2aGMewaV4uLVdp6bVnAVXZ9OVZlonE9W1Wm4UlZsTTQXnaCqtROnePBfFelhvAkq303S2mJx+D1ms57n4BRwfmoyhrp663YkUPfMh+fe9it+u/1jsMbhT2M8Yg6qTOxVfrbWYGKha7uH5noPzAgo2A3B68EJ02flm9VApsQ0bhG3YIAD0lTWUvPw51au2U/rWEjw/e+EaX8nl6XQ61q9fj5OT0xUlqPX19aSmppKcnExRUREKhQJfX9/rGKkQQojL+VUmBq+//jo5OTlERUURExNDTEwMrq6ujBkzhrCwMLp27WpWR6FQYLDQVlWD+Zvl8yYGBDAxIIBGvZ5DeXmsSEtj8f79zFm1isznnjM+GLvYNL9ddrK2vmRi0JYf77uPJr0edRuJTblWy/8dPEhPd3fin3gCm1Zv9Ipra82SAgBn6+ZVUvKqqq44nouHO13MoaV35lxdncXj54dSOVqbrwJ0PWRkFRqTArVayV9+O4VhgwJwcrAl4VAGb3y4xqxO6xWKSkqv/B6pLpGE2ttfaLt1LwVAecWFbQe75t+btLQ0duzYcdlzWltb87vf/e5KQ22u2y+Q2oJzNBzJRNOjyxXXV9haY3f3SDz//WcKH32bkpcW47P87Q7FcltQq3B6bAZl//iGxuM5ZoetQgLh5ygajmRe1WmUTvZ4fvInqn/eSd2e5Ktqq6NiYmIoKSnhwQcfxPoyf2cNBgNHjhxhz549JCQkoNVqjfO6wsPDcbfQoyqEEOLG+VUmBgD+/v489thjLFiwgAMHDrBz5042bNjAhg0b8Pf3N845cGoZJ2+v0VDb2EhtYyN2rVbSOF5SctlzaZRKRvj5McLPj7rGRr5OTCQpP9+YBAxreUu2OT2dV8eOveJrUUCbSQE0Lwuq0+sJ7dzZJCkAiDt92mKdYZ2bxyVHZWXx7PDhVxzTpfg4OOBma0tOeTllWi2uNheG3dQ0NpJeWoqdRkM3lxszLKLo3IW3tj0DOjEp7MKk2JOnCizW6RV4Yb5EZFQq90wejKrVRNCa2no0apVxGNOV6N7VE7VaiU6nJzE1mzptA7Y2zclUzL4Ly9D2DPIBoLCwkPj4+Mu2a2dn1+HEwG7KKGq376d6TTT2syyPIW8P+5ljsR7am9rIvWgT0ixOQL5TOD0yjbKPfqBiyTqzY/ZTR1H65tfUbI7H/d3fWZwf0F4KpQJUKvRVtZcvfI3p9XrWrl2LnZ0dk1stXnCxgoIC44uYc+fOodFoCA0NJSIigpCQkGsyr0sIIcTV+9UmBudpNBpGjRrFqFGjKCoqIjo6mujoaJYtW4ZSqWTatGkA9Pb05FB+PquPHePh/v0BKKyp4euWIUIX25ubS4iXF46t5i4YuLAikXurCXbju3Wjt4cHcWfOsDQpiScGDTJp61RZGTE5OTw6cGCHrrG7qysKICE3l/qmJuMQoor6el6Lsjxxc2qPHnR1dmbdiROsP3HCbAJyVFYWEd0v/QGnS5nTuzdLEhP5R0wMH066sATmh3FxVDc0ML9fv6uaeHwlvFpNqM3JLSEzp4huXTw5lJrF2kjLP98RQ4LwcHOkpLSKrNPF/PG175gSMQAXJzsyTxezZWcKn/1jYZvLlV6KjbWGSeNC2BKVSk1tPS+/s4pZdw8hv6ic739uXuZSqVQwJWIAcGPmGDjOm0D5pyup2RhL1XebcVx4YWUbfX3bvWaWuL4wn4IHXqf03W/w3fDRNY701qHydMFh9niqVm4HnemXyDVBfjjMGU/1mmhKnv8Uz4+fA6uW5KBJb1a+8eRpajbH4/ToNNMlUA0Gyj5eAQ2NWI8dcL0vyUxCQgL5+fnMmTPnkpOGf/zxR2JjY/H392fmzJmMHTsWhw4MUxRCCHF9/eoTg9a8vLyYN28ec+fOJTU11WRC8iMDBvB9aipPrl/P1owMbNRqNqWn09/bm/zqarO2/hUfT2RGBhMCAujh5oZKqWRXVhYH8vK4KzCQQT4+xrJKhYKVc+cy4bvveHL9epalpDDCz4+GpiYO5uURe/o0M3v16nBiYK/R8NSQIXx56BBDvvyS6T17otXp+PnoUfp4epJRWmpWR6NUsnLuXKZ8/z2zVq5kclAQg3x80Op07M7JoUKrJePZZzsUD8Db4eFsTk/no/h4DuXlMahTJw4XFrI9MxMve3vemzixw21fqaDu3vTv04XUo2eoqa3nty/+D6VSgV5vwMnR8jwIjUbFa3+ayWvv/URtXQPpmYWkZ267ZjE99XAEx9LzyD5TwrGTeRw7mWdy/HePTqCLr9s1O9/lKOxs8Fn2JnmzX6b4T59QsWQ91gN7YKjVUrurOXnSBPq1qy27u4Zj1S8QbVwKddGJ2I6/8D0GfXk1Rc98YLGeVZAfLn8xnctwpeXbrVFH0XMftzpR83C71ufy/OhZFHaXnmTu/NQsqldtt3jM41/P0ZidT9XyrdRGH8J29ABQKak/cBRdbhHqrj7Gicf6Gi2lby+l9J/fYRPaB023Thi0DdQnnaDx1FkUDra4/+3Jjl3rVfjll1+wsrJi6tRLL4EaGhrK9OnTCejAUEkhhBA3jiQGFiiVSgZe9BA+MSCAr2bM4L2YGH46epTuLi68ERaGn5MT2yys6f+bIUOw02jYd/YsOzMz0ahUdHdx4ZPJk3l66FCz8v29vUl++mk+iItjc3o6/05IwFajwd/ZmT+PHMmCll6Kjlo0ZQp+Tk58l5LCvxMS8HZw4KF+/XgrPBzXf/7TYp2Rfn4kP/0078fFsTUjg6isLFxsbBjo42PyBeOO6OTgwL4nn+SN6Gi2pKcTc/o0HnZ2PDJgAG+Fh1/1x82u1N9fnsvKtQnsSThOUUklTo62hI0Ipl+fLrz10S8W64QE+/HFB4+xcl0CB5OzKC2vxs7Wms6dXJkwpq/ZxOEr4WBvzafvPMyqdQns3nucwuIKrK009Gr58vGQG/zlY2geF98l7mvKF62iNjKBqh93orBSY903AMeHp+D4QPs/fub6wgIKH3mL0nf/R+dWiYGhrp7qlZYfpG2G9zV70L/S8u1laNJbbLf1Po/3nmlzFbDzrAf1xHpob+oPHjM7pnR2wHfTJ1QuXU/1z1HUbI4DXROagM64vrwQ59/NMX4EzirYH68vXqZmy14a0k5Rn3gCQ6MOdWdPHBdOxfW5+1F3v7ETdw8ePEhOTg7Tpk0zDrlsy4gRIy55XAghxK1BYTAYLM2pFUIIIdr02muvkZWVxeLFi3Fzu3G9V0IIIa6fa7c+pxBCiF+Fw4cPk56ezvjx4yUpEEKIO4j0GAghhBBCCCGkx0AIIYQQQgghiYEQQgghhBACSQyEEEIIIYQQSGIghBBCCCGEQBIDIYQQQgghBJIYCCGEEEIIIZDEQAghhBBCCIEkBkIIIYQQQggkMRBCCCGEEEIgiYEQQgghhBACSQyEEEIIIYQQSGIghBBCCCGEANQ3O4DbQXJBAYO+/NJk39/Dw3l93Lh21f8oPp4Xt29nxb338kBIyDWJKXjxYnIrK6l+9dVr0p4Qt4uCogoe/sMXZvsjxvThr8/OuAkRCSGEEHcG6TFoh67Oznw9YwZfz5jB74cNu9nhXJWNJ0+ieOst3oyOvtmhAPDB55uYNO99Js17n7Tjubdd+1cqy28GedOfB6A+6SSZbpMo++gHy4UbdZR/uoozI58g02cq2QFzKHjgdeqTT5oVzen7AJluk8gd85TZsfJ/ryTTbRIV/7fG7FjBA6+T6TbJJL78WS918OrElar47Ccy3SahjU0BWn4eHpPNyulOF5DpNsn0H8/J5PR5gMLH36EhJd2sPCih6gAAIABJREFUTuET75DpNomadXsuG4e+oppMt0lkB86xePx0//lkuk2iqbDUuK/kxc/MY7roH/25CpN2jL/z//zO9PoT0i4bY0eVl5ezYMEC/vrXv163cwghxJ1Cegzawc3WlicHDwZg7fHjfH7gwBXVf7BfP0b4+RHs4XE9whN3qMLH36FmUxxqPy8c74ugqbic2h0HqI1OxPeX97EZ2c+sTsPRLLRxqdiM7n8TIr4xPNwcWfrJkwBk5hTx7r/X3+SIbhyFox2O94YDoNc2oMvOp2btbmo2xeG75v2b8nO3Du2DJqCzxWMKa6sbHI25jRs30tDQwJw5lpMeIYQQF0hicAN0dnSks6PjzQ5D3EZqN8dTsykOqz7d6bx1EQp7GwBq1u6m8PF3KP7zv+mydwkoFCb1lE72VHz1yx2dGKjVSrp2dgegpqb+JkdzY6ncnfH4+E8m+yq+Wsu5Vz6nfNEqfG7Cz93pock4Lpx6w8/bHtXV1Wzbto0uXbowdOjQmx2OEELc8iQxsCAzM5OoqCgCAwMJDw/vUBvR2dmEf/utyb7LzTH48cgR/hETw/GSEjzt7XlqyBA6OzryxPr1fDZlCn8IDTWrU6bV8sK2baw/cYLqhgZCO3fm86lTCfHyMpZJyM1l5NKlJvXe2r2bt3bvNm7/ftgwFk+9uv+5HzuZx6r1CaRnFlJaXo29nTWe7k6EBPux8L4xODo0P9yujTzE5//dYVb/z3+7MKRGqVSwdeWFIS2nc88RGZ1K0uEcSkqrqKyqw9bGiq6d3ZkUFsL0SYOMz8gdaR+gpraen9bvZ0/CcQqKKlC1PIBOHNuXmZMHo1LduJF3VSu3A+Dy7DxjUgBgPysMqw+/p+FYNvWHjmM9tLdJPceHJlPx1Vp0uUWo/by42bTaRlZvPsCevSc4m1+KSqXEx8uF0cN6MHPyYFyc7YxlDQbYEpXC5p0p5JwpwWAw4O/nwd0R/Zk2cSBKpeISZ7q8jrR/328+o7yiFhtrDSu++D1Ll0cTdyCd6motri72PPFQGBFj+lxVXFfLtqXnSFdw7qbGcSvasmULWq2W2bNno2iVRC9fvhyVSkV4eDheXjf/74kQQtwqJDFoUV1dTUxMDFFRUeTk5ADwzDPPdLi93p6eLJs9G4DN6emsSLv0GNrvUlJ4ZO1a47AllVLJZ/v24Wlv32YdvcHA1B9+oLGpifv79iWlsJA9OTlM+eEH0v/4R2zUzT/eIDc3YyzJBQX8a+9eZgcHM6f3hYfKXlc5zGl/Uib/7/2f0esNxn0VlXVUVNaRkVXI1AkDjIlBR0THH+On9ftN9tXU1nMsPY9j6XnkF5bz1MMdS+IAKqvq+PPffuD02QsPV426Jk6eKuDkqQL2J2Xyzitzb1hyoN1/BACbEeaJpM3IfjQcy0a7/6hZYuD0xEwqvvyFyv9uwO1vT9yQWNtSVa3lL2/8QPaZEpP9mTlFZOYU4evjysRxfY37P/h8Izv2HDEpezKzgJOZBaQcOc1rf7rn4g6SK3I17RsMBl79x48cS88z7isqqSS/sLzjAV0jtTubhzZa9w+6yZHcWrRaLVu2bMHb25tRo0aZHYuMjGT16tWEhIQQERHB8OHD0Wg0NylaIYS4NfyqEwODwUBaWhpRUVHs27cPnU6Hl5cXc+fOJSwsDG9v7w637W1vz4L+zd36BdXVl0wM6nQ6/rx1KzZqNfuefJIgNzcAnhs+nD6ff37JegGuriybPRtlyxPN9OXL2ZSezvbMTGb07AmAh52dMRYXGxv+tXcv/b29jfuuhV+2HESvN6BUKnjj+dmEBPtRWVVH1uliNu1INnlbN3FsCIP7dQNg6fLdxB9onjj512dnENS9+Z4rLnpCUygVhA4KYPzo3vQK6IS9vTVnzpbywecbKT5XxdrIQzx832hsbaw61P7n/9thTApmTRlC+OjeNDQ08fPG/exLPMXBlCw2bEti1pQhHDlyhJ07d172ntjY2PDUU6aTgb2XvobS2QEATYAv3svexKqXv0kZQ109TUVlAKh9Pc3aPd8T0Jidb3ZM4++D3eQRVH67CdeXHkZhc+kx3q7Pz8fx4Smm8blcm2Fvi5ZsMyYFLk523Dt9GL4+rpScq2LTjmSTsjtjjhgf2l1d7Fl43xiUCgXf/RTLubJqdu89ztAB3bk7omO/s1fbfn2DjmPpeYwcGsTgft1obGxqnsze8mv03//+l+rq6svGMW7cOAYOHGjctps2CnWAL1a9uzXH9vx8nB5pu+dOX1rJub/+BwBDfQMNx3PQJqRhM7wvbq891p5bcc1Vfh9JXcvk6dY0AZ1xfWXhRftafud7dAFaXf9FfweuhW3btlFdXc38+fNRKk0T+scff5ywsDB2795NbGwsixYtwt7enrFjxxIREUG3bt2ueTxCCHE7+FUmBiUlJURHR7Nr1y6Ki4uxtbVl3LhxhIWFERwcbPbQeL1tP3WK0ro6FvTvb0wKAAJcXZkVHMyqI0farPv6uHHGpABgTu/ebEpP51hxsTExuBHq63VA8xAd5//P3p3HRVXuDxz/zMbAAMO+iCgqLrgvKG4oApqWa2WWZV5tsb1ut9tudet2W7z1a7Nuda1cKrNyxyUXBMEFRFREQFAQRFbZZ9iZ+f0xMjAyIJti1+f9evmSOec5z/megYHne57lqFWoba1Q21rh6eHIpHEDTMraWCuxsVYCYK1SGre7OquNY8evdt/ccSgUMuNrnU6PvVpFwHgffg85Rk1NHWkZ+Qzq373N9ZdpKgk7nAjAsEE9eGrpVOO+gf09mPuXT6ir0xEamcC8233JyckhMjLymu+JSqVqkhiopo8zfi21s8F65sQmx+k0FQBIlAqQy5rsl14ZWqQrKzd7Xrtl8yjffQTNxgPYPtB0hZvGlGMGomz0unF8HVFSWkH4EcN7qpDL+PxfD9LNzd64f+6MUZRpKo2vQ/Y2JApvPD+XoQMNDcdePZ15bvmPAGzfe6LdiUFn1L/4Hn8evKfh+3XPHD8qq2oAiI6OprCwsLlDjby9vU0SA0Wf7iYTd5VjBpo7zEhXqqXkm80m2xR9PbF98HZk7uY/O9dbVUwiVTGJTbYrfX2aJAZX/8xfff2dpbq6mpCQEBwdHQkICDBbxtvbG29vbxYvXkxsbCxhYWHs3buX3bt306dPH4KCgvD390elUpk9XhAE4X/RLZkYLF++nMLCQnx8fFi4cCF+fn5YWHTd6hmn8/IAGNWtW5N9w93dm00MZBIJ/RolEoBx6FFZdXUnR9ky32G9OJ14kdpaHX9940d6ejoxcogXY0d5M2porw4PwSnVVPDrtihiTqWRnVtMTU1dkzLFpeYbytdyLi3XOAQqLuEi0xZ8aLZcZrah4RccHExwcHC7ztUqen1HdmM1ZRSKAT0p+XbzNROD6yUlNccY55gRfUySAgCZTGoyv+DseUPvh9rWythoBxjUvztODjYUFGmM36f2zDXojPrnzhjVZJul0jD05Ouvmz5X4XqQ9+pGz1jDUp/68kpqzl+i8IO15D/9ETXnMrtk+JjLp8/fdJOPQ0NDKS4uZsmSJcjlLf+Zk8vl+Pn54efnR2lpKZGRkezevZtVq1Zx6tQpXnzxxRsUtSAIQte7JZ9j4OnpCUBaWhonTpwgKSkJnU7XZfGUVRlWVnGysmqyz9y2epZyOfKrusjrmzT6a7UeO9mCuWOZO6Nhgm5GZgFbd8fy2nu/8eQra8gvKGt33aVlFTz16ho27YghI7PAbFIAUFvbvu+hRlt57UJgvDt8vUltDQ1mfVUN1Da9Vn15pUk5c+wenUf16fPXdX34lmjKG95TZ6eWhybV1NQZv6f26qbXVJ9A6HR6KirbnvB2Rv0KhQy1bfOfxa4gUVliMdQbt++XI/d0pXjlb9Rlt3MCcmt7SW9wb2p71NbWsm3bNtRqdZsS+KqqKuLi4jh58iR5eXlIJBI8PDyuY6SCIAg3n1u2xyA9PZ3Q0FAiIiKIiIjAwcEBf39/AgIC6Nmz5w2Nx1ZpGMxRUFHRZF+hmW03I4VcxtMPTWPpfZM5HneB04kXORJzjtz8ElLT8/jvjwd47bk57ap7b3g8BYWG8dtuLna89NRMvHu5orJS8vWa/WzaGdOh2FWNhhv5j+3Pk0ummi1X3yaKj49n376mqx5dTalU8sQTT7Q5HomVEpmrA3V5RdRm5SPv6W6yvzbT0MOk6NW0h6me7b3TKHznO0q+3dIlk1IbD+G6XNhyUqhQyFAoZNTU1Jnt9SkuMWyTSiVYXTVnQtLo7n5zyXBH6q8nk7Z8D2XVqlWtmmMQEBDAyJEjr1muLSRKBcoR/akNiaQq/jyqbm0fUiRRtO5PgUR580/OjYiI4PLlyyxcuBClUtliWb1ez5kzZzh48CBHjx6lsrLSOM8sMDAQJ6euGZ4lCILQVW7JxADAy8uLpUuXsmjRIo4dO8b+/fvZvn0727dvx8vLyzjnQK1WmxynvvKHprym8+4eD72yXF5sdtPJpKdyczvtPNDQwKnt5B6S+iEY1iolk8cNYPK4ASx7MJAlz35L3uVSEpKzzB7XeIhRc3f88wpKjV8H+Q9i2KCGoSDJqTktxtWa+r17NSxXmHw+B1sbS+MQkXo1NXVcyinC2dGW3NxcDh8+3OJ5wTDHoD2JAYDlmEFodxyiMuoMNlclBvW9AJZ+zS+TKbG2NCxd+t8tyJztmy13vfTr445EYhj2dOxkKjl5Jbi72hn363R6SjUVxjv4A7y7EZ+USWlZBfFJmQzxMfTqJaZkUVBkaHD37e3WZJiPqlFD/nJh8w3z9tbfWjExMa2aY9CvX79OTwwAdGVawxc1te06XmKlRKKyRF9RBTodXJUI6crKQS5rsZfqZqDT6diyZQsqlYrp05sfRpeTk2O8MVRQUIBCocDPz4+goCCGDBlyw+eZCYIg3Cxu2cSgnkKhYMKECUyYMIG8vDzCwsIICwtj3bp1SKVSZs6caVK+35U7SIcvXuy0GKZ5e+NoZcXvCQm8PWUKfRwcAMgoKWFLUlKnnQfA9cochIT8/E6t99Nvd1NbqyNo0iB693TBQiEnMSWL0isTaa9uaNdzsGtYjnX7nlhsrJVYWMiRSCT08DDMn3B1akjOjselcffMMVhaKtj2R6xhZZgWtKZ+e7WKiX79OBSdQt7lUv721k/Mne6Lq4vasCRqchb7I84wPXAoS++bfP3nGAA2905Fu+MQxZ9twPqOiQ0PONsWQXVCGor+PVH6+rRYh92jcyn5ZjOaX6/du9HZ7NUq/McOIOLoWWpq6njm9bXMn+WHh5s9+QVl7Ak/zfxZfsblSmdNG2H8Xv7z/7aweIE/EomEdb8dMtY5a1rTBnU3d3tjb0B80kV27jvFoAHdkUolqKwscHa07VD9rXWj5hiYU3UymYoj8SCVohw54NoHNMNyzEAqwk+g+T0UmwUNvWba7ZHoSjRYjh3cJGG42Rw9epTs7GzuuuuuFicN//rrr0RGRuLl5cWcOXOYNGkSNjY2NzBSQRCEm9Mtnxg05urqyoIFC5g/fz5xcXFmJyT3UKuZ5+PDlqQk7vjpJ8Z0744EmD9okPGhYnpgzcmGVVBisgx3y8PT06msNdzRs5TLjQ87s5LL+WT6dP6yZQvjVq3iweHDsZDJWHvqFINcXMz2JLTXcDc3eqjVbD17loe3bWOkuztyqZQhrq74d2AIVVV1LaGRCew9aH5M+8ypw81uH+frzfrNRwA4ePQsB4+eBUwfQBY8aTDrtxyhpLSC5PM5zH/kc+PdaLWtFaVlzQ+3ak39AM89Mp0LFy9zKbuIlNRcPvrPzja+A53LepY/qhnjKd99hIvjH8YqYCR1l0so3xsNFgpcPvnrNcd7y3t7oJrmR/meqBsUtalnH76NCxn5XMwqpLiknFU/hTVbNnjSYGJOpbHv4BkKi7V8+u0fJvsDxvswI7DpikEKuYxpk4ewc/8p9Hr45Nvdxn0TRvfj7Zfu6lD9N5u6ghIu/+1TAHSV1dRm5lF5+DTodDi89CAyM8OISlZtQ/vHUbP1qRffYXxWhuPyh8iKeoG8J1ZQtmEf8p5u1GbmURF6HCwUOL7xkNk6Sn/+g4pm5rI4PHsvCp/OX4q0OZs3b8bCwoI7rvGwRj8/P2bNmkWfPn1uUGSCIAh/DiIxMEMqlZosKXi1VXPmYCWXsyMlhV3nzgHg4+xsTAzqdDqWbt3a5LivY2L4OsYwHt7JysrkKciLhw/HUi7nvYgIvoyOxsXamqfGjMFZpeKxkBDjw8o6Si6VEnL//by4dy8bExL4/sQJwPDk444kBjOChmGpVBiHZmi0lVgqFfTxcuWO4OFMCzD/xOdB/bvzyjOz2Lo7lvTMy5RXNJ38aW+nYuV7f2H1hgjiEjIoKtHi4ebA7NtGUlisNTb821s/GNa2/+qDJWzZdZzI6LNkZhVRU1uLnVqFu4sdvsN7E+w/2Oyx14v76jco/vJ3yn7ZS9lvoUitlKimjsHh5cUoR7ZuKVq7R+d1WWJgb6fii/cWs2lHDAePJpGVW4xMKsXNRc340f0YPby3SfmXnprF0IE92LHvpOHJxICXpxO3Bw1n5tQRzeZBTy2diqWlgoNHzlJQVNbsqk3trf9moi8rp3T1DsMLmRSZoxpV8GjUS2aiun2C2WMqDzV9xkA9K//hxsRA6etDjyPfUfjBWipCj1ERfgKZoxqbuwNxeGVxs8uKVkUnUBWdYHaf7YKpNywxiImJIT09nZkzZzYZAnq1ceM6Z1leQRCE/zUS/Y1evkZok7fCwngnPJzdixYx3du7q8MRBEG4Kb3++uukpaWxcuVKHK9axlkQBEFonZt7wOgtpKy6mrqrcrSqujp+Pn0aWwsLJvbo0cyRgiAIt7bTp0+TkpLClClTRFIgCILQAaLH4Cbxe0ICT+3cyez+/Rng7Iy2uprfEhJIyM/nsxkzeHbs2K4OURAEQRAEQfgfJhKDm0RCfj7LQ0OJycoiT6tFIZMx3M2Nv44bx/xBzS9LKQiCIAiCIAidQSQGgiAIgiAIgiCIOQaCIAiCIAiCIIjEQBAEQRAEQRAERGIgCIIgCIIgCAIiMRAEQRAEQRAEAZEYCIIgCIIgCIKASAwEQRAEQRAEQUAkBoIgCIIgCIIgIBIDQRAEQRAEQRAQiYEgCIIgCIIgCIC8qwMQ/ves+imMDVujAHjjb/OYPG5AF0fUNsdOpvLae78BMGf6KJ55eFoXRyQIgiAIgnD9icSgFU7m5DDym29Mtv0zMJDlkydf93OvPnmSpVu38sXtt/O0n991P58gCIIgCIJwaxJDiVqhp50d/509m//Ons1TY8Z0dThCG6z4cgfTFnzItAUfEp+U2dXhXHdpnrPJmvUCAFUnkkl1nEbRRz81KZc+4B5SHaehKyhpsq/w7VWkOk6j5IvfzJ5DuyWcVMdppDpOo+znP8yW0RWUGMsY/7nOIH3wfeQueYeq6IR2l9dsCiPVcZrxOs3JvvsVQ3w/mcaXc99yUh0beoDSPGeTPe+lZuvpDDExMSxYsIAff/zxup5HEARBEDpK9Bi0gqOVFY+MGgXAlqQkvjx2rIsjurnNCBzG8ME9Aejby62Lo2m7/n268d5r9wDg5mzXxdHcfLQhkchcHZBYKNBuj8T2/unNlpWoLLFdEAyATltJVVwK2m0RaLdH4rb6Taxn+7e5vM1dUyhbu5OKgyfQbj2I9VzTnrvy3UeoOHAcpd8gbO+/rZOvvu02bdqEQqFg1qxZXR2KIAiCILRIJAZCp/P0cMTTw7Grw2g3O7UVY0b06eowbk7VNWj3RmMzyx+JUkHZ+j3oNRVIbKzMFpfaWeP8f39t2KDXU/T+Goo++omC1//TJDFobXnnFU9z0X8ZBW9+i2r6OCSWFobyNbUULP8GpFJcPnoWJJJOvfy2iouL49y5c0yfPh17e/sujUUQBEEQrkUkBmakpqYSGhqKt7c3gYGB7a4ns7SUf0VEsDMlheyyMuwtLQnq3Zt3AgPp7+TUpPz6+HhWHDpEYn4+zioVj4waRQ+7zrljnZFZwO6wOE6cTudyYRmlZRVYWVrQs7sT0wKGMGvaSJM21GMv/kBqeh4A61Y+zhff7SEu4SJKpZwZgcN4aGEAUmnDAQcOJfLeZ9uanNfc5OPlH/xOVOx5Hrh7AsdOpJKeeZkg/0HMum0kH3y+nYIiDWNHefP3J+7AwkLe5vi37D7Ol9/vaxLL8282DKmRSiX88UvDEJLCYi33LlvZ5JiWJh+XV1Tz69Yowo8mkZtXgoWFHJ++3VgwZyyjhvUyKfvV6v1s3hkDwLuvzOfYyVRCIxOoqalj9PDePP/YDNS25hvXN5PysFj0ZeVYBY9BolRQunoH5fuisZ4X0LoKJBLs/3Y/RZ+spzYzj7rcQmRuLSSRzZRX9O+J/VPzKf5sAyVf/Y793+4HoOSbzdSkXsLu8buwGOLdCVfcMZs2bUImkzFnzhyT7StWrGDEiBH4+/ujUqm6KDpBEARBMCUSgys0Gg0RERGEhoaSnp4OwJNPPtnu+uLz8ghas4aSqirm+fjQy96eiyUlbEpMZNe5cxx++GEGu7gYy397/DiPhYTgZm3NY6NHU6fT8UV0NI5WndNYDDucyG/bok22acurSEzJIjEli+zcYpY9aD4JenPFRtIy8gGorKphw9YoPLs5MiNoWIdi2rD1KLW1OgB2hcYRfiSJ8opqwJBoDBrQnXkzfDsc//Wg0Vbxt7d+Mr4vADW1dRyPu8DxuAs8/dA05s4YZfbY734ONzkuMjoZS0sFLz998w810YZEglSKKtAXiVwGchnakMjWJwb19G08sZnyDn9fRNnvoRR9st4wnEkuo+ijn5C5OeLwyuI2nqDzJScnk5CQwJQpU3Bp9FkHyM3NZdWqVaxdu5axY8cSFBTEoEGDkHRxD4cgCIJwa7ulEwO9Xk98fDyhoaFERUVRW1uLq6sr8+fPJyAgADe39o2P1wMLN26kTq/n5OOPM9DZ2bjveHY241et4oU//mD3okUAaKqr+fuePVgrFBxbtoweajUAz44dy5CvvurwdQJIpBL8RvZhysSBDOjTDWtrJRcvFbLiyxDyC8rYsvs4D94zEav6IRmN1NXpePXZ2ZyMT2dXaBwAf4SdNkkMxo7y5rtPHgFgY8gxdu4/dc2YnBxs+efLd/PWvzeRnVuMhULO/739ACu+3EFqeh5JKdkwo+3xT500hFFDewGGRvjhYykAvPrsbPr2NnxPr26A2atVxvjjkzL55JvdLcb+7bpQY+N+YD8P5s4YRXZuMT9uPExdnY6vVu9j1LBe9DAzpConr4RnH7mNyqoaVv0Uhk6nJzQygeeXzcDCQs6ZM2fYv3//Nd8/S0tLli1bZrLN7bvXkdrZAKDo44Hbun9gMcCr2TryX/gMiYXCZFtV/Hnzhet0aHcdQek7AKmDrSGGsUPQ7olCX1WDRKkwf9xVij/9BXQ65J6uLfcWXKO8xNoS5389Qe6Sdyh45zskSgW6Ui2uHz+HVG1tti6HFx7A9sHbja/dvnsdqb1tq+Juq40bNyKRSJg3b16TfStWrODkyZOEh4dz5MgRIiIicHd3JzAwkICAABwd/7xD8QRBEIQ/r1syMbh8+TJhYWEcOHCA/Px8rKysmDx5MgEBAfj4+HT4rl34hQvE5+XxtJ8fLioVl8vLjfu87OwY7u5OaFoa1XV1WMhk7Dl/nrLqapaOGGFMCgD6Ozkxz8eH3xISzJ2mTe6bOw6FQmZ8rdPpsVerCBjvw+8hx6ipqSMtI59B/bs3Ofa5R6czbFAPJo0bwL6IM9TU1JGdV2xSRmVlGNYDYGtj2aqY+nu707unCwP7eZCdW0xvLxe8e7kyqL8Hqel5FBZr2hW/jbUSG2slANYqpfEYV2e1McarSaUS477c/KYr9TRWWVXDvoNnjPV/sPxeVFaGhEomk/L9+oPodHp2hZ5i2aKmvRj3zPFj9m0jAYg+cZ6T8RnodHryC8vo7u5ATk4OkZGR13z/VCpVk8RANX1cwzXZ2WA9c2KLdWi3RVzzPPUqj5xGV1CCallDQ1c1dQyVh05RER6L6raxTY7RlWi5/LdPDV+XV1EVl0JNUjpIJDj987EOl7eeMwmroNFoftkLEglWk0dic3fzPUfKMQNRNnrd+P3qTBcuXODEiROMHz8eDw+PJvtlMhm+vr74+vqi0Wg4fPgwYWFhrF+/ng0bNjBixAiCgoLw9fVFJpOZOYMgCIIgdL5bMjFYvnw5hYWF+Pj4sHDhQvz8/LCwaHqnvL2iLl0CYGV0NCujo5stV1BRQTcbGxLyDXeeh5npoRjZrVunJAalmgp+3RZFzKk0snOLqampa1KmuLTczJEY77Ir5DLs1SryC8rQlld1OCaF3NDgqZ9HYKEw/K+48n91dW2nxN/Z0jLyqak1nH/kUC9jUgAweZwP368/CEDyuRyzxzdeqcnZseFudf17GhwcTHBwcKfHbU6vlN+ROpnOYyl8exXFn21oUlYbYkhWVFMbnqehmuZH4dur0IZEmk0M9OWVlK7eYXghkyJztsd6lj92T96N5bghHS4P4Pzh01wcswT0epz//UxrLvu627RpEwB33nnnNcva2Nhw2223cdttt5GVlUVYWBh79uwhNjaWJUuWcMcdd1zvcAVBEAQBuEUTA09PTwoLC0lLS+PEiROo1WqGDBmCVNo5j3UorqwE4OWJE5nap/nVbernD2iqq01eN+bUCXMMSssqeOrVNRQUalosVz/e/2pKi4YfE2NvSlvHiLdDXZ0hno7G39m02oakyMHOdMiKvV3DRFJNeaXZ482+n3BD3tOO0O48DIBmYyiaTQcadkilaHcdwaVOBzLTz5CsmxNeZ35p9TnaWh5A4d0dpFLQ6VD069GmY6+HS5cuERUVxahRo+jVq1erjysuLiY2NpaTJ09SXl6OUqnEudE7fF0MAAAgAElEQVQwREEQBEG43m7JxGD58uWkp6cTGhpKREQEERERODg44O/vT0BAAD179uxQ/faWhqE0aqWyxcSgnq3SMLihsKKiyb7Gw5Daa294vLFR7eZix0tPzcS7lysqKyVfr9nPpiur5dysbrb4ra0bBqNc3UtRXNLw2kbVuiFVV4uPj2ffvqarKl1NqVTyxBNPtOscbVUVe5baTMMqVSVfbWyyX1dQQuWR01j6D78h8dzMNm/ejF6v56677rpm2erqao4dO0Z4eDhxcXHodDr69evHY489xsSJE7G0bN/PkCAIgiC0xy2ZGAB4eXmxdOlSFi1axLFjx9i/fz/bt29n+/bteHl5GeccqBuN+QdDYx+gvKam2brHXBlTvDMlhdcmTbpmLPWrE53Oy2uy72SO+eEobZFXUGr8Osh/EMMGNdxVTU7teP3XW0filzW6g91ZPQq9e7ogl0uprdURG3eBispq46TtiKizxnL9+7q3q/7c3FwOHz58zXIqleqGJQb1w4jc1r6F9SzTZw+U7zpMzgNvoQ2JvOUTg7y8PCIjIxk8eDD9+/dvtlxiYiJhYWEcPXqUiooKbG1tuf322wkODsbT0/MGRiwIgiAIDW7ZxKCeQqFgwoQJTJgwgby8PMLCwggLC2PdunVIpVJmzpxpUr7flecPHL54sdk6p/TqxUBnZw5dvMh3J07w8MiRJvvPFxURkZ7OkhEjALjN2xs7pZJfz5zhtUmT8HZwACC5oIAtSUkdvkZXp4bk5nhcGnfPHIOlpYJtf8QSn5TZ4frr6nRcyikyvi7TNAyhKSgsI+NSAQBymQwP97Y/5Kkj8Tce6rN9Tyw21kosLORIJBKTFYOyc4uN8wbyC8qM2zXaSmP8AB5uDlgqFUybPIRdoXFoy6t4+d0NzJvhS3ZeMT/+fggwTGa+Pah9jeQbOcegtbQ7Dhkm95pp+Fv5jwCZFM2OQzh98FQXRHfz2Lp1Kzqd7pq9BZ999hlFRUUMHz6coKAgRo8ejVx+y/86FgRBELqY+EvUiKurKwsWLGD+/PnExcWZnZDcQ61mno8PW5KSuOOnnxjTvTsSYP6gQQxxdQVAKpHwy/z5BK9dyyPbtrHu1CnGeXpSXVdHTFYWkRkZzBkwwJgYqBQKPp4+nUe2bWPcqlXc6eODUi7n59On8bK351xhYYeuK3jSYNZvOUJJaQXJ53OY/8jnSCSg14Pa1orSsqZDmNqisFjLw8+vMrvvq9UNy266Oqv56au23+HuSPzjfL1Zv/kIAAePnuXgUcMd/asfcPbyuxvIzi1ucnxoZAKhkQ2Tv9etfBx3VzuWPRhEYkoWFy5eJjE5i8TkLJPjnlgSbHap0j+jmqR0alIuohzR3+zSnhJbFZajB1IZdYaq2LMoRw0wU8v/vqKiIg4cOEDfvn0ZOnRoi2XvvPNORo8ejZOZBx0KgiAIQlcRiYEZUqmUEVca7easmjMHK7mcHSkp7Dp3DgAfZ2djYgCGFYZOPv44Kw4dYmdKCp8ePYqVQoGXnR3Pjx/PomGmDwd7eORIrBUKPoiMZO2pUzipVDw1Zgxe9vY8sq3pE4Xbwt5Oxcr3/sLqDRHEJWRQVKLFw82B2beNpLBYa2w436w6Ev+g/t155ZlZbN0dS3rmZeMD1DrKxlrJZ+8+yIatRwk/kkRufglKCwUDrjz52PeqJx//mWl3GIYRWU1u/jNhNcWXyqgzaEMib9nEYPv27dTW1rZqbsH06dNvQESCIAiC0DYSvV5/k6+FIgiCcHMrKyvjySefxM3NjX//+9/iCcaCIAjCn1LnrM8pCIJwC9uxYwdVVVXMmzdPJAWCIAjCn5boMRAEQRAEQRAEQfQYCIIgCIIgCIIgEgNBEARBEARBEBCJgSAIgiAIgiAIiMRAEARBEARBEAREYiAIgiAIgiAIAiIxEARBEARBEAQBkRgIgiAIgiAIgoBIDARBEARBEARBQCQGgiAIgiAIgiAgEgNBEARBEARBEBCJgSAIgiAIgiAIgLyrAxAEoWsdO5nKa+/9BsCc6aN45uFpXRyRIAiCIAhdQfQYCF0uJisLydtv83hISFeHIgiCIAiCcMsSPQZ/UkO++ooz+fnN7h/s4kL8k0/ewIgMQpKTmb1+PW8FBPCPKVNu+PlvdX+Eneajr3YCsOTeSTxw94Qujuj6yrlvOeV7ouhTuBeANM/ZWI4eSLctK0zK5T78LtrN4bj98AbWcyeb7KvYd4zsBa+hum0s7r+82+Qc2i3h5D5k2O6y8u/Y3j/dbCwXJzxCTVJ6wwaJBKm9DRaD+6B+8HZs7gluV/najBwujnsYidKCnsfXIHVUNzl38f/9TOG7P2Bz7zRc//OScXvJF79R8Na3eGz7CEv/4Yb3a98x+lz+w+w1dIbi4mKefvppevTowfvvv3/dziMIgiB0PpEY/MndNXAgthYWTbZ7qps2Hm5WPs7ORCxdSjdb264O5ZbUv0833nvtHgDcnO26OJqbjzYkEpmrAxILBdrtkc0mBvVs7g5EaqtCX1NLTWoWlZGnqIw8RdWJZJzee6LN5eU93bF/fiFF76+h8P01OP/7GZPj63IKKPpkPVK1NU7vLOvUa2+PkJAQqqurueuuu7o6FEEQBKGNRGLwJ/fh1Kn0dXTs6jA6xMbCAv+ePbs6jFuWndqKMSP6dHUYN6fqGrR7o7GZ5Y9EqaBs/R70mgokNlbNHuLw6l9Q9OlufF2xP4bse1+n5OtN2D06F3lvjzaXt3/2Xsp+2UvpDyGoH5qNxcBexvIF73yHXluJ04qnkbnYd961t4NGo2HPnj306NGD0aNHd2ksgiAIQtuJxMCM1NRUQkND8fb2JjAw0Lg9s7SUf0VEsDMlheyyMuwtLQnq3Zt3AgPp7+RkLPfEjh18HRPDvsWLCe7du0n903/8kT3nz3Pu2WfxdnAA4PDFi6yLi+NgejqZpaXU1NXR28GBewYN4sWJE7FWKNp9PZ8ePcrzf/zBu0FBfHv8OCWVlSyfPJnh7u48um0bmupqnhwzhncaXWv99f4jLIxd586Rr9XirFIxvW9f3p4yhZ52DXeWj2ZmMv6770yOfTs8nLfDw42vnxozhpV33GFSRvL22yavH/P15etZs5q9jtbGA/B4SAjfHD9O1COPsDc1lVWxsWSVldHHwYF/BQVx18CBrXvzWqAtr+K3bdEcPJpETl4JMrmUnt2dmDppMHOmj0ImM0zh+W1bNN/+eICACT6ghyPHzzHAuxt/XTadL3/Yx5mkTPr0cuW1Z+fg7tpwHeUV1fy6NYrwo0nk5pVgYSHHp283FswZy6hhvYzl0jLyWfb375vEt3pDBKs3RBhff/LOAwzx8QSgsFjLvctWNjmmpcnHej3sCj3Fzv2nSL94Gb1ej5enMzOChjFz6gikUomx7KHoFP7x0SYA7r9rPE4ONvy6LZrCIg3evVx57tHp9O3t1oZ3u2uUh8WiLyvHKngMEqWC0tU7KN8XjfW8gFbXYRU8GssxA6mMOkNl7FlsrkoMWlNeolTgsuIZsu95lYLX/0O3TR8CUHUiGc0ve7EY1hf1Q7M7dK2dYdeuXVRWVnLnnXcikTT8PPz888/IZDICAwNxdXXtwggFQRCElojE4AqNRkNERAShoaGkpxvG/T7ZaIx+fF4eQWvWUFJVxTwfH3rZ23OxpIRNiYnsOneOww8/zGAXFwDuHzqUr2Ni+CU+vklicLm8nNC0NMZ5ehqTAoDPo6LYde4cAV5eBPfujYVMRmx2Nm+Hh7M3NZWIpUuRNvpD2x7fHj/OgsGD+fn0aV7etw93GxsWDB5M+IUL/PPgQWYPGMAYD0OjJVujYeyqVWSVlXF7376McHcnPi+P1SdPsislhWPLltHjynClvo6OrLvzTgBO5uTw8ZEj3OnjY9L4HuDs3CSe+mPSiot588CBFmNvSzyNvbp/P+cKC5nRty+FFRVsSkzknt9+I/axxxju1v6GaWlZBc+/+RMZlwqM22pq60g+n0Py+RyiT6Ty7ivzjckBwKHoZGprdQCcTrzIM6+tpbyiGoDE5Cy+WRfKWy8Y3hONtoq/vfUTaRn5JvUfj7vA8bgLPP3QNObOGNXu+NtjxZch7Dt4xmRbcmoOyak5nDqTwet/nYu5H9EjMedMriPpXDZvf7yZNZ8/ZpJM3Iy0IZEglaIK9EUil4FchjYksk2JAYBer+9weavg0VjP8kcbEkn57iOoZozn8qtfgkSCy8fPgbRr15KorKxk165duLm5MWHChCb7du/ezcaNGxkyZAhBQUGMHTsWRQdueAiCIAid75ZODPR6PfHx8YSGhhIVFUVtbS2urq7Mnz+fgIAA3K40HPXAwo0bqdPrOfn44wxs1Mg9np3N+FWreOGPP9i9aBEA/j170tPOjk2JiXw1cyaKRn+wf0tIoFan4/6hQ01ieX3yZFbPm4el3PRb8uLevXx0+DDbk5OZO2BAk2v4+5492JiZYzB7wADuHTzYZNu7QUE8OGwY3g4OPLFjB/cMGsQn06cTdekS41at4vDFi8bE4M0DB8gqK+O1SZP4V1CQsY73IiJ4PTSUV/ft48crY4idVSoWDRsGgL2lJR8fOcIwNzfjtubU74/JyrpmYtCWeBrLKivj1OOPY29pCcC/Dx/mpb17WXvqFB/fdluL52zJlz/sMyYF8273JXDiQKqr6/g9JJqo2PPEnEpj+54TzLvd13hMba2Oj/9xP9v+iCX8SBLlFdW889LdHI5JYXdoHEkp2cay364LNTamB/bzYO6MUWTnFvPjxsPU1en4avU+Rg3rRQ8PRzw9HPnuk0cAQ/Lx/fqDANx5x2hmTRthrNPNpaE3wl6tMh4Tn5TJJ9/sbvF690ecMSYFDvbWLL7HH6lEwtrfIiko0hB+JInRw3szI6jp9zwtI58Fc8bSu6cL//3xAIXFWnLySjh1JoORQ70oLi5m7dq1rXrf77//fpwbff4cXngA2wdvb7jG715Hat/8XJWSbzaj3XHIZFtdbqH5wnU6tLuOoPQdgNTBUKfl2CFo90Shr6pBomxdo7biwHGqYpIMx49q+hluS3mn956gfP8xCpZ/Q11RGVXRCaiXzETp62O2LtXMCcj7eBiHHjm88ADqv9xhtmxH7dmzB41GwwMPPID0qiTloYceIiAggPDwcCIjI/n888+xtrZm0qRJBAUF0atXr+sSkyAIgtA2t2RicPnyZcLCwjhw4AD5+flYWVkxefJkAgIC8PHxMekCBwi/cIH4vDye9vPDRaXicnm5cZ+XnR3D3d0JTUujuq4OC5kMCXDfkCGsOHSIPefPM7NfP2P59adPI5NImjTahzbqXi+vqUFTXY1Or2dsd8PY46jMTLOJwdazZ81eo6da3eQcvewN44/rh930udJjUX+nPbuszFh2U2IiFjIZL4wfb1LHs2PH8n5kJJuTkqjT65F1sBejtdobz7NjxxqTAoC7Bw7kpb17SWxhRadrKdNUEnY4EYBhg3rw1NKpxn0D+3sw9y+fUFenIzQywSQxUNtaMWxQDzKzCwk/koRUKmH86L5UVdewOzSOwmINAJVVNcZGuLVKyQfL70VlZUj+ZDIp368/iE6nZ1foKZYtCkQhl9Gzu2EoW6KDjfF8drZWxu1Xk0olxn25+SXXvOaQvSeNX7/x/FyGDuwBQK+ezjy3/EcAtu89YTYxGD64J48umgJATl4xa36NBCA7r5iReFFZWUlkZOQ1YwCYM2eOSWKgHDMQZaP9qunjWjy+8mh8q84DUHnkNLqCElTL5jXUP3UMlYdOUREei+q2sWaPK3p/TcNk4rRsKg/HAaB+dF6T+QVtLS/3dMXhxUUUvvMd+c9+jNRRjeMbDzd7DYo+3U3mLyjHdHwInTnV1dWEhITg6OhIQID53hRvb2+8vb1ZvHgxsbGxhIWFsXfvXnbv3k2fPn0ICgrC398flUp1XWIUBEEQru2WTAyWL19OYWEhPj4+LFy4ED8/PyzM3HWvF3XpEgAro6NZGR3dbLmCigq62RgaZvcPHcqKQ4f4JT7emBhcKisjMiOD27y9cbW2Njm2uLKSd8LD+fXMGS41aqDXK62qMnvOlGeeafXk4/reiPr/ra5049e/rqitBSBHo6GwooL+Tk44WplOsrSxsKCfoyMncnK4UFxsMhzqeulIPAOvGsLkcuV9L6uubnc859Jy0ekMQz3iEi4ybcGHZstlZpveiVYoZABYKOQm/yuuvP86nZ66Oh1pGfnU1NYBMHKolzEpAJg8zsfYI5B8Lqfd19BWZ88bejPUtlbGpABgUP/uODnYUFCkMb4vVw8PajyXwNmx4W6+ttzwM+3u7s6vv/56PcM3amm50qtpQwzJimqqn3GbapofhW+vQhsS2WxioNnY0PsltbPBcuJw1IumY7NgaqeUt3/ybkpX76A2IwfH15caezO6UmhoKMXFxSxZsgS5vOU/K3K5HD8/P/z8/CgtLSUyMpLdu3ezatUqTp06xYsvvniDohYEQRCudksmBp6enhQWFpKWlsaJEydQq9UMGTKkSfd3veLKSgBenjiRqX2aX72lcaN1uJsbg11c2JqURGVtLZZyORvi49EDD1w1xKZWpyN47Vpis7OZO2AA7wwYgJuNDTKJhIT8fF7Ys4dana7D113fXKufq3D167or59BcaTQ7WZlfecX5yh29smaSlc7WkXiuHmZVf81tHfNtEo+2slXlKqtq2lx3XZ0OrbbhOhzsTBNIe7uGu6ma8tbF0VE1NXXU1BgSFXt107u59nYqCoo06HR6KiqrsVYpTfYrLRp+zUgaJw3t/xbcENqdhwHQbAxFs6nRUDepFO2uI7jU6UDW9HdGj5jVJnfpr6Wt5bFQoOjVjdqMHCz69bh2+eustraWbdu2oVarCQ4OvvYBV1RVVREXF8fJkyfJy8tDIpHg4dHyxGxBEATh+rolE4Ply5eTnp5OaGgoERERRERE4ODggL+/PwEBAfS8aunM+qEoaqWyxcTgavcPHcrroaHsSEnh7oEDWR8fj5Vczp0+puOBd587R2x2NouHD2fNvHkm+zpyZ7u96hvTBRUVZvfXD6WyVSrN7v9fj0fVqOHrP7Y/Ty4xf2e3vaOsrK0b6i8uLTfZV1zS8NpGZcmNoFDIUChk1NTUNYmncUxSqQQry+Z73ppTXFzM6tWrW1X2gQcewOXKJP/rqSr2LLWZeQCUfLWxyX5dQQmVR05j6T/8usdys4uIiODy5cssXLgQ5TU+g3q9njNnznDw4EGOHj1KZWWlcV5XYGAgTk7mh74JgiAIN8YtmRgAeHl5sXTpUhYtWsSxY8fYv38/27dvZ/v27Xh5eRnnHKjVauOE3J0pKbw2aVKrz1GfGPwSH88Id3disrK4d/DgJnexLxQXAzDZy6tJHYcyMjpwle3jbmODo5UV6cXFFFVW4tBojL62poaUwkJUCoVxzkJjsiu9Lp3Rw9EZ8VwP3r0a5oMkn8/B1sYSy6smotbU1HEpp8hk6Exr9e7pglwupbZWR2zcBSoqq40N7oiohjkl/fu6NzlW1qjXq7au874HA7y7EZ+USWlZBfFJmcZlTxNTsigoMsyN6NvbrV2rDFVWVnL48OFWlZ03b94NSQzqhxG5rX0L61n+JvvKdx0m54G30IZE3vKJgU6nY8uWLahUKqZPb/7Bbzk5OcYbMQUFBSgUCvz8/AgKCmLIkCFN5nUJgiAIXeOWTQzqKRQKJkyYwIQJE8jLyyMsLIywsDDWrVuHVCpl5syZTOnVi4HOzhy6eJHvTpzg4ZEjTeo4X1RERHo6S0aMMNney96e8Z6e7EhONo59v3o1IgDvK3MEwi9cMKn7dF4e3xw/3tmX3Cp3DRzIqthY3ouI4N/TGta1//ehQ2iqq3lg6FCzE4/r504kdGByb2fGcz3Yq1VM9OvHoegU8i6X8re3fmLudF9cXdRoy6tITM5if8QZpgcOZel9k69d4VUslQqmTR7CrtA4tOVVvPzuBubN8CU7r5gffzesqCOVSrg9qGmj1MG+YehRxNGz+A7rhdrWMATLzcXOOKwnO7fYOI8hv6BhTotGW2myBKuHmwNyuZRZ00YQn5QJwD//bwuLF/gjkUhY91vDCj+zppl+LlrrRs4xaC3tjkMgkWBlpuFv5T8CZFI0Ow7h9MFTXRDdzePo0aNkZ2dz1113tThp+NdffyUyMhIvLy/mzJnDpEmTsLGxaba8IAiC0DVu+cSgMVdXVxYsWMD8+fOJi4szTkiWSiT8Mn8+wWvX8si2baw7dYpxnp5U19URk5VFZEYGcwYMaJIYgCEROJKZycdHjuBoZcWMvn2blAnu3Zthbm6si4sjV6tljIcHWWVl/BIfz9Q+fQhJTm425pf37cO2mYnT38+d2+5nH7wTGMjOlBQ+OnyY41lZjOzWjdO5uexNTcXV2pr3p5ofPjPczY0eajVbz57l4W3bGOnujlwqZYirq8nTjXedO0euxnCnub7H5GxBAatPNqx+M8/HxziMq73xXC/PPTKdCxcvcym7iJTUXD76z85OrX/Zg0EkpmRx4eJlEpOzSEzOMtn/xJJgeng0nXQ+uH93bG0sKdNUkp55meff/Mm4r/EDzl5+dwPZucVNjg+NTCA0MsH4et3Kx3F3tSN40mBiTqWx7+AZCou1fPrtHybHBYz3YUZgy8vT/lnUJKVTk3IR5Yj+Zpc+ldiqsBxteABZVexZlK1YgvR/1ebNm7GwsOCOO1peAtXPz49Zs2bRpw1DMQVBEIQbTyQGZkilUkZc1cgf5ubGyccfZ8WhQ+xMSeHTo0exUijwsrPj+fHjm12z/94hQ3j+jz+o1emYP2gQFjJZkzIWMhl7HnyQV/ftY8/58xxMT6efoyOfzpjBMDe3FhODTYmJze5bNWdOuxODbjY2RD3yCG+FhbErJYWIjAycVSr+Mnw4bwcGmn2YGIBcKiXk/vt5ce9eNiYk8P2JE4DhyceNE4N/HTzIoYsXTY4Nu3CBsAsXjK9He3gYE4P2xnO9ONhb89UHS9iy6ziR0WfJzCqiprYWO7UKdxc7fIf3Jth/8LUraoaNtZLP3n2QDVuPEn4kidz8EpQWCgZcefKxb6MnHzdmaang/dcWsPa3SM6ez6ZMU2lcQamjXnpqFkMH9mDHvpOGJx8DXp5O3B40nJlTR7R7TsXNRrvDMIzIanLTRL+e1RRfKqPOoA2JvGUTg5iYGNLT05k5cybqa3z+xo1reRlZQRAE4eYg0XdkeRZBEAThlvT666+TlpbGypUrcWzlksmCIAjCzc38+pyCIAiC0IzTp0+TkpLClClTRFIgCILwP0T0GAiCIAiCIAiCIHoMBEEQBEEQBEEQiYEgCIIgCIIgCIjEQBAEQRAEQRAERGIgCIIgCIIgCAIiMRAEQRAEQRAEAZEYCIIgCIIgCIKASAwEQRAEQRAEQUAkBoIgCIIgCIIgIBIDQRAEQRAEQRAQiYEgCIIgCIIgCIjEQBAEQRAEQRAERGIgCIIgCIIgCAIg7+oAhJatPnmSpVu38sXtt/O0n5/ZMh8dPsyLe/ey/u67uW/IkBscoSBcW859yynfE4VX4gZkbo5dHY7QQdXVtcxc9DEAfbxc+ebfS1ssv+LLHewNj2+yffXny+ju7nBdYryWJ19ZTUpqLgCbf/grNtbKLolDEAThZiJ6DAThJpbmOZusWS8AUHUimVTHaRR99FMXR3VryQx8klTHaV0dhlHBG9+Q6jiNyshT1yxb8sVvJmVz7ltOqvP06x2i0EhrPsP1P2Ot+afdehCAjFGLTfe5TCd98H3kPvQuVbFnm8SROekxUh2nUZ2Q1mRf3pMrSHWchmbjAeM27daDrY6lrdfb2dasWcOCBQuIjY29rucRhFuB6DH4H7Bw6FDGeXri4+zc1aEIgllO/3gU+7/eh8xR3dWhCF3g4fsDuG/eOAA++WY38UmZXRzRzcV6xngsBvYyvtYVllK+JwqZsz1WU8eYlJX3dDd5bTM/CKmNFbryKqrjz6PdEo52WwRua97EeubEDscm93LHcvxQ8/uuiqUrlJaWsm/fPnr16sWoUaO6OhxB+NMTicH/gO62tnS3te3qMAShWQofLxRdHYTQZZwcbHBysAHAUil+Eq7m8PKDJq+rTiRTvicKhXd3XL96qcVjHZcvNWmgF3+ynsJ/fs/ll1difccEkEg6FJvlmEHXjKEr7dy5k6qqKu66666uDkUQ/ieIxMCM1NRUQkND8fb2JjAwEIDDFy+yLi6Og+npZJaWUlNXR28HB+4ZNIgXJ07EWmH6x85n5UoyS0vRvPaayfaQ5GRmr1/P65Mm8W5QkMm+9fHxrDh0iMT8fJxVKh4ZNYoednZmYwy7cIHANWtMj7/GHIPM0lL+ERbGrnPnyNdqcVapmN63L29PmULPZs7TFonJWWzYdpSU1FwKizVYq5S4OKkZ4uPJ4nv8sbWxNCmfnVvMTxsPE3MqjeLScuxsrRg1rBeL7p5I926m447nLfkUbXkVtjaWbPr+OeP2aQs+BKCbmz1rv3jM5Jh3P91K+OEkAL54bzFxCRns3HeK3Msl2KgsCZ48mMcXm34PcvNL2bD1KMdOplJQaLgGTw9HgicNZkbgMOTyhtF32vIqftsWzcGjSeTklSCTS+nZ3YmpkwYzZ/ooZLIbM1Kv+vR5MgMeR/3QbKpOnKU68QLWMyfi8OpfyFv2PtVn01FN8cX1m1eQqAzfA315JaWrd1C+N4rqlIvU5RcjtVVhOXog9n+9D8tx5n+Oij/9hcJ3vsP1v6+h6O1B4bvfU3nc8B4rB/fB5dPnUfTvCUDRB2spWrHO5PhrzTHQbNhLyX+3Up2UDno9Fj5eqB+ag+0DnTP8RbvjECX/2URNcga6Mi0yFweUowdi/+TdKEcPNJbLnv8qFaExJsdePZyoV8rvSJ0aPjeVUWfQ/LqPisNx1GZdhppa5J9WRscAACAASURBVF7u2MwNwP6ZBUisTX/+AaqOJXJp+rOol8zE4eXFFLy9iop9x9BpypH36obja0uwnuVvfN8by5rzd5PXbj+8gfXcye1+bzoi41IBn/33DxJTsrCzVTEtYAgP3jMRhVzWoXrb8jui3pmzl/h9ezTxZzPRaCtxsLOmXx93Zk4dgd/IPi2er7BYy3PL15GTVwKY9nT8Wdg/fQ+FH6ylLusytZfykXu6dnVI1015eTm7d+/Gw8MDv0Zz8PLy8vj+++8JCgrC19cXmaxjP4eCcCsRicEVGo2GiIgIQkNDSU9PB+DJJ5807v88Kopd584R4OVFcO/eWMhkxGZn83Z4OHtTU4lYuhRpB+7MfHv8OI+FhOBmbc1jo0dTp9PxRXQ0jlZWZssPdHFh3Z13ArAzJYX18U0n9jWWrdEwdtUqssrKuL1vX0a4uxOfl8fqkyfZlZLCsWXL6KFu/zCP6BOpvPHh7+h0euO2ktIKSkorOJeWyx3Bw00Sg+TUHF565xe05VXGbYXFWvYdPMOh6BQ+XH4vA/t7tDueq333cxgn4zOMr4tLy0m9kGdSJjEli9fe+xWNtsqkXHFpOfFJmYwd5Y2Lk6FnprSsguff/ImMSwXGsjW1dSSfzyH5fA7RJ1J595X5Nyw5ACj7aTfqpbMB0Gw8QHloDKrgMcjcnQwN4lXbsH92AQC1mXkULP8aiyHeWPmPQO7hTN3lYrQ7D5M16wXcf34H1W1jmz1XdUIa+c9+jLy7C9bT/Ki7XEJlTCK1GbnGxMB6tj+KPobvYfHK36mOP99i/EUfrqPow7XIXB2wfWAGEqkEzbaD5D/zETXnM3F88+GOvT9rdpL//CfIurtgfecUpLYqajNyqDh4gvL+PU0SA/tnF2C7IBiAwvfWUJuRg+vXL5vUJ7FRmbwu+XYz5fuOYTVhGFaTRyGxkFN1KoWiFesoDztO952fgNT8z4OuopqsmX9DV6rFctwQ9DW1VJ1Mpup4Etaz/FFNH4fcwzBUULPxAOV7o7F/fiEWA3oa61D6+nTo/WkvjbaSl975hYIiDQCXC8tYv/kIBUUaXnzyjnbX257fEdv3nOCL7/agb/g1RH5BGfkFZaRl5De5eWB6HVW88u4GY1Lw6KIpLJjT/GfgptXo75Ckg4nZzW737t2Ul5ezZMkSpI0+W1KplPj4eGJjY7GzsyMgIIDAwEC6d+/ehdEKwp/DLZ0Y6PV64uPjCQ0NJSoqitraWlxdXZk/fz4BAQG4ubkZy74+eTKr583DUm76lr24dy8fHT7M9uRk5g4Y0K44NNXV/H3PHqwVCpMG+rNjxzLkq6/MHuNmbc2iYcMAyNForpkYvHngAFllZbw2aRL/atRT8V5EBK+HhvLqvn382IGu2M27YtDp9EilEt564U6G+HhSWlZBWkY+O/adRNLoj5VOp+f9z7cb/+AHTxrMOF9vjp1MY0/YaSoqq3nv822s/mxZpzWsT8Zn0Le3GwHjfbCytCA1I4+CQo1xf01tHe9+stWYFPTt7caMwGE42ltz/kIe2/aYTmr78od9xqRg3u2+BE4cSHV1Hb+HRBMVe56YU2ls33OCebf7cubMGfbv33/NGC0tLVm2bJnJNrfvXkdqZxiCoejjgdu6f2AxwMvs8Tbzg3B67wlqkjO4OO5h5B4uuH77KtTpSPOaS2X0GWNZmbsTPaK+R9Gvh0kdjq8tIWPsQxS++0OLiUHJfzbi8PJi7J+717itLq8IamqNry0G98FisOEOrWZTWIuJQW1mHkX//hGpvS2e4V8bexUcXlzExYmPUvzZBmzvn46ir2ezdVxL6ZodIJHguW+laa9FTS21uYUmZa0mjzR+XfyfTZCRg82CqS3W7/DCA7h++RISSwuT7QVvfkvJyt8o330U1R0TzB6r3RqOaqqfoVfHyrA6jr6qhprzhrH4FgN7GcegV50+D3ujUQX6Yuk/vMWYVDMnIO/jYTzW4YUHUP+l/Y11c/Iul+LkaMOTS4LJyi1my67jAOwJO829c8bS09OpzXW253fEhYuXWfn9XmNS4D+2P+N9+yGXSzkZn97ivIaq6hre/WQraRn5ACx7MJB7Zjfcgd6zZw9JSUnXjNvb25uZM2eabGvLZ7gzlK7dCTW1KAb0RObe9vf+apXRCeQte9/sPtcvXwSF6d/EG3W9VVVV7Ny5E2dnZyZNmmSyz9nZmW+//ZYjR44QHh7Otm3b2LZtGwMGDCAoKIjx48djadm0B08QhFs0Mbh8+TJhYWEcOHCA/Px8rKysmDx5MgEBAfj4+Jg0YusNdW3oji2vqUFTXY1Or2fslTsQUZmZ7U4M9pw/T1l1NUtHjDC5a9/fyYl5Pj78lpDQrnob25SYiIVMxgvjx5tsf3bsWN6PjGRzUhJ1ej2ydvZ6VFUZGoRSqQQ7tQq1rRVqWys8PRyZNM70fTl1JoPMLENDbMSQnrzyzCwApkwYSEFhGcfjLpCTV0LMqTTGjvJuVzxXGznEiw+W34tU2nB9lVU1xq+jjp8n73IpAF6eznzxr8XGYUOTxg3g7lljUFoYPi5lmkrCDicCMGxQD55a2tBgHNjfg7l/+YS6Oh2hkQnMu92XnJwcIiMjrxmjSqVqkhiopjcMY5Da2bQ4mbB+nHH90AFFr26GHTIpcncn6ho1fqVqa6Rqa8OLOh26Ui366hqQSLDo35Oq40noK6ubNHLrWfj0MkkKAGSu7V92UrvjEOh02C6aYdJolzqqUS+ZRdGHa9Fuj8D++YXtPoe+tg4wcxdVIe+U4RYWg3o3nKu8Ep22EnQ6LH19KAEqYxKbTQyQSnH+6FljUgAgUSpM6mwPRZ/uKPo03CVVjhnYQun2e+P5eQweYDhPeUU1e8JOAxAVe75diUF7fkfs2HvS2GN5R/Bwnn9shrG+IP9BJjcCrvbeZ9uMicPji4O4e5bphN+kpKRWfYYrKyubJAZt+Qy3R+G7PyC1sUJfVUN1cgZVx5OQeTjj9vUrnVJ/bUYOmowcs/tcPn8ByVVTRq739dbbt28fpaWlPPLII2aHCqlUKoKDgwkODiYnJ4eDBw9y8OBB/vOf//DDDz8wceJEgoKC6Nev33WJTxD+rG7JxGD58uUUFhbi4+PDwoUL8fPzw8LCfAOoXnFlJe+Eh/PrmTNcKitrsr+0qsrMUa2TkP//7N15QFVl/vjx991YLvsiKCIgqJCi4oYbi4BpppGa2qaWjjl9ncbm19TUNDVTNlN9m2lapu9YjpWmVtNiLqXkcmWTxQ1FRBNEERQEWWRf7/39AVy5ckFcyu3z+ifOOc/znM+5XOl8zrOclqdUQ9r1ULQZ1qvXNScGhVVVlNbWMsDFpcPQJFsLC/o7O5NWWMip8nL8nK7u5m7EEB8OH82jqUnP715ei5enC8MCvRk93I/hg31Mnvz/dKLA+PP44AEm7YSNCWB/+ikAjp8ovG6JwX2ThpkkBWA6CbJ9TPdGDTWZSwCYDIPKPnnOeAOSnplnnOdwqfyClhubtv85/dwUli3f4babeZObTCsLDLWm39Ga7Xsof/fLljkCDY1cylBd22lioJ0y1uz+q9X4U8vwPcsh/TocsxzS8h1oOJbb4VjNjynU7Nhrss86NAib6NAOZW2iQ2nIOEF+1FPYzpyA1ai7sBxx1zUlNO3pL1RR9tYaqjbE0VxQ0vF4ZU2nda1GBFy3OH5p9nbWxqQAYPyo/sbEIL+wtLNqXbqavxHt60RP7rg6jYuzbafnS8/MA8DCQt3hQQbA0qVLWbp0afcv4BdU9Y3OZNtqTCA91y1D6XR9FqSwnRXZ0vN4E2lqamLz5s04OjoyYcKEy5bv2bMnc+bMYfbs2Rw9epRdu3ah0+nYuXMnb731Fj4+Pj97zELcKu7IxMDT05PS0lJOnjxJWloa9vb2BAYGmoxRbK9Jryfqs884UFDA/f7+LPP3x93WFpVCQWZxMb/fto0mvf6q46lqaAAwO5/ApZM5BlfTfmdtuWpbxkpXXkNyM+f+0ZRdqOb77QdpbtZzOr+E0/klbIw5gK+3G399YZZxfH77McNObU+tWzk6XBy3XVVdd9XxXMrVpev/SbY/15WU7Ur7HolfgrGny9z3WKHA0Nxs3KzelMC5x5ehcnfG6ZmHsRjghbJ1zHzJax/TcPiE8Qm7OZo+HZPYa6GvqgUwu5yp0tnBpEx7dXuPUvHxJpN9CrXKbGLg9MzDqJztqVizlfJ3vzTutwoZitu/nkXtfQ1LLzY1c/b+52hIz0Y7ZRw2fxyLys0JhVJJw0+5lLz8ETR3/nmqr/Pn+UtytDeda+HQbruu7ur+DVzN3wiTf8POV35TrFC0vLjtvf/8yN/+OPuK698oXgfXoPbqif5CFZWfbaXkLysofORlPDa/De17x7rTG3yNKxj9UmJjYyktLWXu3LmXfajXXn5+PmlpaRw+fBiDwYCzszNarfbyFYW4g9yRicFLL71Ebm4uOp2OhIQEEhIScHJyIiQkhPDwcLy8vEzKx2Rnc6CggPlDh7J6+nSTY5WtN92XUigUGMzsN1fezrLlyW5pbccbn/M1nT9l7C7b1j+cJWbab3+Otjiuhkat4qmFd7PgoTD2p5/i8NE8kvdlc674Ajm5Rfxn7S5efDoaABvtxfOUV5heX/mFi9u2ZlZxMbSbVVjf0NTheGdUnSR9bdrHdL60Y49Qe9p2ZUNGD2DJ4+bHnrf9PzYjI4MdO3ZcNkZLS0v+53/+57Llroeyd74AhYLeW95B3dd0Aqfh5Q8v34Dm+v7pUNq2JK3NpRUdjulLL5iUac/5pQU4v9T1W3cvnkSJ/cL7sF94H4bKGmpTMrjwnw3U7tjLuV+/Qe+Y9646/pqde2lIz8b2wbtxW266tKO+6vL/hhUWt+6f4opK078rF9r1jFhZdVyatP1QTYPe3F/Jq/sbcem/YQf77j9UeebJKfyUXcAPOw6yJy2HXbuPEjH+4rCrmJiYbs8xuO+++7p93utJ6WCLw29n05h3joqVG7mwYgMOSx4wHu/yO9b6a1DcAkvJ6vV6NmzYgK2tLZMmTbps+QsXLpCYmEh8fDwnT55EpVIxfPhwFi9eTFBQUKcPBIW4U926/ze6Rt7e3ixYsIC5c+eyd+9edu7cyebNm9m8eTPe3t7GOQf29vacKi8HIMy74wSq3adPd9gHYKPRUNPYSE1jI9p2S5keO3++Q9lBPXoAcLioqMOxg4Xmx3ZeiZ62tjhbW5NbXk5ZXR1O7SZdVTc2klVailajwcfR8arP0Tbx2EZrSdgYf8LG+LN4XgSPL11B0fkKMo+fNZb19+tl/Hn3nuPcf8/Fbv+EPRff2DnA7+ITXButJdU19VTX1FNX34iVpYbsk+euOt5LtY8pRpfO/ZcsN1pdU49GrcLCQo2fz8Xx6MdPFGJna9VhbfbGxmbOFJbh6mzHuXPnSEpKumwMWq32F0sMmk4Xourl0iEpaC4qo/FkQSe1fj6a1smJ9YezsZ1luoRsfXrLpGWLgOs3gVFhp0V7dzDaiaPIC15A/d6jLcOpLMzcyLZ9D5qaTZ/AttPUOgbbelzHF0HVpR7psO9atMXTVY/OL6m8ooafsgvw79fybyj1wMVJ5p69Oi5Nq7W++IT3fGkVnh4dy1zN3wj/fr04lt3y3f1+expPP2G6xG1ZeTVOjqa9D21CR/szbmR/4pKPUlVdz79X7WDk0L7GIYTHjx/v1r/hhoaGG5YYtHF+fh6VX/xI2dvrsJt7j3Eukap1aV2DmR5PfWV1S5lb4AWEiYmJFBUVMWfOnE4nEDc3N5OamkpcXByHDh1Cr9fj4eHB3LlzCQ8Px+E6LM8txO3qjk0M2mg0GsaNG8e4ceMoKioiNjaW2NhY1qxZg1KpZOrUqfg5t/yPK+7UKX417OJqJYeLivho/36z7d7Vowf7Cwr49uhR5rWuHnSuupr/mCk/yc8PB0tLvjpyhBdDQ43j/I+XlLChG0+pumPmXXex8sABXk9I4O93X1yP/e+7d1PV0MCjgwdf9cRjgHdXxNDUpCcydCB9vXpgoVFzNOssFa3DP9rfOA8d5IWnhzP5Z0tJy8jlrQ9+YPRwP/YeymHfwZMA9HRzYOTQixMve7o5UHS+AoMB3vvPj4wc2pcvvku56ngvNWZEP1yd7Thf2rKs4W//9BlTIofiaK8l53QxW3ce4l+vz6eHix2O9lrGB/dn954sis5X8Mxf1nH/5BG49bCnuqaeo8fPsjPhCJMjBrPgobBfbI7BldD09aD+YBaNJ86g8WsdH24wtAx5MTPf4Odmc+84Sv70IZVrY3B4YrpxMnBzQYlxNSGb+zoOD7oStXFpWIcMhXYJn/5CFc2lFSjttJ32gqhcWxLmhp9yjassXUrt05Jg1e5Ox27eFOP+hsyTVKz6/pri7ioe6wk3x5te//ruRh6dOY6ConK27jxk3D96WMc5Qj59XIlLbvl5zTeJWFiEG5/893JzRKNRXdXfiHujhrLpxwMYDPD99oNUVNYyZkQ/VColh4/mceSnM6z4x8JOr8HB3pr5s0P496qdlF+o4aM1Op79n5YVnG7mOQaXUro4YL/gPi588DUXlq83vjzNKnggNdv3ULF2Kz3aTUJvyi2kLvEQCiuLTr/fNwuDwcCGDRuwsrLinnvu6bRccXEx7777LpaWloSFhREZGUlAwI1ZzleIW80dnxi05+bmxpw5c5g1axbp6enGsYtRffsyxN2dNenpnKuuZpSHB2crK/kyI4OJvr58f/x4h7YeGzqUtenpLNq0iR+zs7FSq/khK4sh7u4UVJmujqHVaHh78mQWbdrEmJUrmREQgKVazeeHD+Pt6Eh2qekEPgOw+uBB4/a+sy1P4+Nyc6lrahleY6VWm7zsbFlEBFuysvhHUhL7z55lWK9eHD53ju05ObjZ2PDGxK6XYryc+oYmdImZbI83v2zq1IkXl1VUKhX8cel9xjXKt8dnmNSztrLgxaXRJk/sJ08YYpwguCP+CDvij+DTx/WaYm5Po1Hxp99F86c3vqamtoGsnHNk5WzrtPzTiyZzKu88ZwrKyMo5xz+Wb7lusfwSHJbMomjR3zgzeSm2D0SitLGiZudemovLsRjSj4b07Gtqv7mwhJp2LwhrOtMywb7qu1jjE0yNV0/jcpvqPu44PTeXsv/9jPyIJS1vbFUqqNmaTHNRGY6/e+ialioFOLfwNRSWFliPH4K6jzuGmjqqftiNvqyyZThSJ4mx9p6x1GxL5dzjy7B7ZLJxKUa7RyYbJ2drw4dhMbAvVV/toLm4DMth/jQXllC1fhfW4cOp2ZZ6TbGbxHP3aEpeWUnZG6tpLiwxzk/QRo5E7dPrMrWvP/ceDtTVN/L2h1tN9t8dHmh2RaKo0EF8/l0yjY3NpGfm8fRLa43HPnxrAX4+blf1N8LX240nH4ti+aqWpYHjU34iPuVi70Iv98v3iEZPHs4POw6Rm3+eH3cd5u6wQIYO8rpsvZuN41OzqfjPBsr//Q0Oi6ejdLLD/lfRVKz7kco1W6k/eBzLYf7oK6qp2bEHQ1Utzn/+1cWVytqp25tJ0ZK3zJ7HZso4bO4L+bkvx2jPnj3k5+cTHR2NrW3nk8mtra1ZvHgx48ePx/o6zNMT4k4iiYEZSqWSoKAg47aFSsW2efP4444dbDtxgvjcXPo7O/PuPfcwxN3dbGIw0deXFffdxxsJCXydmUlfR0f+Eh6Op7092050XM/9V8OGYaPR8GZiIp8dOoSLVstvRo3C29GRRZtMJ1c26/Us2LixQxsf7tvHh/tabsZcrK1NEoNetrakLlrEX2Jj2ZqVRcLp07hqtTw2dCivRkRc08vNAO6JHIKVpYajWWcpKauiqroOK0sNvt5u3Bs1lLvDTd+kO8C3J/9+83HWrU9i38Gclrea2msZPtiHuQ+M6zC8YGLYIPILStmy8yC1dY0M8u/N7564h8eWfnRNcbcXGODJh28t4MuNKew7eJLS8iq01pb07uVEVMggnBwu/k/TydGGf7/5OBu27idxz0/kny2jsakJB3stPXs4MGJoX6JCBl232K4325kTUCgVlL37JZXrYlBYWWAdPoye65ZR/Lt3rrn9hmO5FD/1jw77S15cbvzZ5r4Qk3X4nZ6fh8a7JxdWbqTq65abO4sAH5xfWojd3M6fDnaX84uPU7N9D3WpR2janIjKwQbNAG9c31iCzbTOb27s50+hubiMyi+2UfrG6pYhRYDt/WEXV22y0NBr/f9Suuxjanbtoy4pHY2fJy6vL8FykO91TQw0/l64f/ISZe98wYWPvsNQ1zJvyf3Tl29IYmCjteS15x/gXx9v51j2WexsWt4qvuBB829h7uXuyBsvzmHVfxPIyinsdK7Qlf6NAJh570j6+bjz7fd7OXI8n6rqehwdtPh5u3HfpGFmzmJKpVLymwUT+cNrLZPT3/kohhX/WIjFLTYHROXmhN38qS3JwXtf4vzKEygd7egT9yFl739F1Tc7qfz8RxRWFlgN88fx2UexDg0y21ZTbiFVueaHtKo9evyiicF3332HRqNh2rRpXZZzcHBg4jU+7BLiTqUwtJ/NKYQQQghxkzl48CCvv/4699xzDwsXdj4kTAhxbWQ6vhBCCCFuauvXr0elUhEdHX2jQxHitiY9BkIIIYQQQgjpMRBCCCGEEEJIYiCEEEIIIYRAEgMhhBBCCCEEkhgIIYQQQgghkMRACCGEEEIIgSQGQgghhBBCCCQxEEIIIYQQQiCJgRBCCCGEEAJJDIQQQgghhBBIYiCEEEIIIYRAEgMhhBBCCCEEkhgIIYQQQgghAPWNDkDAwcJChn30kcm+1yIieCksrNM676ak8P9+/JHlU6fy5MiRP3eI4hc2/csv2fjTT8ZtlUJB05//3GUdxzffxEqtpvDZZ3/u8IQQQghxG5LE4Ao9u20bbycns+uxx5jg43Nd2vRycOA/990HtCQJ/7d373Vp91osWbKE8+fPG7cVCgU2Njb4+Phw9913M3bs2BsW26ZNm1i7di0zZ87koYce+tnP9/zzz3PmzBn+/e9/Y29vb3KsqqEBuzfeINzbm9jHH79u53wqOJhpAwYAsCwujrOVldetbSGEEEIIcyQxuAk4W1uzaPhwADYcO3ZTJAZtQkNDsbS0RK/XU15ezuHDh8nIyODcuXNMnz79Rof3s0tLS+PkyZPce++9HZKCn9NEX1/jzx/s2SOJgRBCCCF+dpIYiC498sgjuLi4GLdPnz7Ns88+y/r164mOjkapvL2nqXz33Xeo1Wqio6NvdChCCCGEED8rSQzMyMnJQafT4efnR0REBG8mJvLHnTtNykSsXm2y/fXs2cwaONC4nZSXx5r0dOJzc8mvqKCxuZm+Tk7MHjiQ58aPx0aj+VliX7F/P09+/z3hPj5sfvhhbC0s+Pzzz1GpVERERODm5nZN7Xt5eaHVaqmpqaGurg6tVsuBAwd48803iYyM5Mknn+xQJzk5mXfeeYcpU6awYMEC4/6Ghga+//57EhMTOXfuHCqVCj8/P6ZPn87QoUOvKc6unD9/ntjYWKqqqni8i+E/mZmZHDt2jIkTJ+Ls7GxyzOqvf6W+udm4HZebi+LVV43bg3r0IGPJEuN2TWMjH+3fz5asLI6dP09RdTX2lpaM8fTk+fHjCfHyun4X2M75mhruXrOGzOJivpw1ixkBARQVFfHJJ58QGRnJiBEjUKlUP8u5hRBCCHFrkcSgVVVVFQkJCeh0OnJzc4GWcfYA9/n749k6jOSLjAy2ZGXxYmgod7m6GusH9+5t0t77qalszc4m3NubqL59sVCpOFBQwKtxcWzPySFhwQKUCsV1vYb3U1P5XUwMk/z8+O6hh7BWt/x66+rqiImJ4dtvvyUwMJDIyEhGjx6N5iqSk6ysLGpqanBzc0Or1QIQFBSEq6srSUlJLFiwAEtLS5M6sbGxAERFRRn31dXV8eqrr3LixAkCAwMZNmwYtbW17N27l7/97W8sWbKECRMmXN0HYUZTUxP79u1Dp9Nx6NAhDAbDZdtfv349SqWS+++/v8OxT6dPp1mvp765mUWbNhHg6sqfQkONxx2trEzKn75wgWd+/JGgnj2J8PGht709xdXVbPzpJyasWsXGhx9mav/+1+Va2xRWVTHxs884UVbGdw8+yL2t7SuVSjIyMjhw4AAODg6Eh4cTERFB70u+w0IIIYS4s9zRiYHBYCAjIwOdTkdqaipNTU24ubkxa9YswsPDcXd3B1qe/g7q0QNomRy8JSuLu319u5x8/KewMFZNn46V2vQjfm77dv6RlMTm48e539//ul3LW7t38/yOHUT7+/P17NlYtHsKvHDhQsLDw4mLiyMxMZH3338fGxsbQkNDiYyMxKeL6/j666+xsrKiubmZkpISDh48iIuLC0899ZSxjFKpJCIigq+//pqUlBTCw8ONx8rLyzl06BD9+vXDq91T8bVr13LixAl+97vfMW7cOOP+uXPn8oc//IHVq1czduzYDknGlcrLy0On0xEfH09lZSU2NjZMnDiR8PBwBrRO7jUnOzub9PR0QkJCjN+D9h4ODARaJh8v2rQJdxsb5g4Z0ml7HnZ2HHvqKfzbDcsCeK2qioAPPuAlne66Jgb5FRVEffYZZyoq+OGRR4js29d4zNXVlRUrVpCcnExcXBybNm1i06ZN+Pv7ExkZydixY7G6JLERQgghxO3vjkwM2oaS7Nq1i+LiYqytrQkLCyM8PJyAgAAU1+FJ/uB2Q3ZqGhupamhAbzAwuvWpbGp+/nVLDJbFxfGX2FjmDBrEupkzUZsZ9+/n54efnx/z58/nwIEDxMbGsn37dmJiYvD19SUyMpKQkBBjL0AbnU5nsq3VaomIiMC33eRYgIiICL755ht27dplkhjEx8ej1+tNegsaGhrYtWsXPj4+BAYGUlFRYdLWyJEj2bJlC9nZ2QwaNKjDtbQNfelsqq0+CQAAIABJREFUfkNtbS1JSUnodDqysrJQKpUEBQURHh7OyJEju9VTsn79egBmzJhx2bLdYW9piX1rktNsMHChro6G5mYUwF2uruw5c4a6pqYOieTVOFVeTuTq1ZTU1hIzd67ZYUparZaoqCiioqIoLCwkPj6e+Ph4li9fzqeffsr48eOJjIyk/3XuxRBCCCHEzeuOTAxeeuklSktLCQgI4OGHHyY4OBgLC4vreo7yujqWxcXx1ZEjnDGzokxFff11Oc/7qakcbV1W9LGhQ80mBe2p1WqCg4MJDg6moqKCxMREYmJiWLlyJYcOHeK5554zKb98+XJcXFxoamqipKQEnU7HN998w+HDh3n11VeNN+eurq4EBQWRlpbGuXPnjE/ZY2NjsbKyYvz48cY2c3NzaWxs5NSpUyxatKjTWMvKyszut7a2BuiQxLRZuXIlCQkJuLm5MX/+fEJDQ3FwcOjyc2nv9OnT7Nu3j+DgYPr06dPtepezNTubNxMTSc3PN5mf0KaqoeGaE4PqxkbCPv2UvIoKxnh6MrYb8ffs2ZM5c+Ywe/Zsjh49yq5du9DpdOzcuZO33nqryx4lIYQQQtw+7sjEwNPTk9LSUk6ePElaWhr29vYEBgZetxV2mvR6oj77jAMFBdzv788yf3/cbW1RKRRkFhfz+23baNLrr8u5jp4/z7whQ/gmM5OFGzdy6H/+B3cbm8vWq6+vJz09nYMHD1JUVIRCocDDw6PT8mq1Gnd3dx5++GEKCwtJTk5mz549jBkzxlgmKiqKtLQ0YmNjefDBB8nOziY/P5/IyEiToSnV1dVAy9yEadOmdXpOr04m5Nq0Xp9NJ9fZq1cvlEolxcXFHDx4EHt7e4KDg7s9POa7774Drl9vAcC3R48y+6uv6Glr2zI/pUcP7FqT0Rd37iStsPC6fCeqGhqws7Bg2oABfH/8OH+Nj+cv7XpwupKfn09aWhqHDx/GYDDg7OzcafIlhBBCiNvPHZkYvPTSS+Tm5qLT6UhISCAhIQEnJydCQkIIDw/v9Ia0u2KyszlQUMD8oUNZfcla/5UNDdfU9qWeHDmS5VOnMsbTk99s2cLjGzaw5dFHMTcYymAwcOTIEeLj40lJSaGurs44pyIiIsJkWdKuBAQEkJycTHZ2tkliMGLECBwdHYmLi2P27NlmJx3DxRt6vV7PkC7G5XfG3d2d4cOH06tXL7PHZ82aRVRUFHFxceh0Oj744AMsLS0ZPXo0YWFhXSaBbUnPkCFD8PPzu+LYOvNGQgIKhYKEhQvxc3IyOfb7bduu23m0Gg2JCxfSw8aGoA8/5LW4OKL69u101aMLFy6QmJhIfHw8J0+eRKVSMXz4cBYvXkxQUNBtvxytEEIIIS66IxMDAG9vbxYsWMDcuXPZu3cvO3fuZPPmzWzevBlvb2/jnINLX2qlar1R6urp7qnycgDCvL07HNt9+nSXcbWNQ69pbOzWdQxtHbKzZNQoYrKz2Xz8OO8kJ/NMuzcTFxYWGpOgkpISNBoNwcHBREZGEhgYeMVzKmpra4GWlX7aU6lUTJgwgQ0bNpCWlsbu3bvp06dPh3Hq3t7eqNVqsrKyqKqqwtbW9orO7+PjwwsvvNBlGScnJ6ZPn8706dPJzMxEp9ORkpJCfHw8Tk5OhIaGMmHCBDw9PU3qbdiwAb1ez8yZM7sVS3e+D9DynfCws+uQFJyrruZEaWmXde0tLWk2GKhvbsbyMkuL2llY4Nt6js8feICQTz7h0fXrOfTkk8aVkpqbm0lNTSUuLo5Dhw6h1+vx8PBg7ty5hIeHX9GwKyGEEELcPu74x4EajYZx48bx8ssv88EHHzBr1iyqq6tZs2YNCQkJHcq7tT7tziwu7rRNv9Y17+NOnTLZf7ioiI/27+8ynv6tT+2T8vKu5DIA+Pj+++lpa8sfd+7kQEGBcf9XX33Fhg0bsLW1ZcGCBXz00Uc8/fTTDB48+IqTgqqqKmNPgLlVfdp6Bz766COqq6uJiIjoUMbCwoIJEyZQW1vL6tWr0V9yU11dXc2mTZs6jSEnJ4cffviB48ePdyvmgQMH8tRTT7FixQoWLVqEk5MTmzZt4vPPPzcpV1JSQnx8PAEBAQxs906Krlir1dhZWJBVWkpjF8mBn7MzBZWVZLVLAgzAs9u2mZ1v0F7bdyL5Cr8To3v35s/h4Zy+cIEnNm827i8uLubdd98lMzOTsLAwli1bxrvvvkt0dLQkBUIIIcQd7I7tMTDHzc2NOXPmMGvWLNLT081OSL63f3+e376dP+/axdnKSrwdHVEAk/z8jE9qo/r2ZYi7O2vS0zlXXc0oDw/OVlbyZUYGE319+b6LG9o+9vZMDwhgw7Fj3LtuHaN690YBzBo4kMDLvJysh1bLqunTmbJ2LQ9/+y0Hfv1rbFp7B6ZNm9ZhJaHu+Pzzz7G0tESv11NeXk5mZiZ1dXUEBgaaDCNq4+7uzuDBgzl8+DAqlYqwsDCz7c6bN4+cnBzi4uLIysoiKCgICwsL8vPzSU9P7/JtwxkZGaxdu5aZM2d2ueTopbRaLZMmTWLSpEnk5uaSd8mN9saNG2lqarriuQXTBgzgi4wM7l23jin9+qHVaHC2tmZOuxWVnhk7loe++YZxH3/Mw4GB2FpYEJOdzbnqaob36mWSyF3qqeBgPk1LY87XXzNv6FDsLCxw1Wp5Kjj4srG9GBrKthMn+CYzk/8cOMATw4djbW3N4sWLGT9+vHEitxBCCCGEJAZmtC1vac5drq78d/Zs3khI4P3UVGpbh9N8PXu2MTGwUKnYNm8ef9yxg20nThCfm0t/Z2fevecehri7d5kYAKyMjsZareaHrCy2ZmcDEODqetnEAGCynx9PjxnDuykpPLVlC5/ef7/ZG/juat9rotVq8fLyYty4cUyaNKnT8edhYWEcPnyYESNGdBiK1cba2pply5axdetWkpKS2LlzJwaDARcXF8aMGXNNMXeHt7c33u2Gel24cAGdToePjw/Dhg27orY+uPdeLNVqtmZloTt5Er3BwKAePUwSgwcHDUKpUPBmYiKfpKVhrdEQ1bcvGx56iMXtnuabM6xnT76cNYu/xMbyXkoKzQYD/i4u3UoMVAoFa2fOZOjy5fwuJoYQLy/ucnVl4sSJV3SNQgghhLj9KQwGg+FGByFuL6tWrWLLli288MILDB8+/EaH0y3r1q1j48aNPPPMMz97UiKEEEIIcTO64+cYiOur7cl723sNbgXV1dX8+OOPeHh4ENyNp/BCCCGEELcj6TEQ10VKSgqnT58mOTmZM2fOsHjxYhmuIoQQQghxC5E5BuK6iI2N5cCBAzg7O/Poo49KUiCEEEIIcYuRHgMhhBBCCCGEzDEQQgghhBBCSGIghBBCCCGEQBIDIYQQQgghBJIYCCGEEEIIIZDEQAghhBBCCIEkBkIIIYQQQggkMRBCCCGEEEIgiYEQQgghhBACSQyEEEIIIYQQSGIghBBCCCGEQBKDm9I/kpJQvPoqX2Zk3OhQhBBCCCHEHeK2Twz27dvHnDlzWLt27Y0O5abw/fHjKF59lVdiY290KEIIIYQQ4iaivtEB/NzWr1+PRqNh2rRpNzqUbnt48GDGeHoS4Op6o0MRQgghhBB3iNs6MUhPTyc7O5vJkyfj6Oh4o8Pptt52dvS2s7vRYQghhBBCiDuIwmAwGG50EFdCr9eTlpaGTqfjoYceok+fPp2WfeWVV/jpp594//336dGjR4fjBwsL+VtCAqn5+ZyrrsbZ2ppBPXqwcNgwHhk82GybSXl5/DM5md15eZTW1tLL1pYJPj48M3YsQ9zdTcqm5Ocz9uOP+fWIEbwyYQIv7NjB1uxsKuvr8XVy4rXISGYEBAAQe+oUEatXm9T/4oEHeCgw0Gwcnv/8J016PbGPP87SrVvZnZeHtVrNlP79+d+JE/Fol1i0xdGV34waxQf33gvA559/jkqlIiIiAjc3ty7rCSGEEEKI28Mt02NQWFjIrl27iI2NpaysDLVazaOPPtpp+ePHj5OZmcmECRPMJgWHi4oY+/HHqJVKZg0ciKe9PYVVVaTk57Ni/36zicGH+/bxmy1bsFKrmREQgLejI8XV1fyQlYVaqWRldLTZWGqbmgj79FMu1NcT4uVFY3Mz+86eJTU/35gY3NWjB2tmzABgS1YWX3Rj4nFNYyMRq1fj7+LC0tGjySgqYm16Osl5eRz49a+xt7QEoJ+zs7Htg4WFvJ2czIyAAGbedZexLf92w5bq6uqIiYnh22+/JTAwkMjISEaPHo1Go7lsTEIIIYQQ4tZ0UycGDQ0NpKSkoNPpyMzMBKB///488MADjB8/Hhsbm07rfvvttygUCqZPn272+GeHDlHX1MR/Z81izqBBJsdyyso6lD96/jy/3boVF2trUhYtwtfJyXisvrmZ5Ly8TmP5+sgRpvTvz9qZM7FWq411skpKjGXcbWyYO2QIAIVVVd1KDCobGoj292ftzJnGfc/v2MFbu3fzj6QklkVEAOCq1RrbdrSy4u3kZIa4uxv3XWrhwoWEh4cTFxdHYmIi77//PjY2NoSGhhIZGYmPj89lYxNCCCGEELeWmzIxyMnJQafTkZiYSE1NDa6ursycOZOwsDA8PDwuW//UqVOkpaUxduzYTss36fUAaFSqDsfa3/S3WbF/P016PS+GhnY4bqlSMaGLm2WlQsG/p041JgVtdQKvwzCd58aPN9n+3Zgx/CMpia8zM42JwdXw8/PDz8+P+fPnc+DAAWJjY9m+fTsxMTH4+voSGRlJSEgIWq32Wi9BCCGEEELcBG66xKCwsJAXXngBgJCQECIjIxk0aBAKhaLbbaxfvx6AGa3DZ8yZERDAeykpPL5hAz8GBhLq7c0oDw8GuLiYLb/3zBkAonx9ux1Hm9Genrh30btxtZQKRYfkopetLa5aLcdLSmjS61Err21FWrVaTXBwMMHBwVRUVJCYmEhMTAwrV67k0KFDPPfcc9fUvhBCCCGEuDncdImBlZUVrq6unD9/noyMDJycnLCzs8Pb27tb9c+cOUNqairDhw/vcshLmLc32+bN4+9JSaw6eJCP9u8HWsbjfzhtGlF9+5qUv1BfD7TceF8pbweHK67THQ6WlqjMJEwu1tYUVVdT3diIQ+s8g2tVX19Peno6Bw8epKioCIVC0a3eGyGEEEIIcWu46RIDR0dHPvjgA9LT09HpdGzdupXNmzfj5eVFeHg4ISEhOJkZ6tPmu+++w2AwMLPduPvOTPT1ZaKvL416PfvPnuWLjAw+2LOHmf/9LzlPP42LtbWxbNsN9tnKSlyvcPiMhZnhStfDhfp6mg2GDslBSW0tCsDmGicLGwwGjhw5Qnx8PCkpKdTV1eHm5sasWbOIiIjApZPeFSGEEEIIceu56RIDAKVSSVBQEEFBQVRWVhIfH49Op2PNmjWsW7eOwMBAwsPDGTt2LOp24/aLiopITExk0KBBDBgwoNvn0yiVjPH0ZIynJ7WNjfznwAHSCgqY2G7Y0Kjevdmdl4fu5MkOy5LeKHqDgcPnzhHUs6dxX2FVFedraujv4mJ2GJGqdV/bHAtzCgsL0el0JCQkUFJSgkajITg4mMjISAIDA69oWJcQQgghhLg13JSJQXt2dnZMnTqVqVOnkp2dzc6dO9m9ezfp6en06dPHZLjQxo0b0ev13eotSM7PJ9DNDTsLC+M+AxdXJHK5pFfgieHD+VdqKq8nJBDt728yAblRryc1P58QL69ru9ir8I+kJJNVid7avRu9wcCsgQPNlndrneuQWVzcaZtfffUViYmJeHt7Ex0dTWhoKLZXMYRKCCGEEELcOm76xKC9fv360a9fPx577DFSUlJMblbLysrYtWsX/fr1Y3AnLydr7+2kJGKys4ny9aW/szMqpZJdJ0+y9+xZJvn5MazdU3iAgT168N6UKfx2yxYGL1/OjIAAfBwdOV9Tw9bsbO729b3qxMAArD540Li97+xZAOJyc6lragLASq3u8LIzOwsLduTkMGHVKkZ7enKgoIAdOTn0dXTkD5esVtRmqLs7fezt2fjTT/xq0yaG9eyJWqkk0M3NGH9wcDDTpk3D9yomWgshhBBCiFvTLZUYtLGysmLChAkm+zZv3kxTU1O3egsAnhgxAq1GQ+qZM+zMyUGjUtHX0ZF3Jk/myZEjzdb5zahRDHV355/JyWzPyaGstpZednaEeXuzdPToq76eZr2eBRs3dtj/4b59fLhvH9AyofjSxECr0bB9/nye3rqVf6WmYqVW88jgwbx1992dTjpWK5V8/8gjPLd9O99mZvJJWprx2toSgzFjxlz1tQghhBBCiFuTwmAwGG50ENeqsrKSJUuW4O7uzt///vc7Ygy85z//SZNeT+Gzz97oUIQQQgghxG3g2ha5v0n88MMP1NfXM3369DsiKRBCCCGEEOJ6uy16DO5E0mMghBBCCCGup9uix0AIIYQQQghxbaTHQAghhBBCCCE9BkIIIYQQQghJDIQQQgghhBBIYiCEEEIIIYRAEgMhhBBCCCEEkhgIIYQQQgghkMRACCGEEEIIgSQGQgghhBBCCCQxEEIIIYQQQiCJgRBCCCGEEAJJDIQQQgghhBBIYiCEEEIIIYRAEgMhhBBCCCEEkhgIIYQQQgghkMRACCGEEEIIAahvdABXSq/Xk5aWhk6n46GHHqJPnz5M//JLduTk8FJYGG8kJuJkZcXK6GjSCgt5PSEBRysr3pk8mekBAcZ2kvLyWJOeTnxuLvkVFTQ2N9PXyYnZAwfy3Pjx2Gg0Zs+flJfHP5OT2Z2XR2ltLb1sbZng48MzY8cyxN3dpGxKfj5jP/6YX48YwSsTJvDCjh1szc6msr4eXycnXouMZEa7mFLy83ktPp7kvDyqGxvxdnDgwcBA/hgSgtZMPAcLC/lbQgKp+fmcq67G2dqaQT16sHDYMB4ZPNhY7vPPP0elUhEREYGbm9u1/gqEEEIIIcRt6JZJDAoLC9m1axexsbGUlZWhVqt59NFHjcdrGhvZ+NNPPB4UxPK9e3nwm29wsLRk0fDhfHboEAs2bmTqgAFolC2dJO+nprI1O5twb2+i+vbFQqXiQEEBr8bFsT0nh4QFC1AqFCYxfLhvH7/ZsgUrtZoZAQF4OzpSXF3ND1lZqJVKVkZHm429tqmJsE8/5UJ9PSFeXjQ2N7Pv7FlS8/ONicGOnBzuXbcOpULBQ4GB9LS1ZXtODn+Njyfu1Cl2Pf44qnbxHC4qYuzHH6NWKpk1cCCe9vYUVlWRkp/Piv37TRKDuro6YmJi+PbbbwkMDCQyMpLRo0ej6ST5EUIIIYQQd56bOjFoaGggJSUFnU5HZmYmAP379+eBBx5g/Pjx2NjYGMsagK9mz6aPvT3nqqr475EjfBwdzfSAAFy1Wl7YsYPM4mKGtj7V/1NYGKumT8dKbfoRPLd9O/9ISmLz8ePc7+9v3H/0/Hl+u3UrLtbWpCxahK+Tk/FYfXMzyXl5nV7H10eOMKV/f9bOnIl16/nqm5vJKikxxv6bLVto1OvZNm8ed/v6AvC6wcDUzz8nJjubT9PSWDR8uLHNzw4doq6pif/OmsWcQYNMzpdTVmayvXDhQsLDw4mLiyMxMZH3338fGxsbQkNDiYyMxMfHp6tfgxBCCCGEuAPclIlBTk4OOp2OxMREampqcHV1ZebMmYSFheHh4WG2jkqhwNPeHgAvBwcA4817n9b9BZWVxsRgcLshNTWNjVQ1NKA3GBjduzcAqfn5JonBiv37adLreTE01CQpALBUqZjQxc21UqHg31OnGpOCtjqBrTEcPneO4yUljPTwMCYFbfVeCAkhJjubrzMzTRKDJr0eAI1K1eF8l8YH4Ofnh5+fH/Pnz+fAgQPExsayfft2YmJi8PX1JTIykpCQELRabafXIYQQQgghbl83XWJQWFjICy+8AEBISAiRkZEMGjQIxSXDei5lqVbTVqKtF8C6dahM23ZtU5OxfHldHcvi4vjqyBHOVFZ2aK+ivt5ke++ZMwBEtbtx767Rnp64t+vduFRmcTEAw3v16nBsWM+eJmXazAgI4L2UFB7fsIEfAwMJ9fZmlIcHA1xcuoxFrVYTHBxMcHAwFRUVJCYmEhMTw8qVKzl06BDPPffclV6eEEIIIYS4Ddx0iYGVlRWurq6cP3+ejIwMnJycsLOzw9vbu8t67dOGtrkBiku2m1ufsjfp9UR99hkHCgq439+fZf7+uNvaolIoyCwu5vfbthmfyLe50Joo9LK1veJr8m7twehMVUMDAC7W1h2O2VtaolEqqbwkUQnz9mbbvHn8PSmJVQcP8tH+/QD0c3bmw2nTiOrbt8tz1tfXk56ezsGDBykqKkKhUHTaGyOEEEIIIW5/N11i4OjoyAcffEB6ejo6nY6tW7eyefNmvLy8CA8PJyQkBCczQ2WuREx2NgcKCpg/dCirp083OVbZepN+KQdLSwDOVlbieoXDbSzMDPdpz9bCAoCS2toOxyrq62nU67FrPX97E319mejrS6Nez/6zZ/kiI4MP9uxh5n//S87TT3dINAwGA0eOHCE+Pp6UlBTq6upwc3Nj1qxZRERE4HKZ3gYhhBBCCHH7uukSAwClUklQUBBBQUFUVlYSHx+PTqdjzZo1rFu3jsDAQMLDwxk7dixq9ZVfwqnycqDlqfuldp8+bbbOqN692Z2Xh+7kyQ7Lkl6rgT16AJBWUNDhWFphoUkZczRKJWM8PRnj6UltYyP/OXCAtIICJrYOeyosLESn05GQkEBJSQkajYbg4GAiIyMJDAy87DAtIYQQQghx+7spE4P27OzsmDp1KlOnTiU7O5udO3eye/du0tPT6dOnz1WtqOPn7AxA3KlT/GrYMOP+w0VFxiE5l3pi+HD+lZrK6wkJRPv7m0zwbdTrSc3PJ8TL64pjARjs7k5/Z2f2nj3LD1lZTO3fH4CG5mZeT0gAYPbAgSZ1kvPzCXRzw661twFaVjdqW5HIpV2vxldffUViYiLe3t5ER0cTGhqK7VUMiRJCCCGEELevmz4xaK9fv37069ePxx57jJSUlKu+uY3q25ch7u6sSU/nXHU1ozw8OFtZyZcZGUz09eX748c71BnYowfvTZnCb7dsYfDy5cwICMDH0ZHzNTVszc7mbl/fq04MFMD/TZ3K1HXrmPHll8y46y487OzYmZPD4aIiQr28eDwoyKTO20lJxGRnE+XrS39nZ1RKJbtOnmTv2bNM8vMzTloGCA4OZtq0afhexcRpIYQQQghxZ7ilEoM2VlZWTJgw4arrW6hUbJs3jz/u2MG2EyeIz82lv7Mz795zD0Pc3c0mBgC/GTWKoe7u/DM5me05OZTV1tLLzo4wb2+Wjh591fEA3O3rS9yCBbwWF8e2EyeoaWzEy8GBP4WG8mJoKOrWF7O1eWLECLQaDalnzrAzJweNSkVfR0femTyZJ0eONCk7ZsyYa4pNCCGEEELc/hQGg8Fwo4MQQgghhBBC3FjKyxcRQgghhBBC3O4kMRBCCCGEEEJIYiCEEEIIIYSQxEAIIYQQQgiBJAZCCCGEEEIIJDEQQgghhBBCIImBEEIIIYQQAkkMhBBCCCGEEEhiIIQQQgghhEASAyGEEEIIIQSSGAghhBBCCCGQxEAIIYQQQgiBJAZCCCGEEEIIQH2jAxC3n5XrYvnvxlQAXn5mOmFj/G9wREIIIYQQ4nIkMRA3ld+++BnHsgsA+GblUhzsrW9wREIIIYQQdwZJDMRt7aTnfVgGDcDj+7epTzvOmajf4PTi4zg9+6jZ8o3Hcil777/UJh6kuagMpZ0WqzGBODwxHevwYcZyp4fPp+lUwcWKKiUqNyesRgfi+NRsLIeb9pJUb4zn3ILXuozV/dOXsbk/7IrL50csoeFQVpdlL61jqGvgpMfULsv6nPwOpYMtAEWL36DqGx1o1Hinr0Pl7mwsV7/3KGcmL0U7ZRw9171q0oa+tILyf31F9dZkmk4XgkqJ5eB+2D08CbtHJoOq3WjGZj0Vn26m8ottNPx0GvR6VL1csRoRgM2947CZHt4hxsKHXqJmWyq+pduBlt+31ci76LXhrW59HkIIIYS4SBIDcd3dEzGEoYO8AOjn436Do+m+6u/iOPfrN6CpGauxg9FGjUJfXklt4iFqtiTRt2ALCkuNSR3bWZEoba3R19TTkHGC6g1xVG9KwH31n7GZOr7DOdTePbEaO9js+dVePa+qvM09Y7G4y8e4X19aQc22VFSujlhPHGW2jkKlxPahu437q75subFuv0+hMfPnobGJilU/4PT8PLMxmRQ9lsvZGX+g+VwpGn8vbGdGYGhqpm5vJsVP/xO1Rw+so0a2Bq2n8JGXqdm+B6WzPdqJo1A62tGUX0T1liRqdx8ymxgIIYQQ4vqRxEBcd54eznh6OF++4E2k8fhpipb8LwoLDb3W/y9WIUONxwz1jVz46DsUio71nF9aYHJDX/7OF5S+9gnnn/8Am3vHcWklq1EDcfv3H7odV3fKX3qTXp92nJptqWj8endeV6M2OVb11U7Q6y97LqW9DRWrvsfpmYfBXOLQylDXQOH8V2g+V4rLssU4PDXb5HjN1iSULvYXz78+lprte7AaN4ReX/0NhdbqYlvVdVRvTugyLiGEEEJcO0kMzMjJyUGn0+Hn50dERATTv/ySHTk5vBQWxhuJiThZWbEyOpq0wkJeT0jA0cqKdyZPZnpAgLGNpLw81qSnE5+bS35FBY3NzfR1cmL2wIE8N348NhqN2XMn5eXxz+RkduflUVpbSy9bWyb4+PDM2LEMcTd9+p6Sn8/Yjz/m1yNG8MqECbywYwdbs7OprK/H18mJ1yIjmdEupvyKCl6JjWVrdjbF1dW4arVM7tePVydMwMvB4Zo+s127j/L6e5s67O9s8nFzs5513ybxY+xhyi5U4+/Xi6WLJl1TDNei7J9fYKhvxPnP802SAgCFpQbHpXO61Y7jU7Os+CylAAAgAElEQVQpffMzms+ep+lMMWpPt58j3BvG7pHJXPhwPVUb47GdFdlpuapvdDRm52MdNbJDUgCgnTLOZLsuKR0AhydnmCQFAAobK5OejCtVVFTEJ598QmRkJCNGjEClUl11W0IIIcTtTBKDVlVVVSQkJKDT6cjNzQVgyZIlxuM1jY1s/OknHg8KYvnevTz4zTc4WFqyaPhwPjt0iAUbNzJ1wAA0ypYx0++nprI1O5twb2+i+vbFQqXiQEEBr8bFsT0nh4QFC1Be8jT5w337+M2WLVip1cwICMDb0ZHi6mp+yMpCrVSyMjrabOy1TU2EffopF+rrCfHyorG5mX1nz5Kan29MDAqqqhi9ciVnKyuZ0q8fQT17klFUxKqDB9malcXexYvpY29vtv2fwwefbOf77QeN2xnH8nlu2RdorS1/sRiM9HqqtyYBYPfg1d+AAiY9BAr17XcDqp04iuqYZC6s2NBlYlD9fSLQ/c9TYdMyyby5sOTag7yEUqkkIyODAwcO4ODgQHh4OBEREfTu3fu6n0sIIYS4ld3RiYHBYCAjIwOdTkdqaipNTU24ubkxa9YswsPDcW/3hN4AfDV7Nn3s7TlXVcV/jxzh4+hopgcE4KrV8sKOHWQWFzO0tc6fwsJYNX06VmrTj/i57dv5R1ISm48f537/i0/Sj54/z2+3bsXF2pqURYvwdXIyHqtvbiY5L6/T6/j6yBGm9O/P2pkzsW49X31zM1klF2+y/rxrF2crK3kxNJS/RV68oXs9IYE/6XT8cccO1s6ceXUfJDB6uB8fv7MIgG+/38uWnYc6LXu2sNwkKbhv0jC8ervw9eY9FJwr71B+27ZtHDt27LIx+Pn5MXWq6YRa94//ZJxAq/H1wH3NK1j4e5uUaTxVgKGyBpWrI6peLpc9T1cqPtsCjU1o/L1Q9ezYVt2eTIoWv2G2rtv/PddheM6Vlv/ZKZU4LLqfkpc+pD7tOJbDBpgtVn84GwDLwf261azN1PFc+L9vKFn2Mc3lVdhGh6IZ4HXZek6/fxS7eVOM2+4f/wmlo51JGVdXV1asWEFycjJxcXFs2rSJTZs24e/vT2RkJGPHjsXKyurSpoUQQog7zh2ZGJw/f57Y2Fh27dpFcXEx1tbWhIWFER4eTkBAAAozg8lVCgWerU/U24bdtN28tz1pL6isNCYGg90uDiGpaWykqqEBvcHA6NanlKn5+SaJwYr9+2nS63kxNNQkKQCwVKmY4OPT6fUoFQr+PXWqMSloqxPYLob1R49ioVLx+7FjTeouHT2aNxIT+e7YMZoNBlTmBtJ3g9baAq/eLTfCdrZd32TtOXjC+HPE+LuMQ4gG+vfmNy+s7lD+2LFjJCYmXjaGurq6DomBdvIY489KB1uzE4L1JRUtx11Me0xqd+6j+oeL57WOGtWhfulfP0Vpa42hvpGG46ep338MlYcr7h++YDbGptOFVJ0uNHusx/u/R6G5tvK/BLu591D6+iourNiA23LzcxKazXymTbmFlL/3pXFb7d0Lx6cfBMBqTCCubz9NySv/oez1VZS9vgqlsz3WIUOxe3iSye+xPctRd9G+j6mzclqtlqioKKKioigsLCQ+Pp74+HiWL1/Op59+yvjx44mMjKR///5X8lEIIYQQt5U7MjF46aWXKC0tJSAggIcffpjg4GAsLCy6rGOpVtN2y9zWC2DdOk+gbbu2qclYvryujmVxcXx15AhnKis7tFdRX2+yvffMGQCifH2v+HpGe3ribmPT6fHCqipKa2sZ4OKCs7XpewFsLSzo7+xMWmEhp8rL8bskKfk5nDlbZvx53KiLN2IDfHvi6mzH+VLTz2vp0qUsXbr05wvIYGj57yVJUf3hbCpW/WDcNpdYVH2jM9m2GhNIz3XLUDqZPrVuYzsrErcVf+x2aFda/pegtLfB7qG7qVgbg8uyxV2WbZ9kNxeVmXyeliMCjIkBgP2CadjNjqJm+x5qk9KpS8mgelMC1ZsSsIkOxf3Tlzv8jq5Gz549mTNnDrNnz+bo0aPs2rULnU7Hzp07eeutt/DpIgkXQgghbmfKyxe5/Xh6egJw8uRJ0tLSOHbsGHq9vss67W9H2uYGKC7Zbm5to0mvJ+qzz3gnJYWRHh58HB3N9488wtZHH+XtSZOMZdq70Joo9LK1veLr8b7MxOGqhgYAXKzNvyzMVasFoPKSZOXnUlvfYPzZwV5rcuxGvNBM6dLy+elLK0z2O/7uIXxLt+P24fOd1vU6uAbf0u34nPwOl1cXU5eSQeEjL0NT888a843msOh+aGikYvUPZo+rnFt6CprbfaaWo+7Ct3Q73oc/77Rdha01NjPCcf37b/FM+Aiv/auxGNqf6k0JVH2147peQ35+PmlpaRw+fBiDwYCzszNarfbyFYUQQojb1B3bY5Cbm4tOpyMhIYGEhAScnJwICQkhPDwcL6/Lj23uSkx2NgcKCpg/dCirp083OVbZ0GC2joNly4CIs5WVxhv17rK4zCortq29ISW1tWaPn6+pAcDO8peZ+GttebF3pqLSNKZLtwFiYmK6Pcfgvvvuu+J4NH17obCxormojObz5ahcHa+4DaWDLQ6/nU1j3jkqVm7kwooNOCx54IrbuVVoAryxDhtGxaebsb5kFScAy8F+1BSW0HAkB03/Pld9HnVfD1xeeYKCGX+gNv4gttc4OfzChQskJiYSHx/PyZMnUalUDB8+nMWLFxMUFIRSeUc+KxFCCCGAOzQxAPD29mbBggXMnTuXvXv3snPnTjZv3szmzZvx9vY2zjmwv4qVek6Vt0ygDfP27nBs9+nTZuuM6t2b3Xl56E6e7LAs6bXqaWuLs7U1ueXllNXV4dRuomV1YyNZpaVoNRp8HK/8hvhq9Pa4OFwpdf8Jwse2rJx08nQxxSUdh10dP36cpKSky7bb0NBwVYkBSiU294yl6ttdVK2PxWHx9MvX6YTz8/Oo/OJHyt5eh93ce1Dadz7E61bnsHg6hXP/YvYdA9op46jZvoeq9bHX/GKyttWd9JU1V1W/ubmZ1NRU4uLiOHToEHq9Hg8PD+bOnUt4eDgO17hUrxBCCHG7uGMTgzYajYZx48Yxbtw4ioqKiI2NJTY2ljVr1qBUKjtMZu0OP+eWl3vFnTrFr4YNM+4/XFTER/v3m63zxPDh/Cs1ldcTEoj29zeZgNyo15Oan0/INfRkzLzrLlYeOMDrCQn8/e6LT13/vns3VQ0NPDp48FVPPG5u1nOm8OK8gcqqOuPPJaWVnD7TsjqSWqXCo6cjwUF+/B8tw0K2x2fg5GiDV28Xvvgu2Wz7P/scA8Dx/z1M1cZ4yl5fhdXIu7AcfnFiuKHOfC+POUoXB+wX3MeFD77mwvL13XpD8K1Ke88Y1F49qVz3Y4djdnOiKH/vS6q/T6Tysy3Yzb/XeExf3/HzrN6ciKG+Adv7w0xWWjLU1lP2zhcAJr+TK1FcXMy7776LpaUlYWFhREb+//buPKCqOuH/+PuyCQgIyKKooCBCioobZiKbpZWO4doyZVlOM+1NPfU0jTNTzTzZUz1NOc00zdhUWmaW5JaSy1UWFdQAr0gJiCgqiogIiOz8/hDuj8viimn1ef3FPed7zvnec/Xe8znf5cQQ3OL5HiIiInLOzz4YtOTl5cWsWbOYMWMGJpPpggOSOzK+Xz+GeHuz2GTi+JkzjPLx4Wh5OUszM7nZ35812dltthno6ck7t93GE2vXMvi995gaHExfV1eKKytZl5vLLf7+VxQMXomOZm1ODm9u28a3R48yrGdP9hw/zoa8PLy6dmX+zTdf9r5LSs/w0G8XtrvuHx9tMv/t5eHCp/94BJ8ertx+81DWbjw3pemyVanAudmMfHq4cvRY2ylLrza7gf3wWvAsRY+/yZEJT+IQPhSbvj2pP3aSSuMuAGz9L27ee9fHZ1L27xWU/uNLuj0cazEQuWpnFkWPvt7udl1vu4muvwi3WHap5S9abR1FT731/183jXlpeSzPN59s87AxC1ZWdHtoCif/9K82qwyO9vRY/BJHp/43J57+K6cXrqJLaCCNlVVUbj4Xjm0DepvL1+UXcvJP/6L4+XexHz0I6x7uNJwq52zybhpKyrAN8qXbQ+0/x+NCHBwcePjhhxk7diwOHYyzEREREQWDdllZWREaGnrZ29tZW7P+vvv43caNrN+/n8SDBwl0d+ftW29liLd3u8EA4LFRoxjq7c1b27ezIS+PU2fP0tPZmQg/P54cPfqy6wPnBjWnzp3Ln7ZsYV1ODkmHDuHh6Mj9Q4fycnT0D/pwM4AnHpyAq4sj32zZQ1n5WQb49+DxB2/hnX9/w1F++GAA4HTXLdgN8qf0b8s4m7ybs9tMWLl0xfGW0bg+Oh37sUMuaj/WXm44z550Lhy8sxT3l35lXld38BgVB9ufftTGx7PNhf6llr9YjfUNVCzd0GZ5y2Ue8x/lQm1IzvfdSslrH9N4tu3AdbuQAPps/TelCz6nMj6F8mWbMNjZ0GWQP8733YZzi6cZO80aD7bWVK5PpWZvHnXGXRhsbbDt50PXuXfQ7dHpGJwvb2Bwt27duPkKgq+IiMjPhaGxsXmuRhERERER+bnSFBwiIiIiIqJgICIiIiIiCgYiIiIiIoKCgYiIiIiIoGAgIiIiIiIoGIiIiIiICAoGIiIiIiKCgoGIiIiIiKBgICIiIiIiKBiIiIiIiAgKBiIiIiIigoKBiIiIiIigYCAiIiIiIigYiIiIiIgIYHOtKyA/DNfXXuN0dbX59fh+/dg4e3aH5TOOHWPY++9z56BBLJ0x44eo4kXbv38/v/vd77j55pt5+OGHr3V1pB2lpaU8/PDDDB8+nBdeeOFaV+cH8cQTT1BeXs5HH310rasi14FL/c5t3sbexoZj//VfV7t6IiLtUjC4zvzX+vX83/btbL7/fqL69u20/f7t9tuprqvjbF0dT65b12n7vRxHjhzht7/9Lb179+att95qs/7FF18kNzeX+fPnExAQcA1qeGEZGRm8+uqrHa738/PjjTfe+AFr9MN54YUXyMvLY9myZde6Kj9LixYtYs2aNfzpT39i0KBBnbbfZ555hsOHD3e4vvn/a2VlJQ899BA2NjZ8+OGH2Ni0/RlZvXo1ixcvZuLEiTz00EMdHsvT05O///3vnfYe2lNaWsrjjz9Onz59mD9/fpv1a7Kz+cVnn/GnyEheiorqtONeT9+5IiIXS8HgZ+K+IUMAKK2q+tH/SPXq1YtXXnkFV1fXa1YHd3d3IiMjATh9+jQZGRl069aN0NBQADw8PK5Z3USuRFhYGA4ODm2Wd+/eHQBHR0duuOEGMjMzyc7OZuDAgW3KmkwmAEaOHNlm3dGjRzl8+DD9+/cnNzeXvLw8/P39O/ld/H9r1qyhpqaGadOmXbVjtOen9J0rIj8fCgbyo2Nvb09wcPA1rYOvry+PPfYYAN9//z0ZGRn06tXLvEzkx+ree++lR48e5y0zcuRIMjMzMZlMbYJBbW0t3333Hfb29u22aKSmpgLwwAMPMG/ePHbs2HHVgkFFRQXr16+nT58+7YYUERGxpGBwDeTl5WE0GgkICCA6OprXkpP53aZNFmWiP/7Y4vUXM2cyo8UP8LaCAhabTCQePMjhsjJq6+vp5+bGzIEDeW7sWLra2l6Vuu88epSJixfjaGuL8f77GdC9O0uWLMHa2pro6Gi8vLyuynEBZs2aZfH6pzzGoLq6mg0bNpCens6RI0coKyvDwcGBwMBAYmNjLYJRfn4+zz//PBMmTGD//v0UFBQwatQo7rzzThYsWMDhw4cZMmQITzzxBF26dLms+vzP//wPu3fvtljW+vNYuHAhLi4ubbY9dOgQixYtIjs7GysrK4YPH85DDz1E165d25TNyclhxYoVfP/991RWVuLu7s7o0aOZMWMGjo6Ol1X3llasWMGSJUt46qmn8Pb2ZunSpeTk5ADnun/9+te/plevXubyiYmJxMfHU1BQQGNjI3369GHChAlER0d3eIwjR47w4Ycfsm/fPmxsbBg6dCj33ntvu61I2dnZLF++nOzsbKqrq/Hw8OCmm25i6tSpFp9Vc71bevnlly1eP/PMM9x4442XdV4u1ahRo/joo48wmUzcddddFuv27dtHTU0NN954Y7vdjHbs2IGPjw8DBgzAz8+PHTt2tNnHhRQXF7NlyxYqKip44IEHOiy3bt06qqqqmDp1KgaDwbw85fBhxnzwgUXZlxMSeDkhwfz6sVGjePf2282v80tLWZiWxoa8PA6cOsXp6mq8u3ZlQkAAf4iMxK9bt0t6DxeruLKSWxYvJuvECZbOmMHU4GC2bduGyWQiJiaGAQMGXJXjisjPk4LBD6SiooKkpCSMRiMHDx4E4NFHHwXgF0FB9G66oPosM5O1OTm8OG4cN7S4kAhrcbECsCA1lXW5uUT6+TG+Xz/srK1JKyzk5YQENuTlkTRnDlYtfgg7w9aCAm7/9FPcHRzYNHs2/m5uAFRVVREfH8/y5csJCQkhJiaG0aNHY9vJ4eTxxx8HoKio6Cffv724uJhFixbRt29fQkJCcHd3p6ysjJ07d/LSSy/x/PPPM3z4cIttNm/ezC233ALA1q1b2b17N6Ghobi5ubFjxw6++eYbpkyZcln1ueOOOxg3bhwAy5Yto6ioyPx5NGuv+0lJSQkvvfQSgYGBREREYDKZSE5Opra2lmeffdaibFJSEn//+99xcnJi1KhRODk5kZ+fz5o1azCZTPzlL3/B3t7+surf2qFDh3jvvffw8PBg2LBhlJWVkZOTw4kTJ8zB4IsvvuCLL77A1dWV6OhorKysSElJ4b333qOwsJB77rmnzX7r6ur485//jJeXF7fddhuHDx9m27Zt7Nu3j9dffx1nZ2dzWZPJxPz58zEYDIwdOxZXV1dMJhNxcXFkZWXx0ksvYWV1buK4ESNG4O7uDpz7bNPT05k6dapFiOnfv3+nnJuL4enpia+vL/v376eiogInJyeL9wXtdyM6efIk+/fvZ9KkSQAMGzaMFStWcPToUXx8fM57zLq6Onbt2oXRaGT37t00NjYSdZ4xAVVVVaxbtw5vb29uuukmi3X93d1ZPHUqcG6ihf/bvp2pwcFMu+EGc5mgVkEuPjeX/926lXBfX2KDg3F3cCDv1CkWm0yszs5m569+hW8nh4NjFRXcvGgR+0+d4qs77+T2wEAADAYDRqMRo9FI7969iYmJISIiot1gLiJyKRQMrqLGxkYyMzMxGo2kpqZSV1eHl5cXM2bMIDIyEm9vbwAGeXoyyNMTOPcjtTYnh1v8/c87+Pj3ERF8FBuLfas7cs9t2MCb27axOjubO4KCOu29bM7P5xdLluDj7Mym+++nT4sfoAcffJDIyEgSEhJITk5mwYIFdO3alXHjxhETE0PfDt5HSUkJCxYsaLP8+PHj7ZaPiIgAzs1K9FMPBm5ubrz99tttLpbuvPNOnn76aZYuXdomGISHh/PAAw+YB3d3796dJ598koaGBu6//3727dt32fUJCQkx/7127VqKiorMn8f55Ofn86tf/cocWKqqqnjiiSfYuXMnZ86cMbcaFBcX889//hN/f3/+8Ic/WISMdevW8eGHHxIfH09sbOxlv4eWvv76a2bOnMkdd9xhXlZaWkp9fb25PsuXL8fJyYnXX3/dPJ5l+vTpPPvss6xcuZKoqKg2n09NTQ2BgYEWoWfp0qXExcXx1VdfMbtpVprGxkY++OAD6uvrmTdvHkOa+qPffffdvPbaa2RkZLB582bGjx8PQJ8+fejTp4/5nKanpzNkyJBOHXzcbNGiRe0GsJEjR1pcYI8cOZJDhw6RmZlp0VJhMpnMLUOtNXcjah6LExoayooVK0hNTWVq04V6awUFBRiNRhITEykvL6dr167cfPPNREZGnvdu+fr166moqOCXv/ylOWA183B05N6mc+5qb8//bd/OEG9v87L2TOzfn6PPPotnq5arr3NymLxkCX9NSeGvEyd2uP2lOlxWxvhFizhSVsbX99xDTL9+5nVjxowhMDCQhIQEEhISWLRoEUuWLGHkyJHExMQwZMiQNu9ZRORiKBhcBc3N3Js3b+bEiRM4ODgQERFBZGQkwcHBFk3al2twiy47lbW1VNTU0NDYyOimO4iphw93WjD4Zv9+pi5dSj83NzbNnk2PFncHmwUEBBAQEMDs2bNJS0tjy5YtbNiwgfj4ePz9/YmJiSE8PNyiO0hlZSXJycmdUsefGkdHR/O5amhooLKykrq6OgwGA7169SI3N5eamhrs7OzM23g2hcvmLivNwdPKygo3NzdOnTr1A78LcHV1NV/cwrnxIUOHDiUxMZHCwkLzXW6j0UhtbS2TJk2itraW2tpa8zbN3VYyMjI6LRj07t3bIhQ017XZjh07aGhoIDo62mK5s7Mzt9xyC1988UWHF7OtW2Vuv/12VqxYQUpKijkYHDp0iMLCQvz9/c2hAM59VrGxsWRkZLB9+3aLc/dD2bVrV7vLu3fv3iYYxMXFYTKZzMGgvLycAwcOcMMNN1i0IjTbsWMHdnZ23NB0Zz4oKAgHBwd27NhhcS7Pnj3Ltm3bMBqN5OTkYGVlRWhoKJGRkYwcOfKCrZE1NTWsWbPGYpKAK9Wvxb+Dmvp6TldXU9/QwFBvb6wMBlLPM6PTpcovLSXm4485efYs8ffeS7ivb5syHh4eTJ8+nenTp7Nv3z4SEhLYtm0bKSkpdO/enaioqKvevVNEfnoUDK6CefPmUVJSQnBwMHfffTdhYWEWF3CdobSqilcSEli2dy9HysvbrC9rMX/2ldh59Chfff89NfX1TAoMbDcUtGRjY0NYWBhhYWGUlZWRnJxMfHw8CxcuZPfu3Tz33HPmshearvTnLj09nRUrVpCTk0NdXV2b9VVVVRb/rpr/br5oar2upqbmKte4LR8fnzZ3Lpu7O5w9e9a8rPnzfueddzrcV2cGmwsNRG2etrNfi7u0zZqXdTS1p5+fn8VrFxcX3N3dKS4upqqqCnt7e/O27Q26bW5hO9/UoVfTggULLjj4GM7dDGju/tRsz549NDY2tnt+y8rK+P777wkNDTX/27S2tmbw4MHs2LGD4uJic6hduHAhSUlJeHl5MXv2bMaNG0e3S+imYzQaKS0t5YEHHmh3nMPlaGhs5G87drAwLY2sEydoaGy0fH+d9J17praWiA8/pKCsjBt792ZMU0vR+QQFBREUFMScOXPYuXMn69evZ/ny5axbt07P1RCRS6JgcBX07t2bkpISDhw4QHp6Oi4uLoSEhHRa025dQwPjFy0irbCQO4KCeCUoCG8nJ6wNBrJOnODZ9eupa2jolGPlnTrFOF9fTlRW8n/bt3NbYCDRF/F8herqakwmExkZGRQVFWEwGC7Yh1j+v5SUFN566y1cXV2ZNm0avXr1MnevWbJkCfn5+TR08Bm39+/MYDCYu8n8kM43JqCxxYXVmTNnAHjyySc77Cd9uQOn29PcutKRqqoqAIsxAc2al7UMNs3s7OzavQng5ORkEQya99/eXXVHR0esra3NZa5XBoOBESNGsGnTJo4fP463t/d5xxfs2rWLhoYGKioqWLRokXl5WVkZcK414famwb49e/bEysqKEydOkJGRgYuLC2FhYRc1xqSuro5Vq1bh4uLSqS0uT8fH87cdOxjWowd/nTgRP1dXulhbA/CLzz7rtO/cipoanO3smDxgAGuys/lLYiJ/uohWj4aGBvbt20d6ejp5eXnAud8iEZFLoWBwFcybN4+DBw9iNBpJSkoiKSkJNzc3wsPDiYyMxLedZuFLEZ+bS1phIbOHDuXjVl0ryjv5rvCwHj345r772FdczOiFC7k3Lg7TI4/QvZ2Bpo2Njezdu5fExERSUlKoqqoyj6mIjo42z4MuF7ZixQoMBgOvvPJKm7u3LS+qfiqaxxp4enoS1IljYzpyobvIzReg5e20xjUva2+wdU1NTZsuXnBu8oGW2zTvv3l5S5WVldTX13faQOuraeTIkWzatAmTycQtt9yCyWSiV69e7bY4NI8vyM7OJjs7u836lsFgxowZjB8/noSEBIxGI++++y5dunRh9OjRREREnPdGS1JSEsXFxdx9992dFiZLq6p4b9cuBnTvzraHHrIY23WisrLTQgGAo60tyQ8+iGfXroT+85/8OSGB8f36tdudCM61LCUmJpKYmEhJSQmOjo5EREQQExNzVZ8PISI/TQoGV4mfnx9z5szh3nvvZefOnWzatInVq1ezevVq/Pz8zGMOWt8dtW76sTvfD01+aSkAEa26LABsPXTovPXqameHlcFAZYs+3OczoHt3HGxsCO3Rg1fHj+e/1q/nwZUrWdliesFjx46ZQ9DJkyextbUlLCyMmJgYQkJCOmVMxc9NUVERbm5ubS6wSktLOXbs2DWq1TnNF2T19fVYN90xvVIBAQFkZGSQnp7+gwSDC2m+05qfn094eLjFugMHDliUaS0/P99iUGxZWRklJSV4enqaL1Sbt23eV+vtz7f/luf/Whs8eDB2dnaYTCZCQkIoLi5uM3YDzrWu7NmzB19fX9588802659//nm+//57ysrKzN+Jbm5uxMbGEhsbS1ZWFkajkZSUFBITE3Fzc2PcuHFERUVZnKeGhgZWrFiBo6MjEy9yIPDFfOceLiujrqGBsF692kz40Nnfuc52duYZ35ZMn074f/7DL+Pi2P2b3+DaIlA2h4Hm1oGBAwdyzz33cOONN3Z611UR+fnQtAVXma2tLTfddBN/+MMfePfdd5kxYwZnzpxh8eLFJCUltSnv1XTnNOvEiQ73GdA0bWFC0wVEsz1FRbz/7bfnr4+VFX1dXcksKrrkPrHPjBnDzf7+rNq3j3d37DAvX7ZsGStWrMDJyYk5c+bw/vvv89RTTzF48ODrIhQYjUbefvvtH1Vf2x49elBaWkphYaF5WWNjI4sXL/esZMMAACAASURBVG53vMEPqfnCrTP7wMfExGBjY8PatWvNF8YtZWVlWfRlv9pGjRqFlZUVRqOR4uJi8/KSkhI2btyIwWBg9OjR7W67evVqi9erVq2ioaGBMWPGmJf5+vrSo0cP9u/fT1pamnl5XV0dcXFxABblW2rua3+txiC0ZGdnx5AhQ8jMzCQjIwNovxtRWloadXV1DB48uN39DBkyhIaGhg4HPg8cOJDHH3+cf/3rX8ydOxc3NzdWrVrV5tkOKSkpFBYWcuutt170cy8u5ju3n5sbBs49/6C6RSA7XV3N743G8+7/Sr5zR/fqxR8jIzl0+jS/avHvKjU1lY8++ohTp04xdepUFixYwEsvvURERIRCgYhcEbUY/IC8vLyYNWsWM2bMwGQytfsFfntgIP+9YQN/3LyZo+Xl+Lm6YgAmBASY7yKN79ePId7eLDaZOH7mDKN8fDhaXs7SzExu9vdnTTvN9C09OXo0T8fHM+7DD5kUGIidtTUjfXyYfIEH5RiAj2NjGfLeezy3YQORffsy2MuLsLAwJk+efFWbrdPT0zl9+jRw7m46wNGjR9myZYu5zKhRo9p9aFZubi7btm3D29v7vA9DuhSHDh0yXwA21+vIkSP8/e9/B87NGHLnnXde9v4nT57M22+/zbx58xg7diz29vZkZGRw+vRp+vXr1+6d5h/KyJEjSUtL46233iIqKsp8zqOioi77osTT05Pf/OY3/OMf/+DFF19k5MiR9OzZkzNnzrB3716OHDnC/fffbzGDz9Xk6enJ9OnT+eKLL3jhhRcYOXIkVlZW7Nq1i9LSUmJjY9sdM2NnZ0dOTg5//OMfCQoK4sCBA5hMJjw8PCxmVDIYDMydO5f58+fzxhtvEBYWhpubG5mZmRw6dIjg4OAO5+gfNmwYn376KcuWLePUqVPm8RJDhw41z0R1JT755JN2u0kBPPLII2268IwcOZJdu3axZs0aXFxcCGyaa7+l5m5E5wsGq1atIjU1lZiYmA7r5ujoyIQJE5gwYQIHDx6koKDAYv1XX32FnZ2duUvSxRjq7U0fFxdW7tvHQ6tWMaxHD2ysrAjx8jJ33+lqa8vDI0bw/rffMuL995k8YABVdXV8mZXFQE9PcktKznuMy/3OBXhx3DjW79/Pl1lZ/DstjV8NH06fPn347//+b4YNG6ZpSUWkUykYXAPNU++15wYPDz6fOZP5SUksSE3lbNPd4S9mzjQHAztra9bfdx+/27iR9fv3k3jwIIHu7rx9660M8fa+YDB4IiyMk5WVLExLY37TdKG/HjHion6kfJydWThlClM//5y7vvySXQ8//IM8bTUuLq7NPPxZWVlkZWWZX7/55pvtBoPKykrgwgNOL0VJSQkJLZ6SCucCQvMyPz+/KwoGN910EwaDgRUrVrB582bs7OwYPHgwzz//PO+///4V1f1KxcTEUFpaSkJCAsuWLTN3abnSLgwRERH06tWLVatW8d1337Fz506cnJzo2bMn99xzT4d30K+WmTNn4uXlxTfffGOeVrd3797cddddHV682tjYMG/ePD788EPWrVuHjY0NN910E/fdd1+bgcZDhgzh5Zdf5ssvv2T37t3U1NTg4eHBtGnTmDp1aofdtHr37s3TTz/NihUrWLdunXm2qWeeeaZTgsGOFq2Brf3mN79ps2zEiBEYDAZOnDhBVFRUmwvV2tpaMjIysLKyMk9T2lpwcDB2dnbs2bOHysrKi7rb7+fnZzED1K5duzh48CCTJk26pAd92VhZseaee3huwwaWZ2Xxn/R04NyTj1v2619w2230dnFh0e7dvJ2SgreTE/cMHszL0dG4vfbaeY9xJd+51gYDn0ybxtD33uPp+HjCfX25QU87FpGrxNDY2GrONZGfmIcffpjS0lJeeuklBg4ceK2rIyJXwe9//3sOHDjAu+++a35KtIiIXBq1QcpPWkFBAaWlpQwdOlShQOQnas+ePeTk5BAVFaVQICJyBdSVSH7S9uzZA8Ddd999jWsiIlfL4MGDWbZs2bWuhojIj566EomIiIiIiLoSiYiIiIiIgoGIiIiIiKBgICIiIiIiKBiIiIiIiAgKBiIiIiIigoKBiIiIiIigYCAiIiIiIigYiIiIiIgICgYiIiIiIoKCgYiIiIiIoGAgIiIiIiIoGIiIiIiICAoGV2zXrl3MmjWLTz755FpXRURERETksikYXKG4uDhsbW2ZPHnyta6KiIiIiMhlUzC4AiaTidzcXGJiYnB1db3W1RERERERuWw217oC16O8vDyMRiMBAQFER0d3WC4uLg5ra2umTJlisTx26VI25uUxLyKC+cnJuNnbs3DKFNKPHePVpCRc7e3568SJxAYHm7fZVlDAYpOJxIMHOVxWRm19Pf3c3Jg5cCDPjR1LV1vbduuwraCAt7ZvZ2tBASVnz9LTyYmovn15ZswYhnh7tylv/5e/0NfVlcxHH+XPiYks3r2bo+XleDs5MSc0lJeiosxlD5eV8dKWLazLzeXEmTN4ODoysX9/Xo6KwrdbN3O5JUuWYG1tTXR0NF5eXhd7mkVERETkOqJg0KSiooKkpCSMRiMHDx4E4NFHH+2wfHZ2NllZWURFReHp6dlmfWVtLSv37eOB0FDe27mTO7/8km5dujB3+HAW7d7NnJUrmTRgALZW5xptFqSmsi43l0g/P8b364edtTVphYW8nJDAhrw8kubMwcpgsDjGP3ft4rG1a7G3sWFqcDB+rq6cOHOGr3NysLGyYmGrwNLSnJUrWZ6VRWTfvoz08WFPURHxubnmYFBYUcHohQs5Wl7Obf37E9qjB5lFRXyUkcG6nBx2PvwwfVxcAKiqqiI+Pp7ly5cTEhJCTEwMo0ePxraDMCMiIiIi15+fdTBobGwkMzMTo9FIamoqdXV1eHl5MWPGDCIjI/Fu5457s+XLl2MwGIiNjW1/38CymTPp4+LC8YoKPt+7lw+mTCE2OBgPR0de2LiRrBMnGNp0jN9HRPBRbCz2NpYfyXMbNvDmtm2szs7mjqAg8/Lviot5Yt06ujs4kDJ3Lv5ubuZ11fX1bC8o6LDuB0+fphHY98QT5ot7gG8LC81//3HzZo6Wl/PiuHH8T0yMefmrSUn83mjkdxs38sm0aQA8+OCDREZGkpCQQHJyMgsWLKBr166MGzeOmJgY+vbt22FdREREROT68LMMBsXFxWzZsoXNmzdz4sQJHBwciIiIIDIykuDgYAyt7sy3lp+fT3p6OmPGjMHHx6fdMtYGA72bLrqbu900X7w3X4wXlpebg8HgFl1wKmtrqaipoaGxkdG9egGQeviwRTD417ffUtfQwIvjxlmEAoAu1tZEnedivKqujrcmTrQIBQAjevY0/x333XfYWVvz7JgxFmWeHD2a+cnJfPX999Q3NmLddK4CAgIICAhg9uzZpKWlsWXLFjZs2EB8fDz+/v7ExMQQHh6Oo6Njh/USERERkWvnZxkM5s2bR0lJCcHBwdx9992EhYVhZ2d30dvHxcUBMHXq1A7LdLGxoTleNLcCODR1rWl+fbauzly+tKqKVxISWLZ3L0fKy9vsr6y62uL1ziNHABjv73/R9W5ma2XFrf37d7j+WEUFJWfPMqB7d9wdHCzWOdnZEejuTvqxY+SXlhLQKpTY2NgQFhZGWFgYZWVlJCcnEx8fz8KFC9m9ezfPPffcJddXRERERK6+n2Uw6N27NyUlJRw4cID09HRcXFwICQnByurCkzQdOXKE1NRUhg8fft4uMi3bHJrHBhhava5vaACgrqGB8YsWkVZYyB1BQbwSFIS3kxPWBgNZJ07w7Pr11DWVbXa6KSj0dHK6uDfdQm8XF/Od/vZU1NQA0L1VKGjm0XTXv7xVWGmpuroak8lERkYGRUVFGAyGDltXREREROTa+1kGg3nz5nHw4EGMRiNJSUkkJSXh5uZGeHg4kZGR+Pr6drjtV199RWNjI9Oa+td3hvjcXNIKC5k9dCgftxqzUN50kd5aty5dADhaXm6+UL9YdtbW513v1NR6cvLs2XbXF1dWAuDcVIdmjY2N7N27l8TERFJSUqiqqjKP2YiOjqZ79+6XVE8RERER+eH8LIMBgJ+fH3PmzOHee+9l586dbNq0idWrV7N69Wr8/PzMYw5cWvTDLyoqIjk5mUGDBjFgwIBOq0t+aSkAEX5+bdZtPXSo3W1G9erF1oICjAcOtDst6ZXo4eSEu4MDB0tLOVVVhZu9vXndmdpackpKcLS1pW/TsxuOHTtmDlknT57E1taWsLAwYmJiCAkJueCYDRERERG59n72DziztbXlpptu4g9/+APvvvsuM2bM4MyZMyxevJikpCSLsitXrqShoaFTWwsAAtzdAUjIz7dYvqeoiPe//bbdbX41fDjWBgOvJiWRd+qUxbrahgaSOwgUF2vaDTdQXV/Pq63OwRtbt1JRU8PU4GBzd6Rly5axYsUKnJycmDNnDu+//z5PPfUUgwcPVigQERER+ZH42bYYtMfLy4tZs2YxY8YMTCaTxYDkU6dOsXnzZvr378/gwYM79bjj+/VjiLc3i00mjp85wygfH46Wl7M0M5Ob/f1Zk53dZpuBnp68c9ttPLF2LYPfe4+pwcH0dXWluLKSdbm53OLvT/h5ukRdyCvR0azNyeHNbdv49uhRhvXsyZ7jx9mQl4dX167Mv/lmc9mwsDAmT56M/2UMhBYRERGR64OCQTusrKwIDQ21WLZ69Wrq6uo6vbUAzvX5X3/fffxu40bW799P4sGDBLq78/attzLE27vdYADw2KhRDPX25q3t29mQl8eps2fp6exMhJ8fT44efUV16unkROrcufxpyxbW5eSQdOgQHo6O3D90KC9HR1tMdXrjjTde0bFERERE5NozNDY2Nl7rSlzvysvLefTRR/H29uaNN95Q9xgRERER+cn52Y8xuBhff/011dXVxMbGKhSIiIiIyE+SWgxEREREREQtBiIiIiIiomAgIiIiIiIoGIiIiIiICAoGIiIiIiKCgoGIiIiIiKBgICIiIiIiKBiIiIiIiAgKBiIiIiIigoKBiIiIiIigYCAiIiIiIigYiIiIiIgICgYiIiIiIoKCgYiIiIiI8DMIBrt27WLWrFl88skn17oqIiIiIiLXrZ98MIiLi8PW1pbJkydf66qIiIiIiFy3ftLBwGQykZubS0xMDK6urte6OiIiIiIi1y2ba12BS9XQ0EB6ejpGo5G77rqLPn36dFg2Li4Oa2trpkyZYrE8dulSNublMS8igvnJybjZ27NwyhTSjx3j1aQkXO3t+evEicQGB5u32VZQwGKTicSDBzlcVkZtfT393NyYOXAgz40dS1db23brsK2ggLe2b2drQQElZ8/S08mJqL59eWbMGIZ4e1uUTTl8mDEffMCvR4zgpagoXti4kXW5uZRXV+Pv5safY2KY2qJOKYcP8+fERLYXFHCmtha/bt24MySE34WH49hOfY6fOcNrycl8nZ1NQVkZjra2+Lu5cVv//rwSHW0ut2TJEqytrYmOjsbLy+v8H4iIiIiI/CT8aILBsWPH2Lx5M1u2bOHUqVPY2Njwy1/+ssPy2dnZZGVlERUVhaenZ5v1lbW1rNy3jwdCQ3lv507u/PJLunXpwtzhw1m0ezdzVq5k0oAB2Fqda1RZkJrKutxcIv38GN+vH3bW1qQVFvJyQgIb8vJImjMHK4PB4hj/3LWLx9auxd7GhqnBwfi5unLizBm+zsnBxsqKha0CS7OzdXVEfPghp6urCff1pba+nl1Hj5J6+LA5GGzMy+P2Tz/FymDgrpAQejg5sSEvj78kJpKQn8/mBx7AukV9ztbVEf6f/7C/pIRfBAUxa9AgTldXs+f4cf6SmGgRDKqqqoiPj2f58uWEhIQQExPD6NGjse0g/IiIiIjIj991HQxqampISUnBaDSSlZUFQGBgINOnT2fs2LF07dq1w22XL1+OwWAgNja23fWNwLKZM+nj4sLxigo+37uXD6ZMITY4GA9HR17YuJGsEycY2nRX//cREXwUG4u9jeUpe27DBt7cto3V2dncERRkXv5dcTFPrFtHdwcHUubOxd/Nzbyuur6e7QUFHdb9i717uS0wkE+mTcOh6XjV9fXknDxprvtja9dS29DA+vvu4xZ/fwBebWxk0pIlxOfm8mF6OnOHDzfv03jgALklJTwyciT/mDTJ4nh5p05ZvH7wwQeJjIwkISGB5ORkFixYQNeuXRk3bhwxMTH07du3w7qLiIiIyI/TdRkM8vLyMBqNJCcnU1lZiYeHB9OmTSMiIgIfH58Lbp+fn096ejpjxozpsLy1wUBvFxcAfLt1AzBfvPdpWl5YXm4OBoNbdKmprK2loqaGhsZGRvfqBUDq4cMWweBf335LXUMDL44bZxEKALpYWxN1notrK4OBf0yaZA4FzduENNVhz/HjZJ88yUgfH3MoaN7uhfBw4nNz+SIryyIY1DU0AGBrbd3meK3rBxAQEEBAQACzZ88mLS2NLVu2sGHDBuLj4/H39ycmJobw8HAcHR07fB8iIiIi8uNx3QWDY8eO8cILLwAQHh5OTEwMgwYNwtCqm875xMXFATB16tQOy3SxsaF5j82tAA5NXWWaX5+tqzOXL62q4pWEBJbt3cuR8vI2+yurrrZ4vfPIEQDGt7hwv1ije/fG+zytIVknTgAwvGfPNuuG9ehhUabZOF9fPB0deXfHDg6XlXGLvz8jfXwY1rOnRZej1mxsbAgLCyMsLIyysjKSk5OJj49n4cKF7N69m+eee+6S35+IiIiIXH+uu2Bgb2+Ph4cHxcXFZGZm4ubmhrOzM35+fhe1/ZEjR0hNTWX48OHn7fLS8lK4eWyAodXr+qa77HUNDYxftIi0wkLuCArilaAgvJ2csDYYyDpxgmfXrzffkW92uiko9HRyuqh6t+TX1ILRkYqaGgC6Ozi0WefSpQu2VlaUtwoq7g4ObHvoIV5OSGBtTg5x331nXj4vIoLf3njjeY9ZXV2NyWQiIyODoqIiDAbDRbXeiIiIiMiPw3UXDFxdXXn33XcxmUwYjUbWrVvH6tWr8fX1JTIykvDwcNza6frS7KuvvqKxsZFp06Z1Wp3ic3NJKyxk9tChfNxqzEJ500V6a926dAHgaHk5HpfY3caune4+LTnZ2QFw8uzZNuvKqqupbWjAuen4LfV3d2fx1Kk0AtknT7Jq3z7mJyXxzDffEOLlZdEtCaCxsZG9e/eSmJhISkoKVVVVeHl5MWPGDKKjo+nevfslvS8RERERuX5dd8EAwMrKitDQUEJDQykvLycxMRGj0cjixYv59NNPCQkJITIykjFjxmDToh9+UVERycnJDBo0iAEDBnRaffJLSwGIaKfVYuuhQ+1uM6pXL7YWFGA8cKDNtKRXamDTLEvphYVt1qUfO2ZRpj0GIKh7d5676SZ6OTvzy7g4EvLzzcHg2LFjGI1GkpKSOHnyJLa2toSFhRETE0NISMgldesSERERkR+H6zIYtOTs7MykSZOYNGkSubm5bNq0ia1bt2IymejTp49Fd6GVK1fS0NDQqa0FAAHu7gAk5Ofz0LBh5uV7iop4/9tv293mV8OH87fUVF5NSmJKUJDFAN/ahgZSDx8m3Nf3suoz2NubQHd3dh49ytc5OUwKDASgpr6eV5OSAJg5cKDFNt8VF+NkZ2ceWN0st6QEgO4tWjWWLVtGcnIyfn5+TJkyhXHjxuF0GV2iREREROTH47oPBi3179+f/v37c//995OSkmJxsXrq1Ck2b95M//79GTx4cKced3y/fgzx9maxycTxM2cY5ePD0fJylmZmcrO/P2uys9tsM9DTk3duu40n1q5l8HvvMTU4mL6urhRXVrIuN5db/P0vOxgYgL9PmsSkTz9l6tKlTL3hBnycndmUl8eeoiLG+fryQGioxTab8vJ4Kj6eCD8/Bnp64mZvj+n4cb7OycHH2Zl7hwwxlw0LC2Py5Mn4X8bAaRERERH5cfpRBYNm9vb2REVFWSxbvXo1dXV1nd5aAOf6/K+/7z5+t3Ej6/fvJ/HgQQLd3Xn71lsZ4u3dbjAAeGzUKIZ6e/PW9u1syMvj1Nmz9HR2JsLPjydHj76iOt3i70/CnDn8OSGB9fv3U1lbi2+3bvx+3DheHDcOm6YHszUb7+/PY6NGkXToEJ/t2UN1fT19XFx4avRonhs7Fs8WLQY3XmAgsoiIiIj89BgaGxsbr3UlrlR5eTmPPvoo3t7evPHGG+oDLyIiIiJyiawuXOT69/XXX1NdXU1sbKxCgYiIiIjIZfhJtBiIiIiIiMiV+Um0GIiIiIiIyJVRMBAREREREQUDERERERFRMBARERERERQMREREREQEBQMREREREUHBQEREREREUDAQEREREREUDEREREREBAUDERERERFBwUBERERERFAwEBERERERwOZaV+CnKOPYMYa9/77Fsj9HRzMvIuIa1UhERERE5PyueYvBxx9/zKxZs0hLS7vWVek0vt268e9f/IJ//+IXPDZq1LWujoiIiIjIBV3TYFBWVsbGjRvp27cvw4cPv5ZV6VTuDg7MHT6cucOHc7O//7WujoiIiIjIBV3TYLB27Vqqq6uZNm3atayGiIiIiMjPXqePMWhoaCA9PR2j0chdd91Fnz592i1XWVlJfHw8Pj4+hIWFtVsm9cgRXktOJvnQIU5XVdHLxYVpN9zAHyMj6dali7ncI19/zT937WLj7NmM79evzX4mfvIJ6/fvJ/fJJwlwcwNgW0EBi00mEg8e5HBZGbX19fRzc2PmwIE8N3YsXW1tzdvHLl3Kxrw85kVEMD85GTd7exZOmUL6sWO8mpSEq709f504kdjg4Ms6Z6+//jqhoaGEh4fj6Oh4WfsQEREREbkSndZicOzYMT777DMeeeQR/vd//5f09HSsra07LB8fH09lZSWxsbFYWbWtxqd79jD2gw/YeugQscHBPH3jjQzo3p23tm9n3H/+w5naWnPZewYPBmBpZmab/RRXVmI8cIAbe/c2hwKABampLNmzhwA3N+4fOpRHR43Cu2tXXk5IYMLixTQ0Nlrsp7K2lpX79vFAaChHy8u588sveW/nTuYOH05lbS1zVq6ktqHhks8bwPHjx1m4cCEPP/wwf/vb39i7dy+NrY4vIiIiInI1XVGLQU1NDSkpKRiNRrKysgAIDAxk+vTpjB07lq5du7a7XXV1NWvXrsXDw4Nx48a1WV9QVsbcVasY4ePDxtmzcbazM6/7244dPLluHX9LTeWF8HAAwn198e3WjbjvvuMfkyZh2yJofJGVRV1Dgzk8NPt9RAQfxcZib2N5Cp7bsIE3t21jdXY2dwQFmZc3AstmzqSPiwvHKyr4fO9ePpgyhdjgYDwcHXlh40ayTpxgqLf3pZ1EzrUYZGRkkJCQwPbt20lKSqJHjx5ER0cTGRmJu7v7Je9TRERERORSXFYwyMvLw2g0kpycTGVlJR4eHkybNo2IiAh8fHwuuP3GjRspKytj7ty57bYqfJCWRlVdHb+98Uaq6+qorqszr4sNDubp+Hjic3PNwcAA3BUSwutbt7J+/34mBQaay3+2Zw/WBgN3DhpkcYzBXl7mvytra6moqaGhsZHRvXoBkHr4sEUwsDYY6O3iApybdQjAv6kFok/T8sLy8ssKBtbW1owYMYIRI0ZQUVHBtm3b2LJlC5999hmff/45oaGhxMTEMGLEiPO2woiIiIiIXK5LDgbHjh3jhRdeACA8PJyYmBgGDRqEwWC4qO3r6upYvXo1rq6uREVFtVsm9cgRAO5evrzD/RRWVFi8vmfwYF7fupWlmZnmYHCkvJzkQ4eYEBCAV6vWi9KqKl5JSGDZ3r0cKS9vs/+y6mqL111sbGh+h82tDA5N4xCaX59tEWAul5OTExMmTGDChAkcPXqULVu2sH79etLS0njggQe4/fbbr/gYIiIiIiKtXXIwsLe3x8PDg+LiYjIzM3Fzc8PZ2Rk/P7+L2n7Lli2UlJRw7733Yteii1BLpVVVACyZPh3PDgbjOrYYHAww1NubQZ6erPz+e6rq6rC3seHzzEwagV8OGWJRtq6hgfGLFpFWWMgdQUG8EhSEt5MT1gYDWSdO8Oz69dS1Gi/QMvZYNYUgQ6vX9Zc5xqA9paWlpKWlkZGRQWVlJV26dMHDw6PT9i8iIiIi0tIlBwNXV1feffddTCYTRqORdevWsXr1anx9fYmMjCQ8PBy3FoN8W2poaGDFihXmu+IdHsPeHgC/bt24qYNZjdpzz+DB/N5o5OucHKbfcAOfZWbiYGPD1FazBcXn5pJWWMjsoUP5ODbWYl15Tc1FH6+z1dTUsHPnThISEjCZTDQ0NBAYGMivf/1rxo4di33TeRERERER6WyXNcbAysqK0NBQQkNDKS8vJzExEaPRyOLFi/n0008JCQkhMjKSMWPGYNNicG9ycjJFRUXMmjXrvBe5o3x8iM/NZW1OzmUFg6WZmYT26MGuo0e5c9AgnFq1TOSXlgIQ0U4rx9ZDhy76eBfDpWla1coWsyi19t1337FlyxZSUlI4e/Yszs7O3HbbbYwfP57evXt3an1ERERERNpzxc8xcHZ2ZtKkSUyaNInc3Fw2bdrE1q1bMZlM9OnTh759+wLQ2NjIihUrsLe359Zbbz3vPh8aPpzXt27lndRUZg4a1GZAb8LBg9TU13NLq6cK93V1ZUzv3nydnW2emrT1bEQAAU2z/CTk5/PQsGHm5XuKinj/228v+RycT2D37sC55yZ05J133uHUqVMMHTqUmJgYRo4caRGoRERERESutk69+uzfvz/9+/fn/vvvJyUlBScnJ/O6HTt2cPjwYaZMmWKxvD1+3brx7ylTeHDlSsL+/W/uCAoisHt3Tp09y5b8fL4rLuavEye2CQZwLghsP3yY/9u+HXcHB27t379NmfH9+jHE25vFJhPHz5xhlI8PaH0gpAAAAWhJREFUR8vLWZqZyc3+/qzJzr7yk9Gkj4sLscHBrPj+e27/9FNG9eqFAZgxcCAhTTMjTZ06lZEjR9K9KUSIiIiIiPzQrsptaXt7+zYzDn311VfY2toyefLki9rHfUOGcIOHB29s20bSwYOs+P573B0cCOzenfnjxzOz1fSjze4MCeG333xDXUMDMwYOxK6d6T3trK1Zf999/G7jRtbv30/iwYMEurvz9q23MsTbu1ODAcDCKVNwsLHh65wc1uXmAhDs4WEOBhMnTuzU44mIiIiIXCpD4w/wiN2MjAxeffVVbr31Vh588MGrfTgREREREblEVhcucuXi4uKwtrZmypQpP8ThRERERETkEv0gLQYiIiIiInJ9+0FaDERERERE5PqmYCAiIiIiIgoGIiIiIiKiYCAiIiIiIigYiIiIiIgICgYiIiIiIoKCgYiIiIiIoGAgIiIiIiIoGIiIiIiICAoGIiIiIiIC/D8qlvuzH3UprgAAAABJRU5ErkJggg==;" vertex="1" parent="1">
          <mxGeometry x="175" y="200" width="521.85" height="471.29" as="geometry" />
        </mxCell>
        <mxCell id="htXlGPYzkKtCfoeAobpg-3" value="&lt;b&gt;EvaML&lt;/b&gt;&lt;div&gt;&lt;span style=&quot;background-color: transparent; color: light-dark(rgb(0, 0, 0), rgb(255, 255, 255));&quot;&gt;Script&lt;/span&gt;&lt;/div&gt;" style="text;html=1;align=center;verticalAlign=middle;resizable=0;points=[];autosize=1;strokeColor=none;fillColor=none;" vertex="1" parent="1">
          <mxGeometry x="50" y="493" width="60" height="40" as="geometry" />
        </mxCell>
        <mxCell id="htXlGPYzkKtCfoeAobpg-4" value="" style="strokeWidth=2;html=1;shape=mxgraph.flowchart.annotation_1;align=left;pointerEvents=1;fillColor=#dae8fc;strokeColor=#6c8ebf;" vertex="1" parent="1">
          <mxGeometry x="179" y="294" width="10" height="81" as="geometry" />
        </mxCell>
        <mxCell id="htXlGPYzkKtCfoeAobpg-6" value="" style="strokeWidth=2;html=1;shape=mxgraph.flowchart.annotation_1;align=left;pointerEvents=1;fillColor=#f8cecc;strokeColor=#b85450;" vertex="1" parent="1">
          <mxGeometry x="179" y="395" width="10" height="142" as="geometry" />
        </mxCell>
        <mxCell id="htXlGPYzkKtCfoeAobpg-7" value="" style="strokeWidth=2;html=1;shape=mxgraph.flowchart.annotation_1;align=left;pointerEvents=1;fillColor=#d5e8d4;strokeColor=#82b366;" vertex="1" parent="1">
          <mxGeometry x="179" y="558" width="10" height="81" as="geometry" />
        </mxCell>
        <mxCell id="htXlGPYzkKtCfoeAobpg-8" value="" style="endArrow=blockThin;html=1;rounded=0;entryX=0;entryY=0.5;entryDx=0;entryDy=0;entryPerimeter=0;endFill=1;strokeWidth=2;fillColor=#dae8fc;strokeColor=#6c8ebf;exitX=1.003;exitY=0.378;exitDx=0;exitDy=0;exitPerimeter=0;" edge="1" parent="1" source="htXlGPYzkKtCfoeAobpg-2" target="htXlGPYzkKtCfoeAobpg-4">
          <mxGeometry width="50" height="50" relative="1" as="geometry">
            <mxPoint x="110" y="451" as="sourcePoint" />
            <mxPoint x="155" y="326" as="targetPoint" />
            <Array as="points">
              <mxPoint x="125" y="449" />
              <mxPoint x="125" y="334" />
            </Array>
          </mxGeometry>
        </mxCell>
        <mxCell id="htXlGPYzkKtCfoeAobpg-9" value="" style="endArrow=blockThin;html=1;rounded=0;entryX=0;entryY=0.5;entryDx=0;entryDy=0;entryPerimeter=0;exitX=0;exitY=0;exitDx=59.99999999999999;exitDy=43.5;exitPerimeter=0;endFill=1;strokeWidth=2;fillColor=#f8cecc;strokeColor=#b85450;" edge="1" parent="1" source="htXlGPYzkKtCfoeAobpg-2" target="htXlGPYzkKtCfoeAobpg-6">
          <mxGeometry width="50" height="50" relative="1" as="geometry">
            <mxPoint x="95" y="446" as="sourcePoint" />
            <mxPoint x="145" y="396" as="targetPoint" />
          </mxGeometry>
        </mxCell>
        <mxCell id="htXlGPYzkKtCfoeAobpg-10" value="" style="endArrow=blockThin;html=1;rounded=0;entryX=0;entryY=0.5;entryDx=0;entryDy=0;entryPerimeter=0;endFill=1;strokeWidth=2;fillColor=#d5e8d4;strokeColor=#82b366;" edge="1" parent="1" target="htXlGPYzkKtCfoeAobpg-7">
          <mxGeometry width="50" height="50" relative="1" as="geometry">
            <mxPoint x="110" y="483" as="sourcePoint" />
            <mxPoint x="155" y="376" as="targetPoint" />
            <Array as="points">
              <mxPoint x="125" y="483" />
              <mxPoint x="126" y="599" />
            </Array>
          </mxGeometry>
        </mxCell>
        <mxCell id="htXlGPYzkKtCfoeAobpg-11" value="Settings" style="text;html=1;align=center;verticalAlign=middle;resizable=0;points=[];autosize=1;strokeColor=none;fillColor=none;" vertex="1" parent="1">
          <mxGeometry x="115" y="306" width="70" height="30" as="geometry" />
        </mxCell>
        <mxCell id="htXlGPYzkKtCfoeAobpg-12" value="Script" style="text;html=1;align=center;verticalAlign=middle;resizable=0;points=[];autosize=1;strokeColor=none;fillColor=none;" vertex="1" parent="1">
          <mxGeometry x="124" y="439" width="50" height="30" as="geometry" />
        </mxCell>
        <mxCell id="htXlGPYzkKtCfoeAobpg-13" value="Macros" style="text;html=1;align=center;verticalAlign=middle;resizable=0;points=[];autosize=1;strokeColor=none;fillColor=none;" vertex="1" parent="1">
          <mxGeometry x="121" y="570" width="60" height="30" as="geometry" />
        </mxCell>
        <mxCell id="htXlGPYzkKtCfoeAobpg-2" value="XML" style="shape=note;whiteSpace=wrap;html=1;backgroundOutline=1;darkOpacity=0.05;size=11;" vertex="1" parent="1">
          <mxGeometry x="50" y="423" width="60" height="70" as="geometry" />
        </mxCell>
      </root>
    </mxGraphModel>
  </diagram>
</mxfile>
